<svg id="Group_3010" data-name="Group 3010" xmlns="http://www.w3.org/2000/svg" width="12.019" height="18" viewBox="0 0 12.019 18">
  <path id="Path_420" data-name="Path 420" d="M11.04,1.32H9.84A1.561,1.561,0,0,0,8.28,0H3.36A1.534,1.534,0,0,0,1.92,1.32H1.08A1.108,1.108,0,0,0,0,2.52v14.4A1.076,1.076,0,0,0,1.08,18h9.84A1.076,1.076,0,0,0,12,16.92V2.52A.966.966,0,0,0,11.04,1.32Zm-8.4.24A.774.774,0,0,1,3.36.84H8.28A.774.774,0,0,1,9,1.56V1.8a.774.774,0,0,1-.72.72H3.36a.774.774,0,0,1-.72-.72V1.56ZM11.4,16.92a.318.318,0,0,1-.36.36H1.08a.318.318,0,0,1-.36-.36V2.52a.318.318,0,0,1,.36-.36h.84A1.441,1.441,0,0,0,3.36,3.24H8.28A1.441,1.441,0,0,0,9.72,2.16h1.2a.318.318,0,0,1,.36.36v14.4Z" fill="#fff"/>
  <path id="Path_421" data-name="Path 421" d="M9.1,5.2H2.26a.383.383,0,0,0-.36.36.318.318,0,0,0,.36.36H9.1a.318.318,0,0,0,.36-.36A.383.383,0,0,0,9.1,5.2Z" transform="translate(0.38 1.04)" fill="#fff"/>
  <path id="Path_422" data-name="Path 422" d="M9.1,7.6H2.26a.318.318,0,0,0-.36.36.318.318,0,0,0,.36.36H9.1a.318.318,0,0,0,.36-.36A.318.318,0,0,0,9.1,7.6Z" transform="translate(0.38 1.52)" fill="#fff"/>
  <path id="Path_423" data-name="Path 423" d="M9.1,9.9H2.26a.36.36,0,1,0,0,.72H9.1a.36.36,0,0,0,0-.72Z" transform="translate(0.38 1.98)" fill="#fff"/>
</svg>
