<svg xmlns="http://www.w3.org/2000/svg" width="64.553" height="64.553" viewBox="0 0 64.553 64.553"><defs><style>.a{fill:#4b5fcc;}</style></defs><path class="a" d="M64.553,35.914a4.721,4.721,0,0,0-8.061-3.339l-4.433,4.433V0H11.022L0,11.022V64.553H52.059V50.365L63.17,39.253A4.692,4.692,0,0,0,64.553,35.914ZM39.041,54l2.709,2.709-3.792,1.107Zm4.688,1.743-1.13-1.13L57.464,39.752l1.131,1.131Zm-2.6-2.6L40,52.015,54.862,37.149l1.131,1.131ZM10.412,3.555v6.857H3.555ZM49.976,62.47H2.082V12.494H12.494V2.082H49.976V39.091L37.6,51.47l-2.671,9.4,9.352-2.727,5.7-5.7ZM61.7,37.781,60.068,39.41l-3.734-3.734,1.629-1.629A2.64,2.64,0,0,1,61.7,37.781Zm0,0"/><path class="a" d="M48.929,330.617l-4.481,4.93a7.3,7.3,0,1,0,1.264,1.706l4.758-5.234Zm-4.435,10.071A5.235,5.235,0,1,1,43.04,337.1l-3.919,4.312-2.378-1.585-1.155,1.733,3.869,2.58,4.716-5.188A5.163,5.163,0,0,1,44.494,340.688Zm0,0" transform="translate(-27.835 -287.589)"/><path class="a" d="M44.448,191.547a7.3,7.3,0,1,0,1.264,1.706l4.758-5.234-1.541-1.4Zm.046,5.141A5.235,5.235,0,1,1,43.04,193.1l-3.919,4.312-2.378-1.585-1.155,1.733,3.869,2.58,4.716-5.188A5.163,5.163,0,0,1,44.494,196.688Zm0,0" transform="translate(-27.835 -162.33)"/><path class="a" d="M352,256h2.082v2.082H352Zm0,0" transform="translate(-306.189 -222.683)"/><path class="a" d="M176,256h20.823v2.082H176Zm0,0" transform="translate(-153.094 -222.683)"/><path class="a" d="M176,224h24.988v2.082H176Zm0,0" transform="translate(-153.094 -194.847)"/><path class="a" d="M176,288h24.988v2.082H176Zm0,0" transform="translate(-153.094 -250.518)"/><path class="a" d="M176,400h11.453v2.082H176Zm0,0" transform="translate(-153.094 -347.941)"/><path class="a" d="M176,432h11.453v2.082H176Zm0,0" transform="translate(-153.094 -375.777)"/><path class="a" d="M176,368h11.453v2.082H176Zm0,0" transform="translate(-153.094 -320.106)"/><path class="a" d="M117.206,50.741h22.906a5.212,5.212,0,0,0,5.206-5.206V37.206A5.212,5.212,0,0,0,140.112,32H117.206A5.212,5.212,0,0,0,112,37.206v8.329A5.212,5.212,0,0,0,117.206,50.741Zm-3.124-13.535a3.128,3.128,0,0,1,3.124-3.124h22.906a3.128,3.128,0,0,1,3.123,3.124v8.329a3.128,3.128,0,0,1-3.123,3.124H117.206a3.128,3.128,0,0,1-3.124-3.124Zm0,0" transform="translate(-97.424 -27.835)"/><path class="a" d="M294.247,80H288v6.247h6.247Zm-2.082,4.165h-2.082V82.082h2.082Zm0,0" transform="translate(-250.518 -69.588)"/><path class="a" d="M222.247,80H216v6.247h6.247Zm-2.082,4.165h-2.082V82.082h2.082Zm0,0" transform="translate(-187.888 -69.588)"/><path class="a" d="M150.247,80H144v6.247h6.247Zm-2.082,4.165h-2.082V82.082h2.082Zm0,0" transform="translate(-125.259 -69.588)"/></svg>