<svg xmlns="http://www.w3.org/2000/svg" width="18" height="18" viewBox="0 0 18 18">
  <g id="Group_3128" data-name="Group 3128" transform="translate(-7158 -84)">
    <path id="Path_449" data-name="Path 449" d="M9,0A9,9,0,1,1,0,9,9,9,0,0,1,9,0Z" transform="translate(7158 84)" fill="#15841c"/>
    <g id="Group_3044" data-name="Group 3044" transform="translate(7163.144 89.143)">
      <path id="Path_448" data-name="Path 448" d="M2.75,6.264.179,3.35a.414.414,0,0,1,0-.6.414.414,0,0,1,.6,0L2.75,4.979,7.036.179a.414.414,0,0,1,.6,0,.414.414,0,0,1,0,.6Z" transform="translate(-0.05 -0.05)" fill="#fff"/>
    </g>
  </g>
</svg>
