<svg xmlns="http://www.w3.org/2000/svg" width="19.142" height="18.04" viewBox="0 0 19.142 18.04">
  <g id="Concerns" transform="translate(-0.159)">
    <path id="Path_424" data-name="Path 424" d="M19.56,7.31H15.48a4.08,4.08,0,0,0-2-.53,3.91,3.91,0,0,0-1,.13,4.157,4.157,0,0,1,.05-.77,3.61,3.61,0,0,0,.54-1.92A3.1,3.1,0,0,0,10.24.93,3.1,3.1,0,0,0,7.36,4.22,3.61,3.61,0,0,0,7.9,6.14L8,7a1.516,1.516,0,0,1-1.06.35h-6A.36.36,0,0,0,.91,8h6c.99,0,1.74-.44,1.74-1V6.3a1.87,1.87,0,0,0-.15-.49,2.91,2.91,0,0,1-.43-1.55,2.41,2.41,0,0,1,2.17-2.59A2.41,2.41,0,0,1,12.4,4.22,2.91,2.91,0,0,1,12,5.77a1.87,1.87,0,0,0-.15.49V7a.57.57,0,0,0,0,.18,4,4,0,0,0,1.38,7.72v3.71a.35.35,0,0,0,.35.36.36.36,0,0,0,.35-.36V14.85a4,4,0,0,0,3.46-5.07h.41a.36.36,0,0,0,0-.71h-.67A3.91,3.91,0,0,0,16.39,8h3.17a.36.36,0,0,0,0-.71Zm-2.73,3.52a3.34,3.34,0,1,1-3.34-3.34,3.34,3.34,0,0,1,3.34,3.34Z" transform="translate(-0.56 -0.93)" fill="#fff"/>
    <path id="Path_425" data-name="Path 425" d="M5.48,9.07H2.67a.36.36,0,0,0,0,.71H5.48a1.05,1.05,0,0,1,1.06,1.05v7.74a.36.36,0,0,0,.35.36.35.35,0,0,0,.35-.36V10.83A1.76,1.76,0,0,0,5.48,9.07Z" transform="translate(-0.56 -0.93)" fill="#fff"/>
    <path id="Path_426" data-name="Path 426" d="M13.49,8.37a2.46,2.46,0,1,0,1.772.7,2.46,2.46,0,0,0-1.772-.7Zm0,4.22a1.75,1.75,0,1,1,1.241-.516,1.76,1.76,0,0,1-1.241.516Z" transform="translate(-0.56 -0.93)" fill="#fff"/>
    <circle id="Ellipse_1173" data-name="Ellipse 1173" cx="0.8" cy="0.8" r="0.8" transform="translate(12.13 9.11)" fill="#fff"/>
  </g>
</svg>
