<svg xmlns="http://www.w3.org/2000/svg" width="16" height="14.913" viewBox="0 0 16 14.913">
  <path id="ruler" d="M85.028,72.23a.887.887,0,0,0-1.192,0l-.742.692,1.3,1.216a.232.232,0,0,1,0,.344.275.275,0,0,1-.369,0l-1.3-1.216-2.27,2.115,1.78,1.659a.232.232,0,0,1,0,.344.275.275,0,0,1-.369,0l-1.78-1.659-2.27,2.115,1.3,1.216a.232.232,0,0,1,0,.344.274.274,0,0,1-.369,0l-1.3-1.216L75.179,80.3l1.78,1.659a.232.232,0,0,1,0,.344.275.275,0,0,1-.369,0l-1.78-1.659-2.563,2.389a.748.748,0,0,0,0,1.111l2.725,2.54a.887.887,0,0,0,1.192,0l11.589-10.8a.748.748,0,0,0,0-1.111Zm-9.8,12.615a.274.274,0,0,1-.369,0l-.644-.6a.232.232,0,0,1,0-.344.275.275,0,0,1,.369,0l.644.6A.232.232,0,0,1,75.232,84.845Z" transform="translate(-72 -72)" fill="#fdfafa"/>
</svg>
