<svg xmlns="http://www.w3.org/2000/svg" width="18.333" height="20" viewBox="0 0 18.333 20"><defs><style>.a{fill:#363584;}</style></defs><g transform="translate(-19.999)"><g transform="translate(19.999)"><g transform="translate(0)"><path class="a" d="M34.43,13.431l-.674.674-.424-1.485v-3.7l.711,1.243a.328.328,0,0,0,.073.088l2.333,2a.333.333,0,0,0,.452-.017L38.235,10.9a.333.333,0,0,0,0-.471L36.273,8.469,35.183,6.29A2.32,2.32,0,0,0,33.1,5h-.868a2.976,2.976,0,0,0,.493-3.252L33.8.667h4.529V0H33.666a.332.332,0,0,0-.236.1L32.365,1.162A3,3,0,1,0,27.769,5H26.9a2.324,2.324,0,0,0-1.134.3L23.9,3.431a.332.332,0,0,0-.236-.1H20V4h3.529l1.706,1.706a2.339,2.339,0,0,0-.418.584l-1.1,2.191-.97,1.132L21.9,8.765a.332.332,0,0,0-.236-.1H20v.667h1.529l.787.787-.568.663a.333.333,0,0,0,.017.452L23.1,12.569a.333.333,0,0,0,.471,0L25.9,10.236a.336.336,0,0,0,.054-.07l.711-1.243v3.7L25.5,16.7l-1.266-1.266a.332.332,0,0,0-.236-.1H20V16h3.862l1.43,1.43-.613,2.145A.333.333,0,0,0,25,20h3a.334.334,0,0,0,.321-.242L30,13.88l1.679,5.878A.334.334,0,0,0,32,20h3a.333.333,0,0,0,.321-.425l-1.354-4.737L34.8,14h3.529v-.667H34.666A.332.332,0,0,0,34.43,13.431ZM27.666,3A2.331,2.331,0,0,1,31.89,1.638l-.793.793.471.471.642-.642a2.324,2.324,0,0,1-1.089,2.785,2.253,2.253,0,0,1-.254.119l-.019.007a2.39,2.39,0,0,1-1.7,0l-.019-.007a2.171,2.171,0,0,1-.254-.119A2.335,2.335,0,0,1,27.666,3Zm6.891,16.333H32.25L30.32,12.575a.333.333,0,0,0-.641,0l-1.931,6.758H25.441l.39-1.364.6.6L26.9,18.1l-.861-.861,1.279-4.478a.324.324,0,0,0,.013-.091v-5A.333.333,0,0,0,26.71,7.5L25.4,9.8l-2.066,2.066-.879-.88.334-.39.31.31.471-.471-.346-.346,1.03-1.2a.329.329,0,0,0,.045-.068l1.114-2.228a1.675,1.675,0,0,1,.293-.412l.393.393.471-.471-.3-.3a1.678,1.678,0,0,1,.637-.127h1.724c.019.01.039.016.058.025.077.038.156.073.237.1l.065.024a2.943,2.943,0,0,0,2.026,0l.065-.024c.081-.031.16-.066.237-.1.019-.009.039-.016.058-.025H33.1a1.658,1.658,0,0,1,1.49.921L35.7,8.816a.327.327,0,0,0,.063.087l1.764,1.764-.88.879L34.593,9.785,33.288,7.5a.333.333,0,0,0-.623.165v5a.336.336,0,0,0,.013.091l.539,1.886-.787.787.471.471.525-.525Z" transform="translate(-19.999)"/></g></g><g transform="translate(28.332 7.333)"><g transform="translate(0)"><path class="a" d="M222.47,178l-.471-.471V176h-.667v1.529l-.471.471H220v.667h1a.332.332,0,0,0,.236-.1l.431-.431.431.431a.332.332,0,0,0,.236.1h1V178Z" transform="translate(-219.999 -176)"/></g></g></g></svg>