<svg xmlns="http://www.w3.org/2000/svg" width="16" height="16" viewBox="0 0 16 16"><defs><style>.a{opacity:1;}.b{fill:#000000;}</style></defs><g class="a" transform="translate(-1 -1)"><path class="b" d="M9,1a8,8,0,1,0,8,8A8,8,0,0,0,9,1ZM9,15.545A6.545,6.545,0,1,1,15.545,9,6.545,6.545,0,0,1,9,15.545Z"/><path class="b" d="M12.878,6.213a.727.727,0,0,0-1.028,0L8.213,9.85a.727.727,0,0,0,0,1.028l3.636,3.636a.727.727,0,1,0,1.028-1.028L9.756,10.364l3.122-3.122a.727.727,0,0,0,0-1.028Z" transform="translate(-1.909 -1.364)"/></g></svg>