<svg width="17" height="15" viewBox="0 0 17 15" fill="none" xmlns="http://www.w3.org/2000/svg">
    <path fill-rule="evenodd"  d="M0.967635 0H14.9108C15.443 0 15.8785 0.504173 15.8785 1.12039V11.5256C15.8785 12.1418 15.443 12.646 14.9108 12.646H0.967635C0.435434 12.646 0 12.1418 0 11.5256V1.12039C0 0.504173 0.435434 0 0.967635 0ZM11.9216 8.07611C12.1728 8.07611 12.4067 8.16302 12.6021 8.31241C12.7975 8.16302 13.0313 8.07611 13.2825 8.07611C13.9648 8.07611 14.5181 8.71675 14.5181 9.50674C14.5181 10.2967 13.9648 10.9374 13.2825 10.9374C13.0313 10.9374 12.7975 10.8505 12.6021 10.7011C12.4067 10.8505 12.1735 10.9374 11.9216 10.9374C11.2393 10.9374 10.686 10.2967 10.686 9.50674C10.686 8.71675 11.2393 8.07611 11.9216 8.07611ZM1.65917 7.49365H6.00859V8.70524H1.65917V7.49365ZM1.65917 9.71208H8.40155V10.9237H1.65917V9.71208Z" fill="#000"/>
</svg>
