<svg width="18" height="18" viewBox="0 0 18 18" fill="none" xmlns="http://www.w3.org/2000/svg">
    <path d="M13.4226 -4.00543e-05L12.4939 0.906578L14.9263 3.36113C15.0546 3.47423 15.0668 3.66986 14.9537 3.7981C14.9452 3.8078 14.936 3.81698 14.9263 3.82553C14.8605 3.88673 14.7728 3.91865 14.6831 3.91399C14.6005 3.91518 14.5209 3.88335 14.4619 3.82553L12.0074 1.39307L10.7691 2.63139L10.5 3C10.6292 2.86354 10.6292 3.13646 10.5 3C10.441 3.05777 10.5 3 12.1401 4.77638C12.0504 4.78103 10.5 3 10.3047 3.09579L9.06634 4.33412L11.5209 6.76654C11.6315 6.90981 11.6315 7.10971 11.5209 7.25303C11.3806 7.37209 11.1747 7.37209 11.0344 7.25303L8.60199 4.79847L7.36366 6.0368V6.17377C7.49009 6.30274 7.12643 6.37099 7 6.49996C6.87544 6.6343 8.62137 8.23558 8.48703 8.11101C8.4809 8.10534 8.47497 8.09941 8.4693 8.09328L6.89927 6.5012L5.66094 7.73952L8.09336 10.1941C8.22161 10.3072 8.23388 10.5028 8.12079 10.631C8.11224 10.6407 8.10305 10.6499 8.09336 10.6585C8.02759 10.7197 7.93985 10.7516 7.85011 10.7469C7.76754 10.7481 7.68796 10.7163 7.629 10.6585L5.17445 8.22605L3.93613 9.46438L5.52825 11.0344C5.65743 11.1709 5.65743 11.3844 5.52825 11.5209C5.46929 11.5787 5.38968 11.6105 5.30714 11.6094C5.21741 11.614 5.12967 11.5821 5.0639 11.5209L3.47173 9.92873L0 13.4226L4.5774 18L18 4.57736L13.4226 -4.00543e-05ZM4.86539 15.0142C4.36459 15.5147 3.55236 15.5152 3.05156 15.0147C2.55055 14.514 2.5503 13.7019 3.05101 13.2009C3.55172 12.6999 4.36378 12.6996 4.86484 13.2003C5.36589 13.7011 5.36614 14.5132 4.86539 15.0142Z" fill="#000"/>
</svg>
