<svg width="14" height="16" viewBox="0 0 14 16" fill="none" xmlns="http://www.w3.org/2000/svg">
    <path d="M12.625 0.25H11.5V1.9375C11.5 2.86788 10.7429 3.625 9.8125 3.625H4.1875C3.25712 3.625 2.5 2.86788 2.5 1.9375V0.25H1.375C0.755125 0.25 0.25 0.755125 0.25 1.375V14.875C0.25 15.5061 0.743875 16 1.375 16H12.625C13.2561 16 13.75 15.5061 13.75 14.875V1.375C13.75 0.743875 13.2561 0.25 12.625 0.25ZM6.83575 10.2108L4.58575 12.4608C4.4755 12.5699 4.3315 12.625 4.1875 12.625C4.0435 12.625 3.8995 12.5699 3.78925 12.4608L2.66425 11.3358C2.44488 11.1164 2.44488 10.7598 2.66425 10.5404C2.88362 10.321 3.24025 10.321 3.45963 10.5404L4.1875 11.2671L6.03925 9.41538C6.25863 9.196 6.61525 9.196 6.83463 9.41538C7.054 9.63475 7.05513 9.99025 6.83575 10.2108ZM6.83575 5.71075L4.58575 7.96075C4.4755 8.06988 4.3315 8.125 4.1875 8.125C4.0435 8.125 3.8995 8.06988 3.78925 7.96075L2.66425 6.83575C2.44488 6.61637 2.44488 6.25975 2.66425 6.04037C2.88362 5.821 3.24025 5.821 3.45963 6.04037L4.1875 6.76713L6.03925 4.91537C6.25863 4.696 6.61525 4.696 6.83463 4.91537C7.054 5.13475 7.05513 5.49025 6.83575 5.71075ZM10.9375 11.5H8.6875C8.377 11.5 8.125 11.248 8.125 10.9375C8.125 10.627 8.377 10.375 8.6875 10.375H10.9375C11.248 10.375 11.5 10.627 11.5 10.9375C11.5 11.248 11.248 11.5 10.9375 11.5ZM10.9375 7H8.6875C8.377 7 8.125 6.748 8.125 6.4375C8.125 6.127 8.377 5.875 8.6875 5.875H10.9375C11.248 5.875 11.5 6.127 11.5 6.4375C11.5 6.748 11.248 7 10.9375 7Z" fill="#000"/>
</svg>
