<svg xmlns="http://www.w3.org/2000/svg" width="22" height="17" viewBox="0 0 22 17"><defs><style>.a{fill:#5760cc;}</style></defs><g transform="translate(0 -57.722)"><path class="a" d="M7.008,57.722h-6a1,1,0,0,0-1,1v6a1,1,0,0,0,1,1h6a1,1,0,0,0,1-1v-6A1,1,0,0,0,7.008,57.722Zm-1,6v-4h0Z" transform="translate(-0.008)"/><path class="a" d="M241.88,126.983h-10a1,1,0,1,0,0,2h10a1,1,0,1,0,0-2Z" transform="translate(-220.88 -66.261)"/><path class="a" d="M241.88,357.855h-10a1,1,0,0,0,0,2h10a1,1,0,1,0,0-2Z" transform="translate(-220.88 -287.133)"/><path class="a" d="M6.3,310.933l-3.329,3.289-1.252-1.3a1,1,0,0,0-1.438,1.391l1.954,2.031a1,1,0,0,0,.707.3h.012a1,1,0,0,0,.7-.289l4.046-4a1,1,0,1,0-1.4-1.422Z" transform="translate(0 -241.922)"/></g></svg>