<svg xmlns="http://www.w3.org/2000/svg" width="15.625" height="14.375" viewBox="0 0 15.625 14.375"><defs><style>.a{fill:#000000;}</style></defs><g transform="translate(0 1.332)"><path class="a" d="M13.477-1.332H2.148A2.151,2.151,0,0,0,0,.816V7.749A2.151,2.151,0,0,0,2.141,9.9v3.146L6.662,9.9h6.815a2.151,2.151,0,0,0,2.148-2.148V.816A2.151,2.151,0,0,0,13.477-1.332Zm1.233,9.081a1.234,1.234,0,0,1-1.233,1.233h-7.1L3.056,11.291V8.982H2.148A1.234,1.234,0,0,1,.916,7.749V.816A1.234,1.234,0,0,1,2.148-.417H13.477A1.234,1.234,0,0,1,14.709.816Zm0,0"/><path class="a" d="M171.293,131.172h7.261v.916h-7.261Zm0,0" transform="translate(-167.111 -129.269)"/><path class="a" d="M171.293,211.172h7.261v.916h-7.261Zm0,0" transform="translate(-167.111 -207.316)"/><path class="a" d="M171.293,291.172h7.261v.916h-7.261Zm0,0" transform="translate(-167.111 -285.363)"/></g></svg>