<svg width="17" height="15" viewBox="0 0 17 15" fill="none" xmlns="http://www.w3.org/2000/svg">
    <path d="M14.4643 0H1.60714C0.721071 0 0 0.721071 0 1.60714V10.1786C0 11.0646 0.721071 11.7857 1.60714 11.7857H3.21429V14.4643C3.21429 14.6705 3.33268 14.8575 3.5175 14.947C3.59196 14.9823 3.67125 15 3.75 15C3.86946 15 3.98786 14.9604 4.08482 14.8827L7.95589 11.7857H14.4643C15.3504 11.7857 16.0714 11.0646 16.0714 10.1786V1.60714C16.0714 0.721071 15.3504 0 14.4643 0ZM8.03571 7.5H3.75C3.45375 7.5 3.21429 7.26 3.21429 6.96429C3.21429 6.66857 3.45375 6.42857 3.75 6.42857H8.03571C8.33196 6.42857 8.57143 6.66857 8.57143 6.96429C8.57143 7.26 8.33196 7.5 8.03571 7.5ZM12.3214 5.35714H3.75C3.45375 5.35714 3.21429 5.11714 3.21429 4.82143C3.21429 4.52571 3.45375 4.28571 3.75 4.28571H12.3214C12.6177 4.28571 12.8571 4.52571 12.8571 4.82143C12.8571 5.11714 12.6177 5.35714 12.3214 5.35714Z" fill="#000"/>
</svg>
