<svg width="17" height="17" viewBox="0 0 17 17" fill="none" xmlns="http://www.w3.org/2000/svg">
    <path d="M15.5078 5.23039C15.8364 3.60753 14.6848 2.08157 13.0784 1.90894C12.2386 -0.0735489 9.52849 -0.405151 8.25056 1.37854C6.97262 -0.405086 4.26262 -0.074004 3.42269 1.90894C1.81533 2.0817 0.664934 3.60863 0.993318 5.23039C-0.203993 6.23372 -0.327759 8.02183 0.678881 9.1813C-0.988882 11.4273 0.596273 14.7008 3.47341 14.7008C4.39214 16.6174 7.01515 16.8447 8.25053 15.1204C9.48691 16.8461 12.1098 16.6155 13.0276 14.7008C15.9115 14.7008 17.4848 11.4204 15.8222 9.1813C16.8301 8.02037 16.7036 6.23245 15.5078 5.23039ZM4.6413 11.9699C4.38414 12.2811 4.2425 12.6753 4.2425 13.0799C4.2425 13.3672 4.00963 13.6001 3.72234 13.6001C3.43505 13.6001 3.20218 13.3672 3.20218 13.0799C3.20218 12.434 3.42848 11.8044 3.83941 11.3072C4.02241 11.0858 4.35027 11.0546 4.57169 11.2376C4.79315 11.4206 4.82433 11.7484 4.6413 11.9699ZM5.93286 7.31611C5.01884 7.61487 4.51831 8.60158 4.81711 9.5156C4.90638 9.78865 4.75739 10.0824 4.48434 10.1717C4.21282 10.2604 3.91805 10.1134 3.82829 9.83888C3.72032 9.50861 3.6763 9.16801 3.69347 8.83107C3.26131 8.87646 2.85357 9.03549 2.50204 9.2986C2.27207 9.47071 1.94606 9.42386 1.77392 9.19382C1.60178 8.96384 1.64865 8.63783 1.87866 8.46572C2.48078 8.01507 3.19753 7.77687 3.95144 7.77687C3.9819 7.77687 4.06207 7.48971 4.41308 7.1019C3.88976 6.12712 4.09702 4.8721 4.99868 4.12492C5.21991 3.94166 5.54784 3.97239 5.7311 4.19355C5.91439 4.41478 5.88364 4.74268 5.66247 4.92597C5.20037 5.30884 5.05736 5.93576 5.26465 6.46646C5.3757 6.41314 5.49059 6.3662 5.60964 6.32728C5.88279 6.23788 6.17642 6.387 6.26569 6.66005C6.35497 6.9331 6.20591 7.22683 5.93286 7.31611ZM8.77072 13.7437C8.77072 14.0309 8.53785 14.2638 8.25056 14.2638C7.96327 14.2638 7.7304 14.0309 7.7304 13.7437V2.75528C7.7304 2.46799 7.96327 2.23512 8.25056 2.23512C8.53785 2.23512 8.77072 2.46799 8.77072 2.75528V13.7437ZM12.7787 13.6001C12.4914 13.6001 12.2586 13.3672 12.2586 13.0799C12.2586 12.6753 12.1169 12.2811 11.8598 11.9698C11.6767 11.7484 11.7079 11.4206 11.9294 11.2376C12.1508 11.0545 12.4786 11.0857 12.6616 11.3072C13.0726 11.8044 13.2989 12.434 13.2989 13.0799C13.2989 13.3672 13.066 13.6001 12.7787 13.6001ZM14.7597 9.19385C14.5876 9.42383 14.2616 9.47077 14.0316 9.29863C13.6801 9.03553 13.2723 8.87646 12.8402 8.8311C12.8574 9.168 12.8133 9.50865 12.7054 9.83891C12.6157 10.1132 12.3212 10.2606 12.0493 10.1717C11.7763 10.0824 11.6273 9.78872 11.7165 9.51563C12.0153 8.60162 11.5148 7.6149 10.6008 7.31614C10.3278 7.22687 10.1788 6.93317 10.268 6.66009C10.3573 6.387 10.6509 6.23791 10.9241 6.32731C11.0431 6.36623 11.1581 6.41317 11.2691 6.46649C11.4763 5.9358 11.3334 5.30891 10.8713 4.926C10.6501 4.74268 10.6193 4.41478 10.8026 4.19358C10.9859 3.97239 11.3138 3.9417 11.535 4.12496C12.4359 4.87148 12.6444 6.12637 12.1206 7.10193C12.3088 7.3098 12.4543 7.53028 12.5722 7.77742C13.2657 7.76448 14.025 7.9942 14.6551 8.46579C14.885 8.63786 14.9319 8.96387 14.7597 9.19385Z" fill="#000"/>
</svg>
