<svg xmlns="http://www.w3.org/2000/svg" width="15.999" height="15.999" viewBox="0 0 15.999 15.999"><defs><style>.a{fill:#000000;}</style></defs><g transform="translate(-1 -1)"><path class="a" d="M16.272,16a.727.727,0,0,0-.727.727v2.909H2.454V16.727a.727.727,0,0,0-1.454,0v3.636a.727.727,0,0,0,.727.727H16.272A.727.727,0,0,0,17,20.363V16.727A.727.727,0,0,0,16.272,16Z" transform="translate(0 -4.092)"/><path class="a" d="M9.576,13.15a.727.727,0,0,0,1.028,0l4.363-4.363A.727.727,0,1,0,13.94,7.758L10.818,10.88V1.727a.727.727,0,1,0-1.454,0V10.88L6.241,7.758A.727.727,0,1,0,5.213,8.787Z" transform="translate(-1.091)"/></g></svg>