<svg xmlns="http://www.w3.org/2000/svg" width="14.537" height="14.537" viewBox="0 0 14.537 14.537"><defs><style>.a{fill:#000000;}</style></defs><path class="a" d="M13.66,0H.877A.878.878,0,0,0,0,.877V13.66a.879.879,0,0,0,.877.877H13.66a.879.879,0,0,0,.877-.877V.878A.879.879,0,0,0,13.66,0Zm-.176,13.485H1.052V1.053H13.484Z"/><path class="a" d="M2.126,8.744H3.731A.335.335,0,0,0,4.053,8.5l.492-1.78.7,3.9a.33.33,0,0,0,.358.273.334.334,0,0,0,.3-.332V8.744h.95a.334.334,0,0,0,.331-.286l.526-3.619,1.142,6.3a.333.333,0,0,0,.327.273h0a.333.333,0,0,0,.328-.27l.51-2.627h.256l.385.652a.332.332,0,0,0,.281.164.337.337,0,0,0,.287-.152l.383-.59h.461a.335.335,0,0,0,0-.669h-.642a.336.336,0,0,0-.28.152l-.188.29-.207-.352a.334.334,0,0,0-.288-.164H9.752a.333.333,0,0,0-.328.27L9.2,9.269,8.012,2.7a.334.334,0,0,0-.66.012l-.779,5.36h-1a.33.33,0,0,0-.105.017L4.944,5.154A.334.334,0,0,0,4.63,4.88a.306.306,0,0,0-.337.245l-.815,2.95H2.126a.335.335,0,0,0,0,.669Z"/></svg>