<svg xmlns="http://www.w3.org/2000/svg" width="15.892" height="15.891" viewBox="0 0 15.892 15.891"><defs><style>.a{fill:#000000;}</style></defs><g transform="translate(0 -0.004)"><g transform="translate(0 1.139)"><path class="a" d="M13.054,40.948a.568.568,0,0,0-.568.568v5.675a.568.568,0,0,1-.568.568H1.7a.568.568,0,0,1-.568-.568V35.84a.568.568,0,0,1,.568-.568H8.513a.568.568,0,1,0,0-1.135H1.7A1.7,1.7,0,0,0,0,35.84V47.191a1.7,1.7,0,0,0,1.7,1.7H11.919a1.7,1.7,0,0,0,1.7-1.7V41.515A.568.568,0,0,0,13.054,40.948Z" transform="translate(0 -34.137)"/></g><g transform="translate(3.406 0.004)"><g transform="translate(0 0)"><path class="a" d="M114.258.64a2.172,2.172,0,0,0-3.073,0L103.71,8.116a.574.574,0,0,0-.137.222l-1.135,3.405a.568.568,0,0,0,.538.747.576.576,0,0,0,.179-.029l3.405-1.135a.568.568,0,0,0,.222-.137l7.476-7.476A2.173,2.173,0,0,0,114.258.64Zm-.8,2.271-7.378,7.378-2.2.736.734-2.2,7.381-7.378a1.037,1.037,0,1,1,1.468,1.465Z" transform="translate(-102.409 -0.004)"/></g></g></g></svg>