<svg width="16" height="16" viewBox="0 0 16 16" fill="none" xmlns="http://www.w3.org/2000/svg">
        <path d="M11.4223 8C10.4232 8 9.61035 8.81283 9.61035 9.812C9.61035 10.8112 10.4232 11.624 11.4223 11.624C12.4214 11.624 13.2343 10.8112 13.2343 9.812C13.2343 8.81283 12.4214 8 11.4223 8Z" fill="#000"/>
        <path d="M9.69555 12.1584C8.65485 12.7512 8 13.8617 8 15.0864V16.3016C8 16.3571 8.03364 16.3996 8.10209 16.3996H14.6398C14.7033 16.3996 14.7351 16.3651 14.7351 16.3016V15.0864C14.7351 13.863 14.0883 12.7522 13.043 12.1582C12.544 12.4783 11.9659 12.6508 11.3654 12.6508C10.7689 12.6508 10.1935 12.4784 9.69555 12.1584Z" fill="#000"/>
        <path d="M4.4228 8C3.42367 8 2.61084 8.81283 2.61084 9.812C2.61084 10.8112 3.42367 11.624 4.4228 11.624C5.42192 11.624 6.23476 10.8112 6.23476 9.812C6.23476 8.81283 5.42192 8 4.4228 8Z" fill="#000"/>
        <path d="M2.69575 12.1584C1.65509 12.7511 1 13.8617 1 15.0864V16.3016C1 16.3571 1.03412 16.3996 1.10253 16.3996H7.64027C7.70372 16.3996 7.73501 16.3651 7.73501 16.3016V15.0864C7.73501 13.863 7.0885 12.7522 6.04315 12.1582C5.54417 12.4783 4.96614 12.6508 4.36559 12.6508C3.76914 12.6508 3.19374 12.4784 2.69575 12.1584Z" fill="#000"/>
        <path d="M11.2859 1.1709H4.3952C4.01758 1.1709 3.69238 1.45993 3.69238 1.83758V5.07916C3.69238 5.45681 4.01758 5.78635 4.3952 5.78635H9.69022C9.83935 5.78635 9.9825 5.82341 10.1014 5.9135L11.9659 7.31663V1.83758C11.9659 1.45996 11.6635 1.1709 11.2859 1.1709Z" fill="#000"/>
    <defs>
    </defs>
</svg>
