<svg width="8" height="16" viewBox="0 0 8 16" fill="none" xmlns="http://www.w3.org/2000/svg">
    <path d="M3.07999 4.83687V7.98561V10.1908V12.5656C3.07999 12.8899 2.83375 13.1528 2.52999 13.1528C2.22624 13.1528 1.97999 12.8899 1.97999 12.5656V10.1908V7.98561V4.83687C1.97999 3.69187 1.98 3.69187 1.98784 3.30679C2.01693 3.12494 2.09983 2.89935 2.27391 2.67687C2.55132 2.32236 2.97411 2.11384 3.51999 2.11384C4.06587 2.11384 4.48867 2.32236 4.76607 2.67687C4.94015 2.89935 5.02305 3.12494 5.05999 3.40563V12.5656C5.05999 12.9128 4.9851 13.3926 4.75442 13.8851C4.35497 14.738 3.6123 15.2666 2.52999 15.2666C0.472607 15.2666 0 14.2575 0 11.861V4.11024C0 1.26615 1.26638 0 3.45844 0C5.68303 0 7.03186 1.27903 7.03186 4.11024V12.8413C7.03186 13.1656 6.78562 13.4285 6.48186 13.4285C6.17811 13.4285 5.93186 13.1656 5.93186 12.8413V4.11024C5.93186 1.96066 5.10265 1.17435 3.45844 1.17435C1.85835 1.17435 1.1 1.93257 1.1 4.11024V11.861C1.1 13.6921 1.28739 14.0922 2.52999 14.0922C3.18019 14.0922 3.55127 13.8281 3.77056 13.3599C3.91113 13.0598 3.95999 12.7468 3.95999 12.5656L3.96784 3.50502C3.96697 3.5055 3.95259 3.46901 3.92188 3.42977C3.85469 3.3439 3.74174 3.28819 3.51999 3.28819C3.29824 3.28819 3.18529 3.3439 3.1181 3.42977C3.09822 3.45517 3.08518 3.47943 3.07999 3.47097V4.83687Z" fill="#6D7278"/>
</svg>