<svg xmlns="http://www.w3.org/2000/svg" width="9.116" height="14.549" viewBox="0 0 9.116 14.549"><defs><style>.a{fill:#353484;stroke:#353484;stroke-width:0.4px;}</style></defs><g transform="translate(-7.8 -2.8)"><path class="a" d="M15.211,6.809,16.6,4.959a.544.544,0,0,0-.435-.871H10.177V3.544a.544.544,0,0,0-1.088,0V16.061H8.544a.544.544,0,1,0,0,1.088h2.177a.544.544,0,1,0,0-1.088h-.544V9.53h5.986A.544.544,0,0,0,16.6,8.66Zm-1.116.327.98,1.306h-4.9V5.177h4.9l-.98,1.306A.544.544,0,0,0,14.095,7.136Z"/></g></svg>