<svg xmlns="http://www.w3.org/2000/svg" width="14.321" height="14.319" viewBox="0 0 14.321 14.319"><defs><style>.a{fill:#000000;}</style></defs><g transform="translate(-0.001 -0.049)"><g transform="translate(0.001 0.049)"><g transform="translate(0 0)"><path class="a" d="M13.708,10.8c-1.282-1.282-1.2-1.2-1.234-1.227l-3.393-2.5L10.4,5.75a2.937,2.937,0,0,0,3.636-4.032.42.42,0,0,0-.675-.116L12.274,2.688a.419.419,0,0,1-.593-.593l1.085-1.085A.42.42,0,0,0,12.65.334,2.937,2.937,0,0,0,8.618,3.971L7.1,5.489c-.309-.24.1.17-2.812-2.916l.305-.305a.42.42,0,0,0-.081-.656L2.266.263a1.494,1.494,0,0,0-2.05,2.05L1.564,4.559a.42.42,0,0,0,.656.081l.288-.288C5.4,7.423,5.023,7.006,5.252,7.3l.017.02L3.923,8.665A2.937,2.937,0,0,0,.287,12.7a.42.42,0,0,0,.675.116l1.085-1.085a.419.419,0,0,1,.593.593L1.555,13.406a.42.42,0,0,0,.116.675A2.937,2.937,0,0,0,5.7,10.445L6.852,9.3l2.676,3.253c.02.025-.047-.044,1.15,1.153a2.251,2.251,0,0,0,1.585.662,2.007,2.007,0,0,0,1.178-.371A2.1,2.1,0,0,0,13.708,10.8ZM2.822,3.462a.42.42,0,0,0-.6-.009l-.213.213L.936,1.881a.655.655,0,0,1,.9-.9L3.62,2.054l-.213.213a.419.419,0,0,0-.009.584C6.743,6.4,6.217,5.864,6.5,6.086l-.637.636C5.646,6.44,6.157,7,2.822,3.462ZM4.911,10.05a.419.419,0,0,0-.082.477,2.1,2.1,0,0,1-2.19,2.981l.593-.593a1.258,1.258,0,0,0-1.78-1.78l-.593.593a2.1,2.1,0,0,1,2.981-2.19.419.419,0,0,0,.477-.082L9.409,4.366a.419.419,0,0,0,.082-.477A2.1,2.1,0,0,1,11.681.908l-.593.593a1.258,1.258,0,0,0,1.78,1.78l.593-.593a2.1,2.1,0,0,1-2.981,2.19A.419.419,0,0,0,10,4.959ZM7.446,8.7,8.482,7.666l1.055.779L8.276,9.706C7.419,8.664,7.472,8.727,7.446,8.7Zm5.5,4.609a1.319,1.319,0,0,1-1.679-.2L10.163,12,8.812,10.357l1.407-1.407,1.732,1.279,1.164,1.164A1.259,1.259,0,0,1,12.951,13.311Z" transform="translate(-0.001 -0.049)"/></g></g><g transform="translate(10.121 10.112)"><path class="a" d="M364.186,361.628l-1.678-1.678a.419.419,0,0,0-.593.593l1.678,1.678a.419.419,0,1,0,.593-.593Z" transform="translate(-361.792 -359.827)"/></g></g></svg>