<svg width="17" height="17" viewBox="0 0 17 17" fill="none" xmlns="http://www.w3.org/2000/svg">
    <path d="M16.3536 3.22358C16.3091 3.05655 16.1789 2.92603 16.012 2.88117C15.8451 2.83631 15.6669 2.88398 15.5447 3.00621L13.8177 4.73324L12.1086 4.39144L11.7668 2.68237L13.4939 0.955346C13.6161 0.833142 13.6637 0.654994 13.6189 0.488092C13.574 0.321159 13.4435 0.190899 13.2765 0.146426C11.7785 -0.252732 10.1694 0.177976 9.07724 1.27017C7.87619 2.47119 7.49189 4.27001 8.069 5.84596L0.764425 12.4549C0.28802 12.8859 0.0168007 13.477 0.000751852 14.1192C-0.015297 14.7615 0.226048 15.3654 0.680346 15.8197C1.12046 16.2598 1.70093 16.5 2.32068 16.5C2.34066 16.5 2.36074 16.4997 2.38081 16.4993C3.02306 16.4832 3.61416 16.212 4.04519 15.7356L10.6538 8.4313C11.1379 8.60864 11.6431 8.6952 12.1455 8.6952C13.2787 8.6952 14.3978 8.25496 15.2299 7.4228C16.3221 6.33061 16.7527 4.72154 16.3536 3.22358ZM2.38942 14.594C2.12245 14.594 1.90602 14.3775 1.90602 14.1106C1.90602 13.8436 2.12245 13.6272 2.38942 13.6272C2.65638 13.6272 2.87282 13.8436 2.87282 14.1106C2.87282 14.3775 2.65642 14.594 2.38942 14.594Z" fill="#000"/>
</svg>
