<svg xmlns="http://www.w3.org/2000/svg" width="14.502" height="14.502" viewBox="0 0 14.502 14.502"><defs><style>.a{fill:#000000;}</style></defs><path class="a" d="M179.443.2a.69.69,0,0,0-.976,0L173.43,5.239l-1.583-1.583a.69.69,0,0,0-1.179.488V8.287a.69.69,0,0,0,.691.691H175.5A.69.69,0,0,0,175.99,7.8l-1.583-1.583,5.036-5.036a.69.69,0,0,0,0-.976Zm0,0" transform="translate(-165.143)"/><path class="a" d="M11.74,35.151H2.072A2.074,2.074,0,0,1,0,33.079V23.412A2.074,2.074,0,0,1,2.072,21.34H7.6a.691.691,0,1,1,0,1.381H2.072a.691.691,0,0,0-.691.691v9.668a.691.691,0,0,0,.691.691H11.74a.691.691,0,0,0,.691-.691V27.555a.691.691,0,1,1,1.381,0v5.524A2.074,2.074,0,0,1,11.74,35.151Zm0,0" transform="translate(0 -20.649)"/></svg>