<svg width="12" height="12" viewBox="0 0 12 12" fill="none" xmlns="http://www.w3.org/2000/svg">
    <path d="M11.0526 0H0.947368C0.696111 0 0.455144 0.0998117 0.277478 0.277478C0.0998117 0.455144 0 0.696111 0 0.947368L0 11.0526C0 11.3039 0.0998117 11.5449 0.277478 11.7225C0.455144 11.9002 0.696111 12 0.947368 12H11.0526C11.3039 12 11.5449 11.9002 11.7225 11.7225C11.9002 11.5449 12 11.3039 12 11.0526V0.947368C12 0.696111 11.9002 0.455144 11.7225 0.277478C11.5449 0.0998117 11.3039 0 11.0526 0V0ZM7.45342 9.15789H5.98737V4.49053L4.54658 4.91132V3.80053L7.31842 2.84211H7.45342V9.15789Z" fill="#000"/>
</svg>
