<svg width="18" height="18" viewBox="0 0 18 18" fill="none" xmlns="http://www.w3.org/2000/svg">
        <path d="M13.8578 1.06444C12.4552 -0.338169 10.1748 -0.342813 8.77218 1.06444L5.25171 4.58491L10.342 9.67518L13.8578 6.15007C15.2604 4.74282 15.2604 2.46706 13.8578 1.06444ZM10.2491 3.14514L8.64678 4.72424L8.64214 4.72888C8.45636 4.91002 8.16376 4.90537 7.98728 4.7196C7.80614 4.53382 7.81079 4.24122 7.99656 4.06473L9.60353 2.48563L9.60818 2.48099C9.79396 2.29986 10.0866 2.3045 10.263 2.49028C10.4395 2.67141 10.4349 2.96865 10.2491 3.14514Z" fill="#000"/>
        <path d="M4.59217 5.23926L1.04848 8.7876C-0.349492 10.1949 -0.349492 12.466 1.04848 13.8732C2.46503 15.2712 4.74543 15.2712 6.16198 13.8732L9.6871 10.3342L4.59217 5.23926Z" fill="#000"/>
        <path d="M17.2574 12.2344L12.2461 17.2504C13.6719 18.3418 15.683 18.2118 16.9509 16.9438C18.2234 15.6759 18.3535 13.6602 17.2574 12.2344Z" fill="#000"/>
        <path d="M14.4244 10.8408C12.4505 10.8408 10.8481 12.4385 10.8481 14.417C10.8481 15.2066 11.1082 15.9729 11.5866 16.5953L16.598 11.5839C15.9756 11.1009 15.2139 10.8408 14.4244 10.8408Z" fill="#000"/>
</svg>
