<svg xmlns="http://www.w3.org/2000/svg" width="16" height="10" viewBox="0 0 16 10"><defs><style>.a,.b,.e{fill:none;}.b{stroke:#000000;}.c,.d{stroke:none;}.d{fill:#000000;}</style></defs><g transform="translate(0 -6)"><g transform="translate(0 6)"><g class="a" transform="translate(0 -6)"><path class="c" d="M8,6c-5,0-8,4.969-8,4.969S3,16,8,16s8-5,8-5S13,6,8,6Zm0,9c-4.375,0-6.75-4-6.75-4S3.625,7,8,7s6.75,4,6.75,4S12.375,15,8,15Z"/><path class="d" d="M 8 6.000001907348633 C 13 6.000001907348633 16 11.00000190734863 16 11.00000190734863 C 16 11.00000190734863 13 16.00000190734863 8 16.00000190734863 C 3 16.00000190734863 0 10.96900177001953 0 10.96900177001953 C 0 10.96900177001953 3 6.000001907348633 8 6.000001907348633 Z M 8 15.00000190734863 C 12.375 15.00000190734863 14.75 11.00000190734863 14.75 11.00000190734863 C 14.75 11.00000190734863 12.375 7.000001907348633 8 7.000001907348633 C 3.625 7.000001907348633 1.25 11.00000190734863 1.25 11.00000190734863 C 1.25 11.00000190734863 3.625 15.00000190734863 8 15.00000190734863 Z"/></g><g class="b" transform="translate(5 2)"><circle class="c" cx="3" cy="3" r="3"/><circle class="e" cx="3" cy="3" r="2.5"/></g></g></g></svg>