<svg xmlns="http://www.w3.org/2000/svg" width="8.955" height="12.9" viewBox="0 0 8.955 12.9"><defs><style>.a{fill:none;stroke:#000;stroke-width:0.9px;}</style></defs><g transform="translate(-95.187 -35.067)"><path class="a" d="M178.479,176.777a.5.5,0,0,0-.7.078L176.3,178.7l-2.279-3.191a2.494,2.494,0,0,0-.856-4.839h-2a.5.5,0,0,0-.5.5v7a.5.5,0,1,0,1,0v-2.5h1.243l2.744,3.841-1.877,2.346a.5.5,0,0,0,.781.625l1.7-2.125,1.5,2.1a.5.5,0,0,0,.814-.581l-1.667-2.334,1.651-2.063A.5.5,0,0,0,178.479,176.777Zm-6.812-5.109h1.5a1.5,1.5,0,0,1,0,3h-1.5Z" transform="translate(-75.029 -135.151)"/></g></svg>