<svg width="13" height="19" viewBox="0 0 13 19" fill="none" xmlns="http://www.w3.org/2000/svg">
    <path d="M1.34341 8.1498C1.43985 8.05369 1.54447 7.97259 1.65455 7.90204L9.01831 0.538617C9.7367 -0.179425 10.9022 -0.179766 11.6209 0.538958C12.3396 1.25734 12.3396 2.4225 11.6209 3.14156L5.27918 9.4833L11.6536 15.8581C12.3724 16.5765 12.3724 17.7413 11.6536 18.4607C11.2941 18.8206 10.8228 18.9998 10.3525 18.9998C9.88221 18.9998 9.41056 18.8206 9.05137 18.4607L1.65455 11.0632C1.54447 10.9927 1.43917 10.9115 1.34341 10.8154C0.976039 10.4481 0.798829 9.96416 0.807689 9.48262C0.798829 9.00109 0.976039 8.51751 1.34341 8.1498Z" fill="#000"/>
</svg>
