<svg xmlns="http://www.w3.org/2000/svg" width="12.537" height="12.069" viewBox="0 0 12.537 12.069"><defs><style>.a,.b{fill:#fff;}.b{stroke:#261f62;stroke-width:0.15px;}</style></defs><g transform="translate(-824 -1235)"><path class="a" d="M989.379,519.573h-.665v-1.4a.672.672,0,0,0-.67-.67h-8.525a.671.671,0,0,0-.67.67v1.4h-.666a.671.671,0,0,0-.67.671v6.949a.672.672,0,0,0,.67.671h.666V528.9a.671.671,0,0,0,.67.671h8.525a.672.672,0,0,0,.67-.671v-1.036h.665a.671.671,0,0,0,.671-.671v-6.949A.671.671,0,0,0,989.379,519.573Zm-10.164-1.4a.3.3,0,0,1,.3-.3h8.525a.305.305,0,0,1,.3.3v1.4h-9.133Zm9.133,10.728a.305.305,0,0,1-.3.305h-8.525a.3.3,0,0,1-.3-.305v-3.23h9.133Zm1.336-1.706a.305.305,0,0,1-.305.3h-.665v-1.828h.28a.183.183,0,0,0,0-.366H978.569a.183.183,0,1,0,0,.366h.28V527.5h-.666a.3.3,0,0,1-.3-.3v-6.949a.305.305,0,0,1,.3-.305h11.2a.305.305,0,0,1,.305.305Z" transform="translate(-153.512 717.5)"/><path class="b" d="M981.039,531.491h7.688a.183.183,0,1,0,0-.365h-7.687a.183.183,0,1,0,0,.365Z" transform="translate(-154.614 713.01)"/><path class="b" d="M981.039,532.945h7.688a.183.183,0,1,0,0-.366h-7.687a.183.183,0,1,0,0,.366Z" transform="translate(-154.614 712.532)"/></g></svg>