<svg xmlns="http://www.w3.org/2000/svg" width="12.788" height="15.004" viewBox="0 0 12.788 15.004"><defs><style>.a{fill:#000000;stroke:#000000;stroke-width:0.6px;}</style></defs><g transform="translate(-9.404 -6.503)"><path class="a" d="M13.554,21.4h11.08a.556.556,0,0,0,.554-.554V19.742a6.091,6.091,0,0,0-2.936-5.208,4.432,4.432,0,1,0-6.315,0A6.091,6.091,0,0,0,13,19.742V20.85A.556.556,0,0,0,13.554,21.4Zm2.216-9.972a3.324,3.324,0,1,1,3.324,3.324A3.327,3.327,0,0,1,15.77,11.432Zm-1.662,8.31A4.985,4.985,0,0,1,16.9,15.277a4.391,4.391,0,0,0,4.388,0,4.985,4.985,0,0,1,2.792,4.465V20.3H14.108Z" transform="translate(-3.296 -0.197)"/></g></svg>