<svg width="13" height="13" viewBox="0 0 13 13" fill="none" xmlns="http://www.w3.org/2000/svg">
    <path d="M6.5 13C10.0889 13 13 10.0889 13 6.5C13 2.91106 10.0889 0 6.5 0C2.91106 0 0 2.91106 0 6.5C0 10.0889 2.91106 13 6.5 13ZM6.0357 2.78572C6.0357 2.53035 6.24463 2.32142 6.5 2.32142C6.75537 2.32142 6.9643 2.53035 6.9643 2.78572V6.27715L9.11162 7.99501C9.31127 8.15518 9.34375 8.44767 9.18357 8.64732C9.09302 8.76107 8.9584 8.82142 8.82142 8.82142C8.71927 8.82142 8.61713 8.78891 8.53126 8.71927L6.20984 6.86215C6.10073 6.77392 6.03574 6.64162 6.03574 6.5V2.78572H6.0357Z" fill="#000"/>
</svg>
