<svg xmlns="http://www.w3.org/2000/svg" width="32.115" height="40.75" viewBox="0 0 32.115 40.75"><defs><style>.a,.b{fill:#000000;}.a{stroke:#000000;stroke-width:0.25px;}</style></defs><g transform="translate(-54.202 0.125)"><g transform="translate(54.341)"><g transform="translate(0)"><path class="a" d="M76.733,19.006c.008-.024,3.325-4.393,3.325-9.208a9.8,9.8,0,0,0-19.6,0c0,4.951,3.317,9.192,3.325,9.208A15.912,15.912,0,0,0,54.6,36.4l.741,4.1H85.176l.741-4.1A15.912,15.912,0,0,0,76.733,19.006Zm-6.474-17.7A8.48,8.48,0,0,1,77.984,6.3c-2.894,2.224-6.577-.279-6.577-.279a6.869,6.869,0,0,0-7.4.311L62.032,7.717A8.515,8.515,0,0,1,70.259,1.307ZM61.768,9.8c0-.1.008-.207.016-.311l2.982-2.1a5.559,5.559,0,0,1,5.987-.255s3.867,2.79,7.685.423A8.574,8.574,0,0,1,78.75,9.79c0,4.64-3.8,11.759-8.491,11.759S61.768,14.438,61.768,9.8ZM84.633,36.171l-.55,3.022H56.435l-.55-3.022a14.593,14.593,0,0,1,8.8-16.1,7.773,7.773,0,0,0,5.581,2.8,7.773,7.773,0,0,0,5.581-2.8A14.6,14.6,0,0,1,84.633,36.171Z" transform="translate(-54.341)"/></g></g><g transform="translate(72.212 25.472)"><g transform="translate(0)"><path class="b" d="M285.037,322.115V319.5h-3.922v2.615H278.5v3.922h2.615v2.615h3.922v-2.615h2.615v-3.922Zm1.307,2.615H283.73v2.615h-1.307V324.73h-2.607v-1.307h2.615v-2.615h1.307v2.615h2.607Z" transform="translate(-278.5 -319.5)"/></g></g></g></svg>