<svg width="12" height="16" viewBox="0 0 12 16" fill="none" xmlns="http://www.w3.org/2000/svg">
    <path d="M5.88977 0C4.2784 0 3.04429 1.80484 3.04429 3.95496C3.04429 6.10509 4.27893 7.90993 5.88977 7.90993C7.50115 7.90993 8.73991 6.10509 8.73991 3.95496C8.73991 1.80484 7.50059 0 5.88977 0ZM4.66629 8.25384C2.33188 8.60311 0.444946 9.81553 0.011426 11.5478C-0.00380867 11.6089 -0.00380867 11.6748 0.011426 11.7359C0.268658 12.7616 1.05268 13.6013 2.11152 14.1916C3.17095 14.782 4.52153 15.132 5.9976 15.132C7.47424 15.132 8.82958 14.782 9.88848 14.1916C10.9479 13.6012 11.7313 12.7615 11.9886 11.7359C12.0038 11.6748 12.0038 11.6089 11.9886 11.5478C11.5544 9.81553 9.66812 8.60308 7.33371 8.25384C7.23703 8.23973 7.13566 8.28339 7.0712 8.36668L5.99772 9.77456L4.92892 8.36668C4.86446 8.28339 4.76309 8.23973 4.66641 8.25384H4.66629ZM8.23825 10.5322H8.83828V11.564H9.73832V12.2518H8.83828V13.2835H8.23825V12.2518H7.33821V11.564H8.23825V10.5322Z" fill="#000"/>
</svg>
