<svg xmlns="http://www.w3.org/2000/svg" width="30.659" height="37.1" viewBox="0 0 30.659 37.1"><defs><style>.a{fill:#000000;stroke:#000000;stroke-width:0.6px;}</style></defs><g transform="translate(-8.7 -2.7)"><path class="a" d="M38.154,39.5H14.537A.537.537,0,0,1,14,38.963V35.4c0-5.28,2.808-10.28,7.927-14.148C16.808,17.382,14,12.382,14,7.1V3.537A.537.537,0,0,1,14.537,3H38.154a.537.537,0,0,1,.537.537V7.1c0,5.28-2.808,10.281-7.928,14.149,5.12,3.868,7.928,8.868,7.928,14.149v3.565A.537.537,0,0,1,38.154,39.5ZM15.074,38.426H37.618V35.4c0-5.125-2.867-9.995-8.073-13.712a.537.537,0,0,1,0-.873C34.751,17.1,37.618,12.225,37.618,7.1V4.074H15.074V7.1c0,5.124,2.867,9.994,8.072,13.712a.537.537,0,0,1,0,.873C17.94,25.4,15.074,30.274,15.074,35.4Z" transform="translate(-2.316 0)"/><path class="a" d="M37.481,38.838H23.7a.537.537,0,0,1-.531-.61c.472-3.438,2.687-6.659,6.407-9.315l.7-.5a.537.537,0,0,1,.624,0l.7.5c3.72,2.656,5.936,5.876,6.407,9.315a.537.537,0,0,1-.532.61ZM24.337,37.765H36.843c-.6-2.882-2.663-5.693-5.862-7.977l-.391-.28-.391.28C27,32.071,24.94,34.883,24.337,37.765Z" transform="translate(-6.561 -4.169)"/><path class="a" d="M38.522,4.074H9.537A.537.537,0,0,1,9.537,3H38.522a.537.537,0,1,1,0,1.074Z" transform="translate(0 0)"/><path class="a" d="M38.522,70.074H9.537a.537.537,0,1,1,0-1.074H38.522a.537.537,0,1,1,0,1.074Z" transform="translate(0 -30.574)"/></g></svg>