<svg xmlns="http://www.w3.org/2000/svg" width="35.313" height="34.114" viewBox="0 0 35.313 34.114">
    <defs>
        <style>
            .a,.b{fill:#000000;stroke:#f2f2f400;}.a{stroke-width:0.7px;}.b{stroke-width:0.45px;}
        </style>
    </defs>
    <g transform="translate(0.35 0.35)">
        <path class="a"
              d="M35.279,8.006,28.356,1.323A1.176,1.176,0,0,0,27.537,1H4.461A3.4,3.4,0,0,0,1,4.341V31.072a3.4,3.4,0,0,0,3.461,3.341H32.152a3.4,3.4,0,0,0,3.461-3.341V8.8a1.094,1.094,0,0,0-.335-.791ZM22.922,3.228V9.91h-9.23V3.228ZM6.769,32.186c-.021-.017,23.076-8.412,23.076,0Zm26.537-1.114a1.134,1.134,0,0,1-1.154,1.114H29.844c0-7.829-23.076-1.813-23.076,0H4.461a1.134,1.134,0,0,1-1.154-1.114V4.341A1.134,1.134,0,0,1,4.461,3.228h6.923V9.91a2.269,2.269,0,0,0,2.308,2.228h9.23A2.269,2.269,0,0,0,25.229,9.91V3.228h1.835l6.242,6.026Z"
              transform="translate(-1 -1)"/>
    </g>
</svg>