<svg xmlns="http://www.w3.org/2000/svg" width="24.167" height="24.167" viewBox="0 0 24.167 24.167"><defs><style>.a{fill:#000;}</style></defs><g transform="translate(0 0)"><g transform="translate(0 0)"><g transform="translate(0)"><path class="a" d="M24.164.456a.492.492,0,0,0-.016-.082.545.545,0,0,0-.035-.085c-.007-.015-.01-.032-.019-.046a.324.324,0,0,0-.022-.025.546.546,0,0,0-.059-.067.513.513,0,0,0-.068-.059c-.009-.006-.015-.015-.024-.02S23.89.061,23.875.054a.546.546,0,0,0-.088-.035A.553.553,0,0,0,23.71,0a.539.539,0,0,0-.092,0,.472.472,0,0,0-.085.014.484.484,0,0,0-.054.009L.357,7.906a.525.525,0,0,0-.018.987l10.8,4.151L15.809,23.85a.526.526,0,0,0,.482.317h.026a.526.526,0,0,0,.475-.365L24.149.68a.394.394,0,0,0,.007-.05.5.5,0,0,0,.012-.088A.524.524,0,0,0,24.164.456ZM2.069,8.432,21.678,1.747,11.406,12.019ZM16.216,22.143,12.16,12.752,22.492,2.419Z" transform="translate(-0.002 0)"/><path class="a" d="M8.255,240.072a.525.525,0,0,0-.743,0L.155,247.429a.525.525,0,1,0,.743.743l7.357-7.357A.525.525,0,0,0,8.255,240.072Z" transform="translate(-0.001 -224.159)"/><path class="a" d="M91.833,296.072l-3.678,3.678a.525.525,0,1,0,.743.743l3.678-3.678a.525.525,0,1,0-.743-.743Z" transform="translate(-82.221 -276.481)"/><path class="a" d="M.527,212.647a.524.524,0,0,0,.372-.154l3.678-3.678a.525.525,0,1,0-.743-.743L.155,211.75a.525.525,0,0,0,.372.9Z" transform="translate(-0.001 -194.261)"/></g></g></g></svg>
