<svg xmlns="http://www.w3.org/2000/svg" width="20.8" height="20.8" viewBox="0 0 20.8 20.8"><defs><style>.a{fill:#363584;stroke:#fff;stroke-width:0.8px;}</style></defs><g transform="translate(0.4 0.4)"><g transform="translate(7.083 7.084)"><path class="a" d="M138.917,136.008a2.916,2.916,0,1,0,2.917,2.916A2.92,2.92,0,0,0,138.917,136.008Zm0,4.165a1.249,1.249,0,1,1,1.25-1.249A1.251,1.251,0,0,1,138.917,140.173Z" transform="translate(-136 -136.008)"/></g><g transform="translate(0 0)"><g transform="translate(0 0)"><path class="a" d="M20,10a9.914,9.914,0,0,0-2.023-6.031.833.833,0,0,0-1.329,1.006,8.33,8.33,0,0,1,.127,9.875,2.257,2.257,0,0,0-3.038,2.124,2.286,2.286,0,0,0,.045.45,8.331,8.331,0,1,1-.521-15.095A.833.833,0,0,0,13.914.795a10,10,0,1,0,.789,18.03,2.26,2.26,0,0,0,3.319-2.866A10,10,0,0,0,20,10Zm-4,7.57a.6.6,0,1,1,.6-.6A.6.6,0,0,1,16,17.57Z" transform="translate(0 0)"/></g></g><g transform="translate(2.5 3.75)"><path class="a" d="M55.5,72a6.223,6.223,0,0,0-5.917,4.234,2.075,2.075,0,0,0,0,4.032A6.25,6.25,0,1,0,55.5,72Zm-5.417,6.667a.417.417,0,1,1,.417-.417A.417.417,0,0,1,50.083,78.667ZM55.5,82.833a4.563,4.563,0,0,1-4.248-2.86,2.08,2.08,0,0,0,0-3.446A4.584,4.584,0,1,1,55.5,82.833Z" transform="translate(-48 -72)"/></g></g></svg>