<svg xmlns="http://www.w3.org/2000/svg" width="16.503" height="16.503" viewBox="0 0 16.503 16.503"><defs><style>.a{fill:#000000;}</style></defs><path class="a" d="M15.536,10.72V1.45A1.452,1.452,0,0,0,14.086,0H3.417a1.452,1.452,0,0,0-1.45,1.45v.516H1.45a1.45,1.45,0,0,0,0,2.9h.516V6.8H1.45a1.45,1.45,0,0,0,0,2.9h.516v1.934H1.45a1.45,1.45,0,0,0,0,2.9h.516v.483a1.491,1.491,0,0,0,.417,1.034,1.421,1.421,0,0,0,1.033.449h9.7a3.405,3.405,0,0,0,2.417-5.783ZM1.45,3.9a.483.483,0,0,1,0-.967h1a.483.483,0,1,1,0,.967Zm0,4.835a.483.483,0,1,1,0-.967h1a.483.483,0,0,1,0,.967Zm1,4.835h-1a.483.483,0,1,1,0-.967h1a.483.483,0,1,1,0,.967Zm.967,1.966a.514.514,0,0,1-.483-.516v-.567a1.45,1.45,0,0,0,0-2.735v-2.1a1.45,1.45,0,0,0,0-2.735v-2.1a1.45,1.45,0,0,0,0-2.735v-.6A.484.484,0,0,1,3.417.967H14.086a.484.484,0,0,1,.483.483v8.578a3.384,3.384,0,0,0-4.835,3.057,3.422,3.422,0,0,0,1.028,2.45Zm9.7,0a2.434,2.434,0,1,1,2.417-2.45A2.436,2.436,0,0,1,13.119,15.536Z"/><g transform="translate(9.734 3.9)"><path class="a" d="M305.384,121h-2.9a.483.483,0,1,0,0,.967h2.9a.483.483,0,1,0,0-.967Z" transform="translate(-302 -121)"/></g><g transform="translate(9.734 7.768)"><path class="a" d="M305.384,241h-2.9a.483.483,0,0,0,0,.967h2.9a.483.483,0,1,0,0-.967Z" transform="translate(-302 -241)"/></g><g transform="translate(12.635 11.636)"><path class="a" d="M393.45,361.967h-.483v-.484a.483.483,0,0,0-.967,0v.967a.484.484,0,0,0,.483.484h.967a.483.483,0,0,0,0-.967Z" transform="translate(-392 -361)"/></g><g transform="translate(4.731 2.933)"><path class="a" d="M150.645,91.141a.483.483,0,0,0-.684,0l-1.592,1.592-.761-.761a.483.483,0,0,0-.684.684l1.1,1.1a.483.483,0,0,0,.684,0l1.934-1.934A.483.483,0,0,0,150.645,91.141Z" transform="translate(-146.783 -91)"/></g><g transform="translate(4.731 6.801)"><path class="a" d="M150.645,211.141a.483.483,0,0,0-.684,0l-1.592,1.592-.761-.761a.483.483,0,0,0-.684.684l1.1,1.1a.483.483,0,0,0,.684,0l1.934-1.934A.483.483,0,0,0,150.645,211.141Z" transform="translate(-146.783 -211)"/></g><g transform="translate(4.731 10.669)"><path class="a" d="M150.645,331.141a.483.483,0,0,0-.684,0l-1.592,1.592-.761-.761a.483.483,0,0,0-.684.684l1.1,1.1a.483.483,0,0,0,.684,0l1.934-1.934A.483.483,0,0,0,150.645,331.141Z" transform="translate(-146.783 -331)"/></g></svg>