<svg xmlns="http://www.w3.org/2000/svg" width="14" height="15.805" viewBox="0 0 14 15.805"><defs><style>.a{fill:#000000;}</style></defs><g transform="translate(-22.071 0)"><g transform="translate(22.071 0)"><g transform="translate(0 0)"><path class="a" d="M35.472,3.458,30.52.374a3,3,0,0,0-2.9,0L22.672,3.458a.979.979,0,0,0,0,1.8l4.951,3.084a3,3,0,0,0,2.9,0l4.951-3.084A.979.979,0,0,0,35.472,3.458ZM29.819,6.895a1.5,1.5,0,0,1-1.477,0L24.352,4.364,28.341,1.84a1.509,1.509,0,0,1,1.477,0l3.989,2.524Z" transform="translate(-22.072 0)"/></g></g><g transform="translate(22.071 6.977)"><g transform="translate(0)"><path class="a" d="M35.471,170.743l-.1-.064-5.2,3.283h0l-.345.219a1.5,1.5,0,0,1-1.477,0l-3.989-2.531h0l-1.559-.982-.123.077a.979.979,0,0,0,0,1.8l4.951,3.084a3,3,0,0,0,2.9,0l4.951-3.084A.979.979,0,0,0,35.471,170.743Z" transform="translate(-22.071 -170.666)"/></g></g><g transform="translate(22.071 10.465)"><g transform="translate(0)"><path class="a" d="M35.472,256.077l-.1-.064-5.2,3.283h0l-.345.219a1.505,1.505,0,0,1-1.477,0l-3.989-2.531h0L22.795,256l-.123.077a.979.979,0,0,0,0,1.8l4.951,3.084a3,3,0,0,0,2.9,0l4.951-3.084A.979.979,0,0,0,35.472,256.077Z" transform="translate(-22.072 -256)"/></g></g></g></svg>