<svg width="17" height="17" viewBox="0 0 17 17" fill="none" xmlns="http://www.w3.org/2000/svg">
    <path d="M16.9593 6.42997C16.914 6.29497 16.8324 6.17511 16.7233 6.08361C16.6142 5.99211 16.482 5.93253 16.3412 5.91144L11.4106 5.15798L9.19789 0.44403C9.1355 0.311269 9.03662 0.199014 8.9128 0.120384C8.78899 0.0417549 8.64536 0 8.4987 0C8.35204 0 8.20841 0.0417549 8.08459 0.120384C7.96078 0.199014 7.8619 0.311269 7.79951 0.44403L5.58682 5.15798L0.656167 5.91144C0.515726 5.93285 0.383907 5.99258 0.275201 6.08406C0.166495 6.17554 0.0851106 6.29523 0.0399948 6.42998C-0.00512087 6.56472 -0.012221 6.70929 0.019475 6.84781C0.0511709 6.98632 0.120436 7.11342 0.219655 7.21512L3.81296 10.8951L2.96311 16.1021C2.93992 16.245 2.95733 16.3915 3.01334 16.525C3.06936 16.6585 3.16174 16.7735 3.27996 16.8571C3.39817 16.9406 3.53747 16.9892 3.68197 16.9974C3.82647 17.0056 3.97037 16.9731 4.09727 16.9034L8.50102 14.4707L12.9048 16.9034C13.0317 16.9736 13.1757 17.0067 13.3206 16.9989C13.4654 16.991 13.605 16.9426 13.7236 16.859C13.8422 16.7755 13.9348 16.6603 13.991 16.5266C14.0472 16.3928 14.0646 16.246 14.0412 16.1028L13.1914 10.8959L16.7824 7.21512C16.8811 7.11313 16.9499 6.9859 16.9811 6.8474C17.0123 6.7089 17.0048 6.56447 16.9593 6.42997Z" fill="#000000"/>
</svg>
