<svg xmlns="http://www.w3.org/2000/svg" width="10.871" height="14.664" viewBox="0 0 10.871 14.664"><defs><style>.a,.b{fill:#000;stroke:#000;}.a{stroke-width:0.7px;}.c{stroke:none;}.d{fill:none;}</style></defs><g transform="translate(0.35 0.35)"><g transform="translate(0 0)"><g transform="translate(2.859 0)"><path class="a" d="M172.937,1.927H169.4a.61.61,0,0,1-.61-.61V.61A.61.61,0,0,1,169.4,0h3.537a.61.61,0,0,1,.61.61v.707a.61.61,0,0,1-.61.61ZM169.4.409a.2.2,0,0,0-.2.2v.707a.2.2,0,0,0,.2.2h3.537a.2.2,0,0,0,.2-.2V.61a.2.2,0,0,0-.2-.2Z" transform="translate(-168.79 0)"/></g><g transform="translate(0 1.142)"><path class="a" d="M73.269,40.648H64.818a.861.861,0,0,1-.86-.86v-11.1a.861.861,0,0,1,.86-.86h1.19a.2.2,0,0,1,0,.4h-1.19a.464.464,0,0,0-.463.463v11.1a.464.464,0,0,0,.463.463h8.451a.464.464,0,0,0,.463-.463v-11.1a.464.464,0,0,0-.463-.463h-1.19a.2.2,0,1,1,0-.4h1.19a.861.861,0,0,1,.86.86v11.1A.861.861,0,0,1,73.269,40.648Z" transform="translate(-63.958 -27.826)"/></g></g><g class="b" transform="translate(2.706 4)"><rect class="c" width="5" height="1"/><rect class="d" x="0.5" y="0.5" width="4"/></g><g class="b" transform="translate(2.706 7)"><rect class="c" width="5" height="1"/><rect class="d" x="0.5" y="0.5" width="4"/></g><g class="b" transform="translate(2.706 10)"><rect class="c" width="5" height="1"/><rect class="d" x="0.5" y="0.5" width="4"/></g></g></svg>