<svg xmlns="http://www.w3.org/2000/svg" width="12.748" height="20.209" viewBox="0 0 12.748 20.209"><defs><style>.a{fill:#363584;stroke:#363584;stroke-width:0.2px;}</style></defs><g transform="translate(-95.42 0.109)"><g transform="translate(99.597 2.818)"><g transform="translate(0)"><path class="a" d="M208.153,75.3a.293.293,0,0,0-.283-.127l-4.972.676.64-3.358a.293.293,0,0,0-.576-.11l-.716,3.758a.293.293,0,0,0,.327.345l4.782-.65-6.709,11.552,1.186-6.127a.293.293,0,1,0-.575-.111l-1.515,7.828a.293.293,0,0,0,.541.2l7.88-13.569A.293.293,0,0,0,208.153,75.3Z" transform="translate(-199.736 -72.145)"/></g></g><g transform="translate(95.527 0)"><g transform="translate(0 0)"><path class="a" d="M103.767.025a.293.293,0,0,0-.353.091L95.586,10.449a.293.293,0,0,0,.264.468l5.556-.585-.046.238a.293.293,0,1,0,.575.111l.121-.626a.293.293,0,0,0-.318-.347l-5.277.555,6.664-8.8-.064.337a.293.293,0,1,0,.576.11l.3-1.566A.293.293,0,0,0,103.767.025Z" transform="translate(-95.527 0)"/></g></g></g></svg>