<svg width="22" height="22" viewBox="0 0 22 22" fill="none" xmlns="http://www.w3.org/2000/svg">
        <path d="M18.0898 12.8149C17.8399 12.9508 17.6338 13.2 18.7 13.2C19.7662 13.2 19.5657 13.8033 19.5657 12.7371C20.3143 13.0041 19.5657 11.8979 19.5657 12.7371C20.3143 12.4701 20.668 11.8392 20.668 11C20.668 10.1608 20.1275 9.45209 19.3789 9.18513V5.0805C20.1275 4.81353 20.668 4.1048 20.668 3.26562C20.668 2.1994 19.8006 1.33203 18.7344 1.33203C17.6681 1.33203 16.8008 2.1994 16.8008 3.26562C16.8008 4.1048 17.3412 4.81353 18.0898 5.0805V9.18513C17.3412 9.45209 16.8008 10.1608 16.8008 11C16.8008 11.8392 17.3412 12.5479 18.0898 12.8149L18.7 13.2C17.9514 13.467 18.0898 11.9757 18.0898 12.8149Z" fill="#000"/>
        <path d="M1.33203 8.42188V13.5781C1.33203 13.9344 1.62031 14.2227 1.97656 14.2227H14.8672C15.2234 14.2227 15.5117 13.9344 15.5117 13.5781V8.42188C15.5117 8.06562 15.2234 7.77734 14.8672 7.77734H1.97656C1.62031 7.77734 1.33203 8.06562 1.33203 8.42188ZM7.13281 10.3555H12.2891C12.6453 10.3555 12.9336 10.6437 12.9336 11C12.9336 11.3563 12.6453 11.6445 12.2891 11.6445H7.13281C6.77656 11.6445 6.48828 11.3563 6.48828 11C6.48828 10.6437 6.77656 10.3555 7.13281 10.3555ZM4.55469 10.3555C4.91064 10.3555 5.19922 10.644 5.19922 11C5.19922 11.356 4.91064 11.6445 4.55469 11.6445C4.19873 11.6445 3.91016 11.356 3.91016 11C3.91016 10.644 4.19873 10.3555 4.55469 10.3555Z" fill="#000"/>
        <path d="M14.8672 6.48828C15.2234 6.48828 15.5117 6.2 15.5117 5.84375V0.644531C15.5117 0.288277 15.2234 0 14.8672 0H4.55469C4.19843 0 3.91016 0.288277 3.91016 0.644531V5.84375C3.91016 6.2 4.19843 6.48828 4.55469 6.48828H14.8672ZM9.71094 2.62109H12.2891C12.6453 2.62109 12.9336 2.90937 12.9336 3.26562C12.9336 3.62188 12.6453 3.91016 12.2891 3.91016H9.71094C9.35468 3.91016 9.06641 3.62188 9.06641 3.26562C9.06641 2.90937 9.35468 2.62109 9.71094 2.62109ZM7.13281 2.62109C7.48877 2.62109 7.77734 2.90959 7.77734 3.26562C7.77734 3.62158 7.48877 3.91016 7.13281 3.91016C6.77686 3.91016 6.48828 3.62158 6.48828 3.26562C6.48828 2.90959 6.77686 2.62109 7.13281 2.62109Z" fill="#000"/>
</svg>
