<svg xmlns="http://www.w3.org/2000/svg" width="13.876" height="13.876" viewBox="0 0 13.876 13.876"><defs><style>.a{stroke:#000000;stroke-width:0.2px;}</style></defs><path class="a" d="M13.448.228H8.89a.228.228,0,0,0-.228.228V1.14H7.48A.683.683,0,0,0,7.066.726v-.5a.228.228,0,0,0-.456,0v.5a.68.68,0,0,0,0,1.284V4.373a.683.683,0,0,0-.414.414H5.015v-1.6a.228.228,0,0,0-.228-.228H.228A.228.228,0,0,0,0,3.191V6.838a.228.228,0,0,0,.228.228H4.787a.228.228,0,0,0,.228-.228v-1.6H6.2a.683.683,0,0,0,.414.414V8.02a.68.68,0,0,0,0,1.284v2.363a.683.683,0,0,0-.414.414H5.015V9.573a.228.228,0,0,0-.228-.228H.228A.228.228,0,0,0,0,9.573V13.22a.228.228,0,0,0,.228.228H4.787a.228.228,0,0,0,.228-.228v-.684H6.2a.683.683,0,0,0,.414.414v.5a.228.228,0,0,0,.456,0v-.5a.68.68,0,0,0,0-1.284V9.3A.683.683,0,0,0,7.48,8.89H8.662v1.6a.228.228,0,0,0,.228.228h4.559a.228.228,0,0,0,.228-.228V6.838a.228.228,0,0,0-.228-.228H8.89a.228.228,0,0,0-.228.228v1.6H7.48a.683.683,0,0,0-.414-.414V5.656a.68.68,0,0,0,0-1.284V2.009A.683.683,0,0,0,7.48,1.6H8.662V4.1a.228.228,0,0,0,.228.228h4.559a.228.228,0,0,0,.228-.228V.456A.228.228,0,0,0,13.448.228ZM4.559,6.61H.456V3.419h4.1Zm0,6.382H.456V9.8h4.1ZM9.118,7.066h4.1v3.191h-4.1ZM6.838,12.537a.228.228,0,1,1,.228-.228A.228.228,0,0,1,6.838,12.537Zm0-3.647a.228.228,0,1,1,.228-.228A.228.228,0,0,1,6.838,8.89Zm0-3.647a.228.228,0,1,1,.228-.228A.228.228,0,0,1,6.838,5.243Zm0-3.647a.228.228,0,1,1,.228-.228A.228.228,0,0,1,6.838,1.6ZM13.22,3.875h-4.1V.684h4.1Zm0,0" transform="translate(0.1 0.1)"/></svg>