<svg xmlns="http://www.w3.org/2000/svg" width="18.856" height="18.856" viewBox="0 0 18.856 18.856">
  <g id="yes" transform="translate(-3 -3)">
    <path id="Path_1997" data-name="Path 1997" d="M26,22.528,21.471,27.05l-2.237-2.224a.651.651,0,0,0-.92.92l2.7,2.7a.65.65,0,0,0,.92,0l4.984-5a.651.651,0,0,0-.92-.92Z" transform="translate(-10.207 -13.048)" fill="#000000"/>
    <path id="Path_1998" data-name="Path 1998" d="M12.428,3a9.428,9.428,0,1,0,9.428,9.428A9.428,9.428,0,0,0,12.428,3Zm0,17.556a8.128,8.128,0,1,1,8.128-8.128,8.128,8.128,0,0,1-8.128,8.128Z" fill="#000000"/>
  </g>
</svg>
