<svg width="15" height="13" viewBox="0 0 15 13" fill="none" xmlns="http://www.w3.org/2000/svg">
    <path d="M12.7181 6.15349C11.1958 4.57553 9.02043 3.74687 6.24884 3.69001V0.874686C6.24884 0.74846 6.17259 0.634097 6.05573 0.585968C5.93888 0.538483 5.80513 0.564086 5.71578 0.653461L0.0913962 6.27784C-0.0304654 6.39971 -0.0304654 6.59782 0.0913962 6.71968L5.71578 12.3441C5.80516 12.4341 5.94014 12.4609 6.05638 12.4116C6.17323 12.3634 6.24948 12.2491 6.24948 12.1228V9.31314C12.5282 9.40439 14.4023 12.2591 14.4205 12.2872C14.4786 12.3809 14.5798 12.4353 14.6861 12.4353C14.7123 12.4353 14.7392 12.4315 14.7661 12.4247C14.8992 12.389 14.9935 12.2715 14.9985 12.1334C15.0029 11.9922 15.096 8.61885 12.7181 6.15349Z" fill="black"/>
</svg>
