<svg xmlns="http://www.w3.org/2000/svg" width="34.743" height="30.503" viewBox="0 0 34.743 30.503"><defs><style>.a{fill:#FE6C19;}</style></defs><g transform="translate(0.299 -31.788)"><g transform="translate(0 32.109)"><path class="a" d="M33.728,45.325l-12.8-12.8A1.422,1.422,0,0,0,18.5,33.534v5.694A19.207,19.207,0,0,0,.9,53a22.3,22.3,0,0,0-.89,7.135c.008.274.009.353.009.41a1.422,1.422,0,0,0,2.644.727,21.853,21.853,0,0,1,5.354-6.238A14.606,14.606,0,0,1,18.5,51.815v7.312a1.422,1.422,0,0,0,2.427,1.005l12.8-12.8A1.422,1.422,0,0,0,33.728,45.325ZM21.347,55.694V50.6a1.422,1.422,0,0,0-1.074-1.379,8.5,8.5,0,0,0-.85-.155A17.305,17.305,0,0,0,6.281,52.786a22.034,22.034,0,0,0-3.112,2.94l.022-.114c.113-.584.259-1.187.441-1.821A16.363,16.363,0,0,1,19.649,42.059l.228.005a1.422,1.422,0,0,0,1.471-1.421V36.966l9.364,9.364Z" transform="translate(0 -32.109)"/></g></g></svg>
