<svg xmlns="http://www.w3.org/2000/svg" width="27.707" height="27.707" viewBox="0 0 27.707 27.707"><defs><style>.a{stroke:#000;stroke-width:1.4px;}</style></defs><g transform="translate(0.7 0.7)"><path class="a" d="M22.916,2.055H20.552V.822a.822.822,0,0,0-1.644,0V2.055H7.4V.822a.822.822,0,0,0-1.644,0V2.055H3.391A3.4,3.4,0,0,0,0,5.446V22.916a3.4,3.4,0,0,0,3.391,3.391H22.916a3.4,3.4,0,0,0,3.391-3.391V5.446A3.4,3.4,0,0,0,22.916,2.055Zm1.747,20.861a1.747,1.747,0,0,1-1.747,1.747H3.391a1.747,1.747,0,0,1-1.747-1.747V9.3A.257.257,0,0,1,1.9,9.043h22.5a.257.257,0,0,1,.257.257Z"/></g></svg>