<svg xmlns="http://www.w3.org/2000/svg" width="26.184" height="28.744" viewBox="0 0 26.184 28.744"><defs><style>.a{stroke:#000;stroke-width:0.7px;}</style></defs><path class="a" d="M19.456,14.658a7.645,7.645,0,1,0-9.419,0A12.752,12.752,0,0,0,2,26.487v1.274a1.274,1.274,0,0,0,1.274,1.274H26.21a1.274,1.274,0,0,0,1.274-1.274V26.487a12.752,12.752,0,0,0-8.027-11.828ZM9.645,8.648a5.1,5.1,0,1,1,5.1,5.1,5.1,5.1,0,0,1-5.1-5.1Zm-5.1,17.839a10.194,10.194,0,1,1,20.387,0Z" transform="translate(-1.65 -0.641)"/></svg>