<svg xmlns="http://www.w3.org/2000/svg" width="17.29" height="17.822" viewBox="0 0 17.29 17.822"><g transform="translate(-1.035)"><path d="M9.23,8.784H1.756A.719.719,0,0,1,1.25,7.553L7.471,1.439H1.756A.719.719,0,1,1,1.756,0H9.23a.719.719,0,0,1,.5,1.231L3.514,7.346H9.23a.719.719,0,1,1,0,1.438ZM17.6,10.262H14.083L18.111,6.3A.72.72,0,0,0,17.6,5.07H12.323a.719.719,0,1,0,0,1.439h3.523l-4.028,3.958a.721.721,0,0,0,.505,1.234H17.6a.719.719,0,0,0,0-1.439ZM9.483,16.383H7.027l2.961-2.908a.72.72,0,0,0-.5-1.234H5.269a.719.719,0,1,0,0,1.439H7.725L4.764,16.588a.721.721,0,0,0,.505,1.234H9.483a.719.719,0,1,0,0-1.439Z"/></g></svg>