<?xml version="1.0" encoding="utf-8"?>
<!-- Generator: Adobe Illustrator 22.1.0, SVG Export Plug-In . SVG Version: 6.00 Build 0)  -->
<svg version="1.1" id="Layer_1" xmlns="http://www.w3.org/2000/svg" xmlns:xlink="http://www.w3.org/1999/xlink" x="0px" y="0px"
	 viewBox="0 0 78.5 75" style="enable-background:new 0 0 78.5 75;" xml:space="preserve">
<style type="text/css">
	.st0{fill:#252931;}
</style>
<title>Touch-Logo-All</title>
<path class="st0" d="M77.9,31.2L68.3,27l-3.9-7c-0.2-0.4-0.7-0.6-1.2-0.6l-8.8,1.5c-0.2,0-0.3,0.1-0.5,0.2l-6.1,4.5l-4.1-5.3
	c-0.1-0.1-0.2-0.2-0.3-0.3l-18-10.3C25,9.4,24.3,9.6,24,10.1c-0.2,0.3-0.2,0.6-0.1,0.9l1.2,3.7L1.7,1.2C1.3,0.9,0.7,1,0.4,1.3
	C0,1.7-0.1,2.2,0.1,2.6l15,31.6c0.1,0.2,0.3,0.4,0.4,0.5l13.8,8.1l-7.2,9.7l-0.1,0.2l0,0C22,52.8,21.9,53,22,53.3l2.6,19.8
	c0,0.5,0.4,0.9,0.9,1h0.2c0.4,0,0.8-0.2,1-0.6l9.5-18.3l8.1,0.6c0.2,0,0.4,0,0.6-0.1l12.8-6.2h0.1c0.1-0.1,0.2-0.1,0.3-0.2h0.1V49
	c0-0.1,0.1-0.2,0.1-0.2l3.5-14l5.8-1l9.8-0.4c0.6,0,1.1-0.5,1.1-1.2C78.5,31.8,78.2,31.4,77.9,31.2L77.9,31.2z M42.2,21.7l3.9,5.1
	L44,28.4l-5-5.7c-0.1-0.1-0.2-0.2-0.3-0.2L28,16.3L27,13L42.2,21.7z M26.3,69.3l-1.9-14.9l9.3,0.7L26.3,69.3z M25.2,52.2l6.1-8.3
	l9.6,5.6l1.7,3.8L25.2,52.2z M45,53.1l-1.4-3.3l8.6-0.2L45,53.1z M42.1,47.6L17,32.9L3.7,4.9l33.8,19.4l17.3,19.9l1,3.1L42.1,47.6z
	 M57.1,44.2l-0.3-0.9c0-0.1-0.1-0.3-0.2-0.4L45.5,30.1l8.8-6.5l5.4,10.2L57.1,44.2z M66.4,31.6l-4.9,0.8l-5.1-9.7l6.5-1.1l3.5,6.4
	V31.6z M68.6,31.4v-1.9l3.9,1.7L68.6,31.4z"/>
</svg>
