<svg id="Layer_1" data-name="Layer 1" xmlns="http://www.w3.org/2000/svg" viewBox="0 0 211.91 75"><defs><style>.cls-1{fill:#fff;}</style></defs><title>Touch-Logo-All</title><path class="cls-1" d="M23.17,30.74a1.43,1.43,0,0,0-1-.37H3.08a1.41,1.41,0,0,0-1,.37,1.26,1.26,0,0,0-.41,1,1.28,1.28,0,0,0,.41,1,1.37,1.37,0,0,0,1,.38h8.11V57.44a1.33,1.33,0,0,0,.4,1,1.53,1.53,0,0,0,2.06,0,1.31,1.31,0,0,0,.42-1V33.05h8.11a1.48,1.48,0,0,0,1-.35,1.24,1.24,0,0,0,.4-1,1.31,1.31,0,0,0-.4-1Z"/><path class="cls-1" d="M46.34,31.84a13.4,13.4,0,0,0-7-1.87,13.45,13.45,0,0,0-7,1.87,13.09,13.09,0,0,0-4.84,5.21,16.07,16.07,0,0,0-1.75,7.55,16,16,0,0,0,1.75,7.52,13.38,13.38,0,0,0,23.77,0,16,16,0,0,0,1.75-7.52,16.07,16.07,0,0,0-1.75-7.55A13,13,0,0,0,46.34,31.84ZM50,44.6a13.57,13.57,0,0,1-1.36,6.15A10.64,10.64,0,0,1,33.77,55,10.22,10.22,0,0,1,30,50.75a14.59,14.59,0,0,1,0-12.3,10.25,10.25,0,0,1,3.78-4.19,10.39,10.39,0,0,1,14.85,4.19A13.63,13.63,0,0,1,50,44.6Z"/><path class="cls-1" d="M78.29,30.37a1.31,1.31,0,0,0-1,.4,1.4,1.4,0,0,0-.38,1v16.6a7.93,7.93,0,0,1-1.07,4A8.28,8.28,0,0,1,73,55.33a7.84,7.84,0,0,1-7.91,0,8,8,0,0,1-2.87-2.92,7.92,7.92,0,0,1-1.06-4V31.77a1.31,1.31,0,0,0-.42-1,1.37,1.37,0,0,0-1-.4,1.44,1.44,0,0,0-1.08.4,1.37,1.37,0,0,0-.4,1v16.6a10.88,10.88,0,0,0,1.43,5.48,10.71,10.71,0,0,0,18.59,0,10.88,10.88,0,0,0,1.43-5.48V31.77a1.37,1.37,0,0,0-1.4-1.4Z"/><path class="cls-1" d="M93.49,34.26a11.39,11.39,0,0,1,5.78-1.49,12.31,12.31,0,0,1,6.91,2.09,1.45,1.45,0,0,0,.75.23,1.33,1.33,0,0,0,1.09-.53,1.77,1.77,0,0,0,.31-.91,1.3,1.3,0,0,0-.69-1.16,14.4,14.4,0,0,0-3.92-1.83A15.61,15.61,0,0,0,99.27,30a14.18,14.18,0,0,0-7.2,1.89,13.91,13.91,0,0,0-5.16,5.25,15.63,15.63,0,0,0,0,15.05,13.78,13.78,0,0,0,5.2,5.19,14.29,14.29,0,0,0,7.14,1.85,15.45,15.45,0,0,0,4.51-.71,15,15,0,0,0,3.89-1.76,1.22,1.22,0,0,0,.66-1.13,1.48,1.48,0,0,0-1.4-1.44,1.42,1.42,0,0,0-.79.23,12.3,12.3,0,0,1-6.87,2A11.39,11.39,0,0,1,93.53,55a10.7,10.7,0,0,1-4.08-4.17,13.58,13.58,0,0,1,0-12.37A10.79,10.79,0,0,1,93.49,34.26Z"/><path class="cls-1" d="M134.36,30.77a1.38,1.38,0,0,0-1-.4,1.48,1.48,0,0,0-1,.41,1.36,1.36,0,0,0-.44,1V42.92H116V31.81a1.39,1.39,0,0,0-.42-1,1.37,1.37,0,0,0-1-.42,1.51,1.51,0,0,0-1.06.39,1.39,1.39,0,0,0-.42,1V57.4a1.37,1.37,0,0,0,1.44,1.44,1.39,1.39,0,0,0,1-.42,1.56,1.56,0,0,0,.46-1V45.64h15.9V57.4a1.42,1.42,0,0,0,.41,1,1.39,1.39,0,0,0,1,.42,1.41,1.41,0,0,0,1-.4,1.53,1.53,0,0,0,.46-1V31.81A1.38,1.38,0,0,0,134.36,30.77Z"/><path class="cls-1" d="M209.84,31.21,200.27,27l-3.85-7a1.14,1.14,0,0,0-1.17-.57l-8.8,1.47a1.2,1.2,0,0,0-.48.2l-6.1,4.47-4.09-5.34a1.18,1.18,0,0,0-.33-.3l-18-10.27a1.12,1.12,0,0,0-1.61,1.33l1.23,3.71L133.63,1.18a1.11,1.11,0,0,0-1.32.14,1.13,1.13,0,0,0-.25,1.31l15,31.55a1.1,1.1,0,0,0,.45.48l13.81,8.09-7.18,9.72-.1.16h0a1.18,1.18,0,0,0-.12.64l2.57,19.81a1.11,1.11,0,0,0,.92,1l.19,0a1.13,1.13,0,0,0,1-.6l9.5-18.31,8.13.56a1,1,0,0,0,.57-.11l12.83-6.23.09,0a1.68,1.68,0,0,0,.29-.24h.09V49a1.15,1.15,0,0,0,.12-.25l3.51-14,5.8-1,9.84-.36a1.12,1.12,0,0,0,.42-2.14Zm-35.7-9.49,3.93,5.13L176,28.4l-5-5.71a1,1,0,0,0-.29-.24L160,16.33,158.91,13ZM158.3,69.27l-1.93-14.92,9.34.65Zm-1.1-17.11,6.1-8.27,9.61,5.63,1.69,3.84Zm19.72.93-1.43-3.27,8.59-.21Zm-2.83-5.48L149,32.9l-13.35-28,33.78,19.4,17.33,19.86,1,3.13Zm15-3.41-.28-.93a1.13,1.13,0,0,0-.23-.4L177.43,30.09l8.82-6.47,5.43,10.22Zm9.27-12.55-4.88.81-5.13-9.66,6.49-1.08,3.52,6.39Zm2.23-.22V29.55l3.92,1.74Z"/></svg>