<svg id="Layer_1" data-name="Layer 1" xmlns="http://www.w3.org/2000/svg" viewBox="0 0 42 42"><defs><style>.cls-1{fill:#183284;}.cls-2{fill:#fff;}</style></defs><title>Touch-Icons</title><circle class="cls-1" cx="20.86" cy="21" r="20"/><path class="cls-1" d="M20.86,41a20,20,0,1,1,20-20A20,20,0,0,1,20.86,41Zm0-39a19,19,0,1,0,19,19A19,19,0,0,0,20.86,2Z"/><path class="cls-2" d="M20.86,36a14,14,0,0,1-14-14v-.5h28V22A14,14,0,0,1,20.86,36Z"/><circle class="cls-2" cx="13.36" cy="13.5" r="2.5"/><circle class="cls-2" cx="28.36" cy="13.5" r="2.5"/></svg>