<svg id="Layer_1" data-name="Layer 1" xmlns="http://www.w3.org/2000/svg" viewBox="0 0 42 42"><defs><style>.cls-1{fill:#183284;}</style></defs><title>Touch-Icons</title><path class="cls-1" d="M20.68,41a20,20,0,1,1,20-19.95A20,20,0,0,1,20.68,41Zm.09-39a19,19,0,1,0,19,19.05A19,19,0,0,0,20.77,2Z"/><circle class="cls-1" cx="13.52" cy="13.48" r="2.5"/><circle class="cls-1" cx="28.52" cy="13.52" r="2.5"/><path class="cls-1" d="M21,35A14,14,0,0,1,9.7,29.27a.5.5,0,0,1,.81-.59,13,13,0,0,0,20.94.05.5.5,0,0,1,.7-.1.51.51,0,0,1,.11.7A14.09,14.09,0,0,1,21,35Z"/></svg>