<svg id="Layer_1" data-name="Layer 1" xmlns="http://www.w3.org/2000/svg" viewBox="0 0 42 42"><defs><style>.cls-1{fill:#183284;}.cls-2{fill:#fff;}</style></defs><title>Touch-Icons</title><circle class="cls-1" cx="21" cy="21" r="20"/><path class="cls-1" d="M21,41A20,20,0,1,1,41,21,20,20,0,0,1,21,41ZM21,2A19,19,0,1,0,40,21,19,19,0,0,0,21,2Z"/><path class="cls-2" d="M31.88,32a.51.51,0,0,1-.41-.2,13,13,0,0,0-20.94,0,.5.5,0,0,1-.7.1.51.51,0,0,1-.11-.7,14,14,0,0,1,22.56,0,.51.51,0,0,1-.11.7A.46.46,0,0,1,31.88,32Z"/><path class="cls-2" d="M9.46,16a.5.5,0,0,1-.25-.93l6.08-3.5a.5.5,0,1,1,.5.86l-6.08,3.5A.45.45,0,0,1,9.46,16Z"/><path class="cls-2" d="M32.54,16a.45.45,0,0,1-.25-.07l-6.08-3.5a.5.5,0,1,1,.5-.86l6.08,3.5a.5.5,0,0,1-.25.93Z"/></svg>