<svg id="Layer_1" data-name="Layer 1" xmlns="http://www.w3.org/2000/svg" viewBox="0 0 42 42"><defs><style>.cls-1{fill:#183284;}</style></defs><title>Touch-Icons</title><path class="cls-1" d="M20.73,41a20,20,0,1,1,20-20A20,20,0,0,1,20.73,41Zm0-39a19,19,0,1,0,19,19A19,19,0,0,0,20.73,2Z"/><path class="cls-1" d="M20.73,36a14,14,0,0,1-14-14v-.5h28V22A14,14,0,0,1,20.73,36Zm-13-13.5a13,13,0,0,0,26,0Z"/><circle class="cls-1" cx="13.5" cy="13.5" r="2.5"/><circle class="cls-1" cx="28.5" cy="13.5" r="2.5"/></svg>