<svg id="Layer_1" data-name="Layer 1" xmlns="http://www.w3.org/2000/svg" viewBox="0 0 42 42"><defs><style>.cls-1{fill:#183284;}.cls-2{fill:#fff;}</style></defs><title>Touch-Icons</title><circle class="cls-1" cx="20.93" cy="21" r="20"/><path class="cls-1" d="M20.93,41a20,20,0,1,1,20-20A20,20,0,0,1,20.93,41Zm0-39a19,19,0,1,0,19,19A19,19,0,0,0,20.93,2Z"/><circle class="cls-2" cx="13.43" cy="13.5" r="2.5"/><circle class="cls-2" cx="28.43" cy="13.5" r="2.5"/><path class="cls-2" d="M31.81,32a.51.51,0,0,1-.41-.2,13,13,0,0,0-20.94,0,.5.5,0,0,1-.7.1.51.51,0,0,1-.11-.7,14,14,0,0,1,22.56,0,.5.5,0,0,1-.11.7A.46.46,0,0,1,31.81,32Z"/></svg>