<svg id="Layer_1" data-name="Layer 1" xmlns="http://www.w3.org/2000/svg" viewBox="0 0 42 42"><defs><style>.cls-1{fill:#183284;}.cls-2{fill:#fff;}</style></defs><title>Touch-Icons</title><circle class="cls-1" cx="20.81" cy="21" r="20"/><path class="cls-1" d="M20.76,41A20,20,0,1,1,40.81,21.05,20,20,0,0,1,20.76,41Zm.09-39a19,19,0,1,0,19,19.05A19,19,0,0,0,20.85,2Z"/><circle class="cls-2" cx="13.31" cy="13.48" r="2.5"/><circle class="cls-2" cx="28.31" cy="13.52" r="2.5"/><path class="cls-2" d="M20.79,35A14,14,0,0,1,9.53,29.27a.5.5,0,1,1,.8-.59,13,13,0,0,0,21,.05.5.5,0,0,1,.8.6A14.07,14.07,0,0,1,20.79,35Z"/></svg>