<svg id="Layer_1" data-name="Layer 1" xmlns="http://www.w3.org/2000/svg" viewBox="0 0 42 42"><defs><style>.cls-1{fill:#183284;}</style></defs><title>Touch-Icons</title><path class="cls-1" d="M21.06,41a20,20,0,1,1,20-20A20,20,0,0,1,21.06,41Zm0-39a19,19,0,1,0,19,19A19,19,0,0,0,21.06,2Z"/><path class="cls-1" d="M21.06,36a14,14,0,0,1-14-14v-.5h28V22A14,14,0,0,1,21.06,36Zm-13-13.5a13,13,0,0,0,26,0Z"/><path class="cls-1" d="M13.76,16.62a10.64,10.64,0,0,0,3.57-3.87,2.37,2.37,0,0,0-1.16-3.2,2.09,2.09,0,0,0-2.41.77,2.09,2.09,0,0,0-2.41-.77,2.37,2.37,0,0,0-1.16,3.2,10.63,10.63,0,0,0,3.57,3.87Zm0,0"/><path class="cls-1" d="M28.36,16.62a10.64,10.64,0,0,0,3.57-3.87,2.37,2.37,0,0,0-1.16-3.2,2.09,2.09,0,0,0-2.41.77A2.09,2.09,0,0,0,26,9.55a2.37,2.37,0,0,0-1.16,3.2,10.63,10.63,0,0,0,3.57,3.87Zm0,0"/></svg>