<svg id="Layer_1" data-name="Layer 1" xmlns="http://www.w3.org/2000/svg" viewBox="0 0 42 42"><defs><style>.cls-1{fill:#183284;}</style></defs><title>Touch-Icons</title><path class="cls-1" d="M20.73,41a20,20,0,1,1,20-20A20,20,0,0,1,20.73,41Zm0-39a19,19,0,1,0,19,19A19,19,0,0,0,20.73,2Z"/><path class="cls-1" d="M31.6,32a.51.51,0,0,1-.4-.2,13,13,0,0,0-20.94,0,.5.5,0,0,1-.7.1.51.51,0,0,1-.11-.7A14,14,0,0,1,32,31.2a.51.51,0,0,1-.11.7A.47.47,0,0,1,31.6,32Z"/><path class="cls-1" d="M9.19,16a.5.5,0,0,1-.25-.93L15,11.57a.5.5,0,0,1,.5.86l-6.08,3.5A.45.45,0,0,1,9.19,16Z"/><path class="cls-1" d="M32.27,16a.45.45,0,0,1-.25-.07l-6.08-3.5a.5.5,0,1,1,.5-.86l6.08,3.5a.5.5,0,0,1-.25.93Z"/></svg>