<svg id="Layer_1" data-name="Layer 1" xmlns="http://www.w3.org/2000/svg" viewBox="0 0 42 42"><defs><style>.cls-1{fill:#fff;}</style></defs><title>Touch-Icons</title><path class="cls-1" d="M30.6,5.78H28.29a3,3,0,0,0-3-2.66H15.44a3,3,0,0,0-3,2.66H10.9A2.28,2.28,0,0,0,8.62,8.05v28.8a2.27,2.27,0,0,0,2.28,2.27H30.6a2.27,2.27,0,0,0,2.28-2.27V8.05A2.28,2.28,0,0,0,30.6,5.78Zm-16.67.38a1.52,1.52,0,0,1,1.51-1.52H25.3a1.52,1.52,0,0,1,1.51,1.52v.38A1.52,1.52,0,0,1,25.3,8.05H15.44a1.52,1.52,0,0,1-1.51-1.51ZM31.36,36.85a.76.76,0,0,1-.76.76H10.9a.76.76,0,0,1-.76-.76V8.05a.76.76,0,0,1,.76-.76h1.62a3,3,0,0,0,2.92,2.28H25.3a3,3,0,0,0,2.92-2.28H30.6a.76.76,0,0,1,.76.76Z"/><path class="cls-1" d="M27.57,15.63H13.93a.76.76,0,1,0,0,1.52H27.57a.76.76,0,0,0,0-1.52Z"/><path class="cls-1" d="M27.57,21.31H13.93a.76.76,0,0,0,0,1.52H27.57a.76.76,0,1,0,0-1.52Z"/><path class="cls-1" d="M27.57,27H13.93a.76.76,0,0,0-.76.76.75.75,0,0,0,.76.75H27.57a.75.75,0,0,0,.76-.75A.76.76,0,0,0,27.57,27Z"/></svg>