<svg id="Layer_1" data-name="Layer 1" xmlns="http://www.w3.org/2000/svg" viewBox="0 0 42 42"><defs><style>.cls-1{fill:#fff;}</style></defs><title>Touch-Icons</title><path class="cls-1" d="M39.54,37.85c-2.29-6.64-6.73-11.58-12.07-13.8a10.62,10.62,0,0,0,2.6-7,11.36,11.36,0,0,0-.27-2.42A6.31,6.31,0,1,0,20.48,7c-4.76.31-8.55,4.68-8.55,10a10.64,10.64,0,0,0,2.61,7.06C9.18,26.3,4.73,31.26,2.46,38a.78.78,0,0,0,.75,1A.78.78,0,0,0,4,38.46c2.22-6.53,6.62-11.29,11.86-13.22A8.38,8.38,0,0,0,21,27.06a8.47,8.47,0,0,0,5.2-1.82c5.22,1.9,9.62,6.64,11.85,13.13a.79.79,0,0,0,1,.49A.8.8,0,0,0,39.54,37.85ZM26.33,4.58A4.74,4.74,0,1,1,21.6,9.31,4.74,4.74,0,0,1,26.33,4.58ZM21,25.49c-4.13,0-7.5-3.81-7.5-8.49,0-4.31,2.87-7.88,6.57-8.4a5.52,5.52,0,0,0-.05.71,6.31,6.31,0,0,0,8.32,6A9.62,9.62,0,0,1,28.5,17C28.5,21.68,25.13,25.49,21,25.49Z"/><path class="cls-1" d="M18.05,33.38h-2v-2a.79.79,0,0,0-1.58,0v2h-2a.79.79,0,1,0,0,1.57h2v2a.79.79,0,0,0,1.58,0V35h2a.79.79,0,1,0,0-1.57Z"/><path class="cls-1" d="M26.33,12.49a3.18,3.18,0,1,0-3.17-3.18A3.18,3.18,0,0,0,26.33,12.49Zm0-5a1.8,1.8,0,1,1-1.79,1.79A1.8,1.8,0,0,1,26.33,7.52Z"/></svg>