<svg id="Layer_1" data-name="Layer 1" xmlns="http://www.w3.org/2000/svg" viewBox="0 0 42 42"><defs><style>.cls-1{fill:#fff;}</style></defs><title>Touch-Icons</title><path class="cls-1" d="M39.78,15.77H31.62a8.15,8.15,0,0,0-4-1A8.25,8.25,0,0,0,25.7,15s.06-1.47.1-1.52A7.26,7.26,0,0,0,26.87,9.6C26.87,6,24.29,3,21.12,3s-5.74,3-5.74,6.6a7.26,7.26,0,0,0,1.07,3.84c0,.05.1,1.63.1,1.63s-.68.7-2.11.7h-12a.7.7,0,0,0-.7.71.7.7,0,0,0,.7.7h12c2,0,3.52-.91,3.52-2.11V13.66a3.44,3.44,0,0,0-.31-1,5.84,5.84,0,0,1-.86-3.09c0-2.86,1.94-5.19,4.33-5.19s4.34,2.33,4.34,5.19a5.84,5.84,0,0,1-.86,3.09,3.44,3.44,0,0,0-.31,1v1.41a1.35,1.35,0,0,0,.06.35,8.08,8.08,0,0,0,2.76,15.46V38.3a.7.7,0,0,0,.7.7.71.71,0,0,0,.71-.7V30.86a8.1,8.1,0,0,0,7.21-8,8.2,8.2,0,0,0-.29-2.11h.82A.7.7,0,0,0,37,20a.7.7,0,0,0-.7-.71H34.91a8.16,8.16,0,0,0-1.47-2.11h6.34a.7.7,0,0,0,.7-.7A.7.7,0,0,0,39.78,15.77Zm-5.46,7a6.69,6.69,0,1,1-6.68-6.68A6.69,6.69,0,0,1,34.32,22.81Z"/><path class="cls-1" d="M11.62,19.29H6a.7.7,0,0,0-.7.71.7.7,0,0,0,.7.7h5.63a2.11,2.11,0,0,1,2.11,2.11V38.3a.71.71,0,0,0,.71.7.7.7,0,0,0,.7-.7V22.81A3.53,3.53,0,0,0,11.62,19.29Z"/><path class="cls-1" d="M27.64,17.9a4.92,4.92,0,1,0,4.91,4.91A4.91,4.91,0,0,0,27.64,17.9Zm0,8.42a3.51,3.51,0,1,1,3.5-3.51A3.51,3.51,0,0,1,27.64,26.32Z"/><circle class="cls-1" cx="27.64" cy="22.81" r="1.6"/></svg>