<svg id="Layer_1" data-name="Layer 1" xmlns="http://www.w3.org/2000/svg" viewBox="0 0 42 42"><defs><style>.cls-1{fill:#fff;}</style></defs><title>Touch-Icons</title><path class="cls-1" d="M34.59,14H31.16V5.2a2.33,2.33,0,0,0-2.33-2.32H13.59A2.32,2.32,0,0,0,11.27,5.2V16.65H7.84A2.33,2.33,0,0,0,5.52,19V36.55a2.33,2.33,0,0,0,2.32,2.33H34.59a2.33,2.33,0,0,0,2.32-2.33V16.31A2.32,2.32,0,0,0,34.59,14ZM12.82,5.2a.77.77,0,0,1,.77-.78H28.83a.78.78,0,0,1,.78.78V14H26.35a2.41,2.41,0,0,0-1.72.69,2,2,0,0,0-.58,1.43.41.41,0,0,1-.14.31.82.82,0,0,1-.61.23H12.82ZM35.36,36.55a.78.78,0,0,1-.77.78H7.84a.77.77,0,0,1-.77-.78V19a.77.77,0,0,1,.77-.78H23.3A2.38,2.38,0,0,0,25,17.5a2,2,0,0,0,.58-1.42.41.41,0,0,1,.14-.31.83.83,0,0,1,.61-.24h8.24a.78.78,0,0,1,.77.78Z"/><path class="cls-1" d="M15.71,8.48h11a.78.78,0,0,0,.78-.78.77.77,0,0,0-.78-.77h-11a.76.76,0,0,0-.77.77A.77.77,0,0,0,15.71,8.48Z"/><path class="cls-1" d="M27.49,11.37a.78.78,0,0,0-.78-.78h-11a.78.78,0,0,0,0,1.55h11A.78.78,0,0,0,27.49,11.37Z"/><path class="cls-1" d="M24.71,26.49H22V23.76a.78.78,0,0,0-.78-.77.77.77,0,0,0-.77.77v2.73H17.71a.78.78,0,0,0,0,1.55h2.73v2.72a.77.77,0,0,0,.77.78.78.78,0,0,0,.78-.78V28h2.72a.78.78,0,1,0,0-1.55Z"/></svg>