<svg id="Layer_1" data-name="Layer 1" xmlns="http://www.w3.org/2000/svg" viewBox="0 0 42 42"><defs><style>.cls-1{fill:#fff;}</style></defs><title>Touch-Icons</title><path class="cls-1" d="M26.64,12.1a7.75,7.75,0,0,0,1.28-4.89l-.05-.65-.65,0c-.14,0-3.39-.21-5.32,1.75a4.16,4.16,0,0,0-.5.61A10.11,10.11,0,0,0,12.16,2.1a.77.77,0,1,0-.09,1.53c4.58.27,8.17,3.62,8.17,7.62A6.8,6.8,0,0,1,20,12.93a7.89,7.89,0,0,0-3.2-.92c-7,0-12.15,5.87-12.15,14,0,7.69,6,13.94,13.34,13.94a13.15,13.15,0,0,0,3-.35,13.09,13.09,0,0,0,3,.35c7.35,0,13.34-6.25,13.34-13.94C37.34,18.44,32.92,12.85,26.64,12.1ZM23,9.34A5.41,5.41,0,0,1,26.4,8.05a5.36,5.36,0,0,1-1.23,3.43,5.37,5.37,0,0,1-3.41,1.29A5.34,5.34,0,0,1,23,9.34Zm1,29A11.51,11.51,0,0,1,21.19,38L21,38l-.19.05a11.51,11.51,0,0,1-2.81.35C11.49,38.37,6.19,32.8,6.19,26c0-7.2,4.46-12.42,10.62-12.42A8.91,8.91,0,0,1,20.58,15l.42.27.42-.27A12.18,12.18,0,0,1,23,14.16a7.58,7.58,0,0,0,1.81-.58,3,3,0,0,1,.41,0c6.16,0,10.62,5.22,10.62,12.42C35.81,32.8,30.51,38.37,24,38.37Z"/><path class="cls-1" d="M32.46,25.76a.77.77,0,0,0-.76.77,8.41,8.41,0,0,1-7.88,8.39.76.76,0,0,0,0,1.52h.05a9.94,9.94,0,0,0,9.31-9.91A.77.77,0,0,0,32.46,25.76Z"/></svg>