<svg id="Layer_1" data-name="Layer 1" xmlns="http://www.w3.org/2000/svg" viewBox="0 0 42 42"><defs><style>.cls-1{fill:#fff;}</style></defs><title>Touch-Icons</title><path class="cls-1" d="M31.35,14.19,27.68,9a2.22,2.22,0,0,0,.51-1.42V5.27A2.27,2.27,0,0,0,25.92,3H16.08a2.27,2.27,0,0,0-2.27,2.27V7.54A2.22,2.22,0,0,0,14.32,9l-3.67,5.23a6.49,6.49,0,0,0-1,3.19V31c0,3.92,2.7,7,7,8L21,39h4.24l.09,0c4.33-1,7-4,7-8V17.38A6.49,6.49,0,0,0,31.35,14.19Zm-16-8.92a.76.76,0,0,1,.76-.76h9.84a.76.76,0,0,1,.76.76V7.54a.76.76,0,0,1-.76.76H16.08a.76.76,0,0,1-.76-.76Zm9.75,32.22H16.93c-3.62-.86-5.77-3.28-5.77-6.48H30.84C30.84,34.21,28.69,36.63,25.07,37.49Zm5.77-8H11.16V18.9H30.84ZM11.16,17.38a4.91,4.91,0,0,1,.73-2.32l3.71-5.3a2.61,2.61,0,0,0,.48.05h9.84a2.61,2.61,0,0,0,.48-.05l3.71,5.3a4.91,4.91,0,0,1,.73,2.32Z"/><path class="cls-1" d="M18.35,24.58h1.89v1.89a.76.76,0,0,0,1.52,0V24.58h1.89a.76.76,0,1,0,0-1.52H21.76V21.17a.76.76,0,0,0-1.52,0v1.89H18.35a.76.76,0,1,0,0,1.52Z"/></svg>