<svg xmlns="http://www.w3.org/2000/svg" width="84.279" height="30" viewBox="0 0 84.279 30">
  <g id="Touch-Logo-16px-dark" transform="translate(-0.68 -0.265)">
    <path id="Path_20" data-name="Path 20" d="M9.52,7.287a.769.769,0,0,1,0,1.089.826.826,0,0,1-.563.206H6.048v9.177a.713.713,0,0,1-.244.563.826.826,0,0,1-.6.225.845.845,0,0,1-.6-.225.769.769,0,0,1-.225-.563V8.581H1.469a.826.826,0,0,1-.563-.206A.732.732,0,0,1,.68,7.812a.676.676,0,0,1,.225-.525.826.826,0,0,1,.563-.206H8.976a.826.826,0,0,1,.544.206Z" transform="translate(0 5.975)" fill="#fff"/>
    <path id="Path_21" data-name="Path 21" d="M16.341,15.877A5.236,5.236,0,0,1,14.464,18a5.63,5.63,0,0,1-5.63,0,5.236,5.236,0,0,1-1.877-2.121A6.306,6.306,0,0,1,6,12.893a6.381,6.381,0,0,1,.713-3A5.368,5.368,0,0,1,11.518,7a5.311,5.311,0,0,1,2.853.788,5.236,5.236,0,0,1,1.877,2.121,6.381,6.381,0,0,1,.713,3A6.306,6.306,0,0,1,16.341,15.877Zm-1.464-5.124A3.96,3.96,0,0,0,13.507,9.1a3.726,3.726,0,0,0-5.349,1.539,5.161,5.161,0,0,0-.488,2.252,5.048,5.048,0,0,0,.488,2.215,3.71,3.71,0,0,0,5.349,1.558,3.96,3.96,0,0,0,1.37-1.558,5.311,5.311,0,0,0,0-4.448Z" transform="translate(4.665 5.905)" fill="#fff"/>
    <path id="Path_22" data-name="Path 22" d="M21.661,7.3a.826.826,0,0,1,.206.563v6.287a4.617,4.617,0,0,1-.582,2.327,4.072,4.072,0,0,1-1.576,1.614,4.392,4.392,0,0,1-2.271.582,4.467,4.467,0,0,1-2.29-.582,4.241,4.241,0,0,1-1.6-1.614,4.8,4.8,0,0,1-.563-2.327V7.859a.769.769,0,0,1,.225-.563.807.807,0,0,1,.582-.225.769.769,0,0,1,.788.788v6.287a3.022,3.022,0,0,0,.394,1.539,2.834,2.834,0,0,0,2.459,1.426,3.041,3.041,0,0,0,1.464-.376,2.74,2.74,0,0,0,1.069-1.051,3.022,3.022,0,0,0,.394-1.539V7.859a.826.826,0,0,1,.206-.563.676.676,0,0,1,.544-.225.694.694,0,0,1,.544.225Z" transform="translate(10.793 5.966)" fill="#fff"/>
    <path id="Path_23" data-name="Path 23" d="M28.036,8.435a.863.863,0,0,1-.188.544.676.676,0,0,1-.544.263,1.032,1.032,0,0,1-.45-.131,4.448,4.448,0,0,0-2.2-.563,4.11,4.11,0,0,0-2.158.544,3.641,3.641,0,0,0-1.464,1.5,4.636,4.636,0,0,0-.525,2.252,4.786,4.786,0,0,0,.525,2.327,3.754,3.754,0,0,0,1.5,1.5,4.429,4.429,0,0,0,4.317,0,1.107,1.107,0,0,1,.432-.094.638.638,0,0,1,.563.282.845.845,0,0,1,.206.525.619.619,0,0,1-.113.357.676.676,0,0,1-.282.282,5.63,5.63,0,0,1-1.426.563,5.818,5.818,0,0,1-1.576.225,6.118,6.118,0,0,1-2.909-.713,5.217,5.217,0,0,1-2.14-2.046,6.081,6.081,0,0,1-.788-3.134,5.987,5.987,0,0,1,.751-3,5.63,5.63,0,0,1,2.1-2.083,6.1,6.1,0,0,1,5.968,0A.676.676,0,0,1,28.036,8.435Z" transform="translate(15.904 5.953)" fill="#fff"/>
    <path id="Path_24" data-name="Path 24" d="M33.588,7.306a.769.769,0,0,1,.225.563V17.74a.92.92,0,0,1-.244.582.863.863,0,0,1-1.164,0,.807.807,0,0,1-.225-.582V13.5H26.363V17.74a.826.826,0,0,1-.244.582.845.845,0,0,1-.582.225.769.769,0,0,1-.582-.225.807.807,0,0,1-.225-.582V7.869a.807.807,0,0,1,.826-.788.769.769,0,0,1,.563.225.713.713,0,0,1,.244.563V12h5.818V7.869a.713.713,0,0,1,.244-.563.788.788,0,0,1,.563-.225.826.826,0,0,1,.6.225Z" transform="translate(21.086 5.975)" fill="#fff"/>
    <path id="Path_25" data-name="Path 25" d="M60.425,12.642,56.54,10.916,54.982,8.082a.563.563,0,0,0-.563-.282l-3.6.6-.225.094-2.44,1.783L46.518,8.157a.507.507,0,0,0-.15-.131l-7.338-4.2a.544.544,0,0,0-.619,0,.563.563,0,0,0-.169.582l.432,1.314L29.384.368a.544.544,0,0,0-.638,0,.544.544,0,0,0-.131.638L34.77,13.9a.526.526,0,0,0,.206.244l5.63,3.247-2.871,3.9h0a.619.619,0,0,0,0,.357l.788,8.145a.544.544,0,0,0,.45.469h0a.563.563,0,0,0,.488-.282l3.754-7.507,3.266.225a.619.619,0,0,0,.282,0L52,20.149h0l.169-.15v-.15h0l1.408-5.63,2.29-.375,4.035-.15a.582.582,0,0,0,.525-.45.563.563,0,0,0,0-.6ZM45.749,8.889,47.288,10.9l-.732.544-1.989-2.29a.244.244,0,0,0-.169,0L40.1,6.58,39.724,5.4Zm-6.362,19.03-.751-5.63,3.585.244Zm-.338-6.775,2.346-3.19,3.847,2.233.619,1.426Zm7.939.338-.507-1.07h2.984Zm-1.182-2.215L35.577,13.355,30.266,2.189l13.55,7.789,7.057,8.089.357,1.145Zm6.1-1.558h0a.45.45,0,0,0-.113-.206l-4.5-5.142,3.453-2.534L52.9,13.881Zm4.166-4.955-2.29.375L51.773,9.377l2.459-.413,1.426,2.646a.526.526,0,0,0,.263.225l1.877.845Z" transform="translate(24.446 0)" fill="#fff"/>
  </g>
</svg>
