<?xml version="1.0" encoding="UTF-8"?>
<svg id="Layer_1" data-name="Layer 1" xmlns="http://www.w3.org/2000/svg" viewBox="0 0 337.99 338.38">
  <g id="Icons">
    <path d="M191.38,223.54c-1.78,1.12-2.33,2.65-2.46,4.87-2.83,14-29.81,11.97-37.58,6.06-7.63-5.52-3.81-8.39-5.96-12.08-2.71-4.26-8.93-2.2-9.21,2.34-1.07,23.32,33.46,28.86,50.18,20.7,15.42-6.75,16.09-26.45,5.04-21.88Z"/>
    <path d="M205.27,155.09c22.31,21.38,53.14-8.98,33.3-31.53-22.3-21.38-53.14,8.98-33.3,31.53Zm7.26-6.88c-11.4-13.39,6.87-29.57,18.78-17.78,11.41,13.39-6.87,29.56-18.78,17.78Z"/>
    <path d="M206.21,40.49c17.97,19,116.11,122.57,117.19,123.79,8.89,11.5,4.35,21.87-6.8,30.97-11.59,8.79-.69,14.8,3.23,10.71h0c2.82-2.83,10.66-9.57,12.88-12.96,10.57-15.46,2.96-30.91-2.91-36.54C199.34,19.92,209.52,24.02,202.6,33.08c-1.09,4.67,3.37,6.5,3.6,7.41Z"/>
    <path d="M200.6,23.18c.4-4.81-1.95-4.54-6.15-9.65-5.53-5.83-7.48-8.38-14.03-11.26-19.04-7-28.9,3.59-38.27,12.76-11.43,10.83-31.83,30.14-31.84,30.15-.09-.06-.18-.12-.26-.18-.16,.2-.34,.4-.54,.6-1.42,1.35-2.86,2.65-4.35,3.9-.22,.34-.48,.67-.8,.98l-1.21,1.15c-.15,.14-.3,.25-.45,.37,.08,.05,.17,.09,.25,.14h.02s-47.29,44.78-47.29,44.78c-.06-.1-.11-.2-.16-.29-.09,.11-.16,.24-.26,.35-.95,1.1-2.02,2.05-3.14,2.94-.02,.02-.04,.03-.06,.05-.49,.39-.99,.76-1.5,1.13-.14,.18-.3,.36-.47,.52-.3,.34-.64,.62-.99,.86-.29,.38-.63,.73-1.01,1.03,.07,.13,.14,.26,.22,.4,0,0-11.38,10.78-16.16,15.3-8.61,6.58,.22,13.55,4.82,9.21,0,0,83.36-78.94,110.89-105,33.92-38.23,42.62,19.13,52.73-.21Z"/>
    <path d="M101.08,149.34c-4.89,3.94-.04,10.72,4.99,8.58,.68-.16,26.35-14.04,27.25-14.4,9.07-7.9-5.6-10.94-17.49-17.73-5.03-2.55-9.26-4.7-9.67-4.91-5.85-2.78-10.44,5.44-4.56,8.9l18.52,9.4s-12.97,6.87-17.11,9.06c-1.44,.8-.42,.13-1.93,1.09Z"/>
    <path d="M229.46,291.87c1.09-1.03,2.2-2.02,3.34-2.96,.95-1.07,1.86-2.18,2.68-3.38,.58-.85,1.35-1.42,2.19-1.76l44-41.66c.07,.22,.12,.43,.18,.65l.52-.49c1.75-2.84,4.55-4.96,7.05-7.2-.03-.07-.06-.14-.1-.21,15.99-15.52,20.57-17.57,18.65-21.98-1.24-3.29-5.6-4.16-8.09-1.79,0,0-.34,.32-1.04,.98l-113.47,107.44c-3.91,3.5-5.08,5.72-10.71,7.86-7.77,2.74-15.6-.4-19.62-4.81-1.37-1.45-137.16-144.85-139.9-147.75,.29,.41-3-3.38-3.71-5.68-7.58-20.17,16.51-26.31,15.47-33.77-3.48-11.01-11.66,.2-16.77,4.69C.13,148.65-3.38,163.4,3.77,176.15c2.03,4.07,10.15,11.69,13.03,14.94h0c-.06,.11-.12,.21-.18,.32,.76,.46,1.44,1.11,1.98,1.88,.07,.1,.15,.2,.22,.3,1.96,1.62,3.72,3.46,5.07,5.63,.05-.16,.09-.32,.15-.48l107.55,113.58c-.17,.04-.33,.08-.5,.12,.02,.02,.05,.04,.07,.06l1.77,1.87c1.95,1.76,3.71,3.72,5.71,5.42,.07,.06,.13,.12,.19,.18,0,0,0,0,.01,0l8.96,9.46c10.86,11.47,29,11.97,40.47,1.1l39.68-37.57c.17,.1,.34,.18,.51,.28,.25-.51,.58-.98,1-1.38Z"/>
  </g>
</svg>