<svg xmlns="http://www.w3.org/2000/svg" viewBox="0 0 16 16">
    <path style="line-height:normal;text-indent:0;text-align:start;text-decoration-line:none;text-decoration-style:solid;text-decoration-color:#000;text-transform:none;block-progression:tb;isolation:auto;mix-blend-mode:normal" d="M 3.3691406 2 C 2.7386098 2 2.1710163 2.3976607 1.9570312 2.9902344 A 0.50005 0.50005 0 0 0 1.9550781 2.9960938 L 1.1035156 5.4492188 C 1.1035156 5.4492188 1.1035156 5.4511719 1.1035156 5.4511719 C 1.0359384 5.6251581 1 5.811157 1 6 L 1 12.5 C 1 13.322531 1.6774686 14 2.5 14 L 13.5 14 C 14.322531 14 15 13.322531 15 12.5 L 15 6.4980469 C 15 5.8067904 14.519852 5.223071 13.878906 5.0527344 L 13.203125 3.0253906 C 12.999614 2.41336 12.422475 2 11.779297 2 L 7.625 2 L 3.3691406 2 z M 3.3691406 3 L 7.625 3 C 7.8418217 3 8.0311208 3.1358275 8.0996094 3.3417969 L 8.8710938 5.6582031 A 0.50005 0.50005 0 0 0 9.3457031 6 L 13.5 5.9980469 C 13.781469 5.9980469 14 6.2165783 14 6.4980469 L 14 12.5 C 14 12.781469 13.781469 13 13.5 13 L 2.5 13 C 2.2185314 13 2 12.781469 2 12.5 L 2 6 C 2 5.937492 2.0111813 5.8740012 2.0351562 5.8125 A 0.50005 0.50005 0 0 0 2.0429688 5.7949219 L 2.8984375 3.3300781 C 2.9704525 3.1306518 3.1556714 3 3.3691406 3 z M 9.0351562 3 L 11.779297 3 C 11.996119 3 12.185418 3.1358275 12.253906 3.3417969 L 12.804688 4.9980469 L 9.7070312 5 L 9.0488281 3.0253906 C 9.0457182 3.0160381 9.0384395 3.009259 9.0351562 3 z M 4 4 L 4 5 L 7 5 L 7 4 L 4 4 z" font-weight="400" font-family="sans-serif" white-space="normal" overflow="visible"/>
</svg>
