<svg xmlns="http://www.w3.org/2000/svg" width="683" height="1024" fill="none"><g clip-path="url(#a)"><path fill="#fff" d="M0 0h683v1024H0z"/><g filter="url(#b)"><path fill="url(#c)" d="M650.488 606.244C291.277 1960.51-526.285 1123.03-739.415 1055.36c-213.13-67.678-172.3-529.499-74.639-837.068 97.661-307.569 482.232-576.222 695.362-508.548 439.697-46.872 1010.329 360.02 769.18 896.5Z"/></g><g filter="url(#d)"><path fill="url(#e)" d="M643.196 1100.04c-177.404 207.32-380.381 324.76-453.362 262.31-72.981-62.45-430.629-321.53 95.586-568.459 177.404-207.318 379.265-623.004 546.851-182.308 72.981 62.45-11.671 281.141-189.075 488.457Z"/></g><g filter="url(#f)"><path fill="url(#g)" d="M603.551-485.496c156.725-14.765 304.292 191.039 329.601 459.678 276.058 552.678-81.225 498.381-237.95 513.146-156.724 14.766-304.291-191.039-329.6-459.677-25.309-268.638-131.993-328.363 237.949-513.147Z"/></g></g><defs><linearGradient id="c" x1="-129.771" x2="-581.255" y1="21.799" y2="1443.68" gradientUnits="userSpaceOnUse"><stop stop-color="#83A5F2"/><stop offset=".589" stop-color="#2C4DC7"/></linearGradient><linearGradient id="e" x1="785.527" x2="143.09" y1="571.582" y2="1322.35" gradientUnits="userSpaceOnUse"><stop stop-color="#EA9836"/><stop offset=".635" stop-color="#8AA4EC"/></linearGradient><linearGradient id="g" x1="658.945" x2="419.868" y1="-569.306" y2="529.653" gradientUnits="userSpaceOnUse"><stop offset=".349" stop-color="#F5D9D0"/><stop offset="1" stop-color="#E17053"/></linearGradient><filter id="b" width="1801.42" height="1873.98" x="-993.63" y="-400.794" color-interpolation-filters="sRGB" filterUnits="userSpaceOnUse"><feFlood flood-opacity="0" result="BackgroundImageFix"/><feBlend in="SourceGraphic" in2="BackgroundImageFix" result="shape"/><feGaussianBlur result="effect1_foregroundBlur_1468_6203" stdDeviation="50"/></filter><filter id="d" width="1055.12" height="1162.41" x="-96.637" y="316.702" color-interpolation-filters="sRGB" filterUnits="userSpaceOnUse"><feFlood flood-opacity="0" result="BackgroundImageFix"/><feBlend in="SourceGraphic" in2="BackgroundImageFix" result="shape"/><feGaussianBlur result="effect1_foregroundBlur_1468_6203" stdDeviation="50"/></filter><filter id="f" width="902.833" height="1174.32" x="231.877" y="-586.243" color-interpolation-filters="sRGB" filterUnits="userSpaceOnUse"><feFlood flood-opacity="0" result="BackgroundImageFix"/><feBlend in="SourceGraphic" in2="BackgroundImageFix" result="shape"/><feGaussianBlur result="effect1_foregroundBlur_1468_6203" stdDeviation="50"/></filter><clipPath id="a"><path fill="#fff" d="M0 0h683v1024H0z"/></clipPath></defs></svg>