<svg width="390" height="844" viewBox="0 0 390 844" fill="none" xmlns="http://www.w3.org/2000/svg">
<g clip-path="url(#clip0_2588_4169)">
<g opacity="0.5" filter="url(#filter0_f_2588_4169)">
<path d="M347.881 465.1C220.427 498.048 102.161 499.582 83.7268 468.524C65.3325 437.535 -35.4129 300.052 255.589 312.761C256.813 312.815 258.042 312.71 259.135 312.424C385.791 279.32 569.075 189.865 545.715 346.399C545.454 348.145 545.925 350.15 546.62 351.976C558.525 383.275 471.618 433.112 347.881 465.1Z" fill="url(#paint0_linear_2588_4169)"/>
</g>
<g filter="url(#filter1_f_2588_4169)">
<path d="M231.692 25.6694C231.819 26.1713 232.019 26.7282 232.252 27.2376C351.947 288.57 96.535 194.372 9.55943 200.946C-77.2063 207.505 -208.855 111.67 -177.666 26.6842C-177.455 26.1112 -177.335 25.4501 -177.324 24.8017C-175.448 -84.5918 -62.2385 -45.0134 24.4418 -51.2159C25.0701 -51.2609 25.688 -51.3665 26.2466 -51.5153C168.03 -89.2789 209.473 -61.9807 231.692 25.6694Z" fill="url(#paint1_linear_2588_4169)"/>
</g>
</g>
<defs>
<filter id="filter0_f_2588_4169" x="-28.0024" y="176.877" width="655.748" height="393.973" filterUnits="userSpaceOnUse" color-interpolation-filters="sRGB">
<feFlood flood-opacity="0" result="BackgroundImageFix"/>
<feBlend mode="normal" in="SourceGraphic" in2="BackgroundImageFix" result="shape"/>
<feGaussianBlur stdDeviation="40" result="effect1_foregroundBlur_2588_4169"/>
</filter>
<filter id="filter1_f_2588_4169" x="-262.348" y="-148.072" width="605.958" height="440.305" filterUnits="userSpaceOnUse" color-interpolation-filters="sRGB">
<feFlood flood-opacity="0" result="BackgroundImageFix"/>
<feBlend mode="normal" in="SourceGraphic" in2="BackgroundImageFix" result="shape"/>
<feGaussianBlur stdDeviation="40" result="effect1_foregroundBlur_2588_4169"/>
</filter>
<linearGradient id="paint0_linear_2588_4169" x1="565.351" y1="368.375" x2="120.282" y2="420.925" gradientUnits="userSpaceOnUse">
<stop stop-color="#F0ECE7"/>
<stop offset="0.489583" stop-color="#B3FFD1"/>
<stop offset="0.984375" stop-color="#F0ECE7"/>
</linearGradient>
<linearGradient id="paint1_linear_2588_4169" x1="-22.3709" y1="-45.0935" x2="-5.07699" y2="183.688" gradientUnits="userSpaceOnUse">
<stop stop-color="#83A5F2"/>
<stop offset="0.817708" stop-color="#F0ECE7"/>
</linearGradient>
<clipPath id="clip0_2588_4169">
<rect width="390" height="844" fill="white"/>
</clipPath>
</defs>
</svg>
