<svg xmlns="http://www.w3.org/2000/svg" width="390" height="844" fill="none"><g clip-path="url(#a)"><path fill="#FEFBF1" d="M0 0h390v844H0z"/><g filter="url(#b)"><path fill="url(#c)" d="M273.029 678.794C-278.105 1026.93-245.864 562.719-338.92 378.469c-93.056-184.251 52.269-361.937 185.829-429.392C-19.53-118.378 253.314 38.79 346.37 223.04c242.057 296.462 196.574 389.219-73.341 455.754Z"/></g><g filter="url(#d)"><path fill="url(#e)" d="M325.445 1000.29c-142.502 75.44-282.473 90.41-312.633 33.44-30.16-56.978-187.011-308.208 164.777-312.738 142.502-75.437 339.286-268.372 351.268 39.552 30.161 56.974-60.91 164.314-203.412 239.746Z"/></g><g filter="url(#f)"><path fill="url(#g)" d="M142.128-314.27c92.632-75.418 272.521-7.842 401.794 150.936 407.248 232.183 158.976 348.632 66.344 424.05-92.632 75.419-272.521 7.842-401.794-150.936C79.199-48.998-13.287-41.673 142.128-314.27Z"/></g></g><defs><linearGradient id="c" x1="379.263" x2="-238.186" y1="220.413" y2="532.255" gradientUnits="userSpaceOnUse"><stop stop-color="#83A5F2"/><stop offset="1" stop-color="#2C4DC7"/></linearGradient><linearGradient id="e" x1="509.54" x2="-6.506" y1="724.052" y2="997.234" gradientUnits="userSpaceOnUse"><stop stop-color="#EA9836"/><stop offset=".635" stop-color="#8AA4EC"/></linearGradient><linearGradient id="g" x1="141.719" x2="454.441" y1="-390.501" y2="403.547" gradientUnits="userSpaceOnUse"><stop offset=".349" stop-color="#F5D9D0"/><stop offset="1" stop-color="#E17053"/></linearGradient><filter id="b" width="1072.65" height="1071.66" x="-468.388" y="-166.861" color-interpolation-filters="sRGB" filterUnits="userSpaceOnUse"><feFlood flood-opacity="0" result="BackgroundImageFix"/><feBlend in="SourceGraphic" in2="BackgroundImageFix" result="shape"/><feGaussianBlur result="effect1_foregroundBlur_1468_6207" stdDeviation="50"/></filter><filter id="d" width="782.673" height="676.555" x="-148.046" y="491.759" color-interpolation-filters="sRGB" filterUnits="userSpaceOnUse"><feFlood flood-opacity="0" result="BackgroundImageFix"/><feBlend in="SourceGraphic" in2="BackgroundImageFix" result="shape"/><feGaussianBlur result="effect1_foregroundBlur_1468_6207" stdDeviation="50"/></filter><filter id="f" width="909.517" height="836.702" x="-39.266" y="-445.128" color-interpolation-filters="sRGB" filterUnits="userSpaceOnUse"><feFlood flood-opacity="0" result="BackgroundImageFix"/><feBlend in="SourceGraphic" in2="BackgroundImageFix" result="shape"/><feGaussianBlur result="effect1_foregroundBlur_1468_6207" stdDeviation="50"/></filter><clipPath id="a"><path fill="#fff" d="M0 0h390v844H0z"/></clipPath></defs></svg>