<svg width="73" height="73" viewBox="0 0 73 73" fill="none" xmlns="http://www.w3.org/2000/svg">
<mask id="mask0_2380_211" style="mask-type:alpha" maskUnits="userSpaceOnUse" x="0" y="0" width="73" height="73">
<circle cx="36.5" cy="36.5" r="36.5" fill="#D9D9D9"/>
</mask>
<g mask="url(#mask0_2380_211)">
<g filter="url(#filter0_f_2380_211)">
<path fill-rule="evenodd" clip-rule="evenodd" d="M49.5494 9.06906C47.7647 9.39828 45.661 9.92308 43.8462 9.92308C40.5324 9.92308 37.8462 12.6094 37.8462 15.9231C37.8462 16.354 37.8916 16.7743 37.9779 17.1795C37.9929 17.2498 37.9385 17.3164 37.8666 17.3144C37.7964 17.3124 37.7459 17.2459 37.7609 17.1773C37.8167 16.9219 37.8462 16.6567 37.8462 16.3846C37.8462 14.3454 36.1931 12.6923 34.1538 12.6923C32.1146 12.6923 30.4615 14.3454 30.4615 16.3846C30.4615 17.5297 30.0959 18.8943 29.0952 19.451C27.9871 20.0674 26.9548 20.8035 26.0157 21.6419C24.5527 22.9481 21.8074 22.8462 19.8462 22.8462C17.552 22.8462 15.6923 24.7059 15.6923 27C15.6923 29.2941 17.552 31.1538 19.8462 31.1538C20.2222 31.1538 20.5491 31.4826 20.4938 31.8546C20.3712 32.6801 20.3077 33.525 20.3077 34.3846C20.3077 34.6698 20.0942 34.911 19.8124 34.9545C15.3877 35.6368 12 39.4612 12 44.0769C12 47.6269 14.004 50.7089 16.9425 52.2532C17.3245 52.454 17.5385 52.8761 17.5385 53.3077C17.5385 55.3469 19.1916 57 21.2308 57C23.27 57 24.9231 55.3469 24.9231 53.3077C24.9231 52.8761 25.1369 52.4541 25.519 52.2533C26.0374 51.9808 26.5267 51.6606 26.981 51.2983C28.236 50.2976 29.9767 49.8595 31.4829 50.4143C33.3222 51.0917 35.3102 51.4615 37.3846 51.4615C39.0301 51.4615 40.6212 51.2288 42.1268 50.7945C44.3923 50.1409 47.4882 51.4615 49.8462 51.4615C51.8854 51.4615 53.5385 49.8084 53.5385 47.7692C53.5385 46.6981 53.0824 45.7336 52.3539 45.0591C51.8612 44.603 51.6281 43.8323 51.9775 43.2589C52.2671 42.7837 52.8655 42.5894 53.3942 42.7631C54.1656 43.0167 54.9899 43.1538 55.8462 43.1538C60.1795 43.1538 63.6923 39.641 63.6923 35.3077C63.6923 30.9744 60.1795 27.4615 55.8462 27.4615C54.3343 27.4615 52.7643 26.8013 51.9775 25.5104C51.2433 24.3056 50.3641 23.1989 49.3642 22.2145C48.5025 21.3662 48.5033 19.8947 49.0916 18.8382C49.3367 18.3982 49.528 17.9241 49.6567 17.4248C49.6801 17.3338 49.7669 17.2739 49.8604 17.2839C49.9734 17.296 50.0537 17.4044 50.0286 17.5153C49.9092 18.0423 49.8462 18.5907 49.8462 19.1538C49.8462 23.2323 53.1524 26.5385 57.2308 26.5385C61.3092 26.5385 64.6154 23.2323 64.6154 19.1538C64.6154 15.0754 61.3092 11.7692 57.2308 11.7692C55.7192 11.7692 54.0699 10.8347 52.8851 9.89609C52.1768 9.33502 51.2814 9 50.3077 9C50.0487 9 49.7952 9.0237 49.5494 9.06906Z" fill="#F9A197"/>
<path d="M50.0286 17.5153L40.2757 15.3058L50.0286 17.5153ZM49.6567 17.4248L59.3403 19.9204L49.6567 17.4248ZM49.3642 22.2145L42.3488 29.3408L49.3642 22.2145ZM49.0916 18.8382L40.3552 13.9726L49.0916 18.8382ZM53.3942 42.7631L56.5167 33.2631L53.3942 42.7631ZM26.981 51.2983L33.2152 59.1171L26.981 51.2983ZM31.4829 50.4143L28.0269 59.7981L31.4829 50.4143ZM25.519 52.2533L30.1712 61.1052L25.519 52.2533ZM52.8851 9.89609L59.0948 2.05774L52.8851 9.89609ZM16.9425 52.2532L21.5947 43.4013L16.9425 52.2532ZM20.4938 31.8546L30.3853 33.3236L20.4938 31.8546ZM51.9775 25.5104L60.5168 20.3064L51.9775 25.5104ZM26.0157 21.6419L19.3558 14.1824L26.0157 21.6419ZM19.8124 34.9545L18.2882 25.0713L19.8124 34.9545ZM52.3539 45.0591L45.5605 52.3974L52.3539 45.0591ZM37.7609 17.1773L27.9919 15.0403L37.7609 17.1773ZM29.0952 19.451L33.9564 28.1899L29.0952 19.451ZM37.9779 17.1795L47.7584 15.0956L37.9779 17.1795ZM47.8462 15.9231C47.8462 18.1322 46.0553 19.9231 43.8462 19.9231V-0.0769234C35.0096 -0.0769234 27.8462 7.08652 27.8462 15.9231H47.8462ZM47.7584 15.0956C47.8171 15.3713 47.8462 15.6493 47.8462 15.9231H27.8462C27.8462 17.0587 27.9661 18.1774 28.1975 19.2634L47.7584 15.0956ZM27.8462 16.3846C27.8462 15.9335 27.8952 15.4824 27.9919 15.0403L47.5299 19.3142C47.7383 18.3615 47.8462 17.3799 47.8462 16.3846H27.8462ZM34.1538 22.6923C30.6702 22.6923 27.8462 19.8683 27.8462 16.3846H47.8462C47.8462 8.82256 41.7159 2.69231 34.1538 2.69231V22.6923ZM40.4615 16.3846C40.4615 19.8683 37.6375 22.6923 34.1538 22.6923V2.69231C26.5918 2.69231 20.4615 8.82256 20.4615 16.3846H40.4615ZM32.6757 29.1015C33.0684 28.7509 33.4982 28.4448 33.9564 28.1899L24.234 10.7121C22.476 11.69 20.8412 12.8562 19.3558 14.1824L32.6757 29.1015ZM25.6923 27C25.6923 30.2287 23.0749 32.8462 19.8462 32.8462V12.8462C12.0292 12.8462 5.69231 19.183 5.69231 27H25.6923ZM19.8462 21.1538C23.0749 21.1538 25.6923 23.7713 25.6923 27H5.69231C5.69231 34.817 12.0292 41.1538 19.8462 41.1538V21.1538ZM30.3077 34.3846C30.3077 34.0182 30.3347 33.6644 30.3853 33.3236L10.6023 30.3856C10.4077 31.6959 10.3077 33.0317 10.3077 34.3846H30.3077ZM22 44.0769C22 44.2618 21.9219 44.4535 21.8098 44.5831C21.708 44.7008 21.5455 44.8054 21.3365 44.8376L18.2882 25.0713C9.06159 26.4942 2 34.4517 2 44.0769H22ZM21.5947 43.4013C21.7168 43.4655 21.8112 43.5552 21.8797 43.6662C21.9572 43.7918 22 43.9447 22 44.0769H2C2 51.4868 6.19368 57.9011 12.2902 61.1052L21.5947 43.4013ZM21.2308 47C24.7144 47 27.5385 49.8241 27.5385 53.3077H7.53846C7.53846 60.8697 13.6687 67 21.2308 67V47ZM14.9231 53.3077C14.9231 49.8241 17.7471 47 21.2308 47V67C28.7928 67 34.9231 60.8697 34.9231 53.3077H14.9231ZM20.7468 43.4795C20.7822 43.4512 20.8221 43.4248 20.8669 43.4013L30.1712 61.1052C31.2527 60.5369 32.2712 59.8699 33.2152 59.1171L20.7468 43.4795ZM37.3846 41.4615C36.5069 41.4615 35.6879 41.3063 34.9389 41.0304L28.0269 59.7981C30.9564 60.877 34.1135 61.4615 37.3846 61.4615V41.4615ZM39.3551 41.1863C38.7413 41.3633 38.0829 41.4615 37.3846 41.4615V61.4615C39.9772 61.4615 42.501 61.0943 44.8985 60.4027L39.3551 41.1863ZM43.5385 47.7692C43.5385 44.2856 46.3625 41.4615 49.8462 41.4615V61.4615C57.4082 61.4615 63.5385 55.3313 63.5385 47.7692H43.5385ZM45.5605 52.3974C44.3303 51.2586 43.5385 49.5988 43.5385 47.7692H63.5385C63.5385 43.7974 61.8344 40.2086 59.1473 37.7209L45.5605 52.3974ZM55.8462 33.1538C56.0638 33.1538 56.293 33.1896 56.5167 33.2631L50.2717 52.2631C52.0383 52.8438 53.916 53.1538 55.8462 53.1538V33.1538ZM53.6923 35.3077C53.6923 34.1182 54.6566 33.1538 55.8462 33.1538V53.1538C65.7023 53.1538 73.6923 45.1638 73.6923 35.3077H53.6923ZM55.8462 37.4615C54.6566 37.4615 53.6923 36.4972 53.6923 35.3077H73.6923C73.6923 25.4515 65.7023 17.4615 55.8462 17.4615V37.4615ZM42.3488 29.3408C42.7673 29.7529 43.1338 30.2147 43.4383 30.7144L60.5168 20.3064C59.3529 18.3965 57.9609 16.645 56.3796 15.0882L42.3488 29.3408ZM39.9731 14.9293C40.0607 14.5891 40.1908 14.2678 40.3552 13.9726L57.8281 23.7038C58.4826 22.5286 58.9953 21.2591 59.3403 19.9204L39.9731 14.9293ZM59.8462 19.1538C59.8462 19.3392 59.8252 19.5317 59.7814 19.7248L40.2757 15.3058C39.9932 16.5529 39.8462 17.8423 39.8462 19.1538H59.8462ZM57.2308 16.5385C58.6752 16.5385 59.8462 17.7094 59.8462 19.1538H39.8462C39.8462 28.7551 47.6295 36.5385 57.2308 36.5385V16.5385ZM54.6154 19.1538C54.6154 17.7094 55.7863 16.5385 57.2308 16.5385V36.5385C66.832 36.5385 74.6154 28.7551 74.6154 19.1538H54.6154ZM57.2308 21.7692C55.7863 21.7692 54.6154 20.5983 54.6154 19.1538H74.6154C74.6154 9.55259 66.832 1.76923 57.2308 1.76923V21.7692ZM50.3077 19C48.9474 19 47.6708 18.523 46.6754 17.7344L59.0948 2.05774C56.6829 0.147047 53.6154 -1 50.3077 -1V19ZM51.3634 18.9031C51.0138 18.9676 50.6601 19 50.3077 19V-1C49.4373 -1 48.5767 -0.920232 47.7353 -0.765022L51.3634 18.9031ZM48.7957 27.2271C43.1753 26.6253 38.9319 21.2374 40.2757 15.3058L59.7814 19.7248C61.1755 13.5714 56.7716 7.96672 50.925 7.34072L48.7957 27.2271ZM59.3403 19.9204C58.1214 24.6499 53.6213 27.7437 48.7957 27.2271L50.925 7.34072C45.9125 6.80403 41.2388 10.0177 39.9731 14.9293L59.3403 19.9204ZM56.3796 15.0882C58.0747 16.7569 58.5939 18.7151 58.6684 20.0447C58.7414 21.3464 58.4464 22.5936 57.8281 23.7038L40.3552 13.9726C38.3232 17.6211 37.3083 24.3787 42.3488 29.3408L56.3796 15.0882ZM60.5167 48.4629C58.1881 52.2839 53.7791 53.4159 50.2717 52.2631L56.5167 33.2631C51.952 31.7628 46.3461 33.2835 43.4383 38.0549L60.5167 48.4629ZM33.2152 59.1171C32.6688 59.5528 32.0023 59.8881 31.2098 60.056C30.4009 60.2273 29.271 60.2563 28.0269 59.7981L34.9389 41.0304C29.4837 39.0213 24.1297 40.7821 20.7468 43.4795L33.2152 59.1171ZM34.9231 53.3077C34.9231 55.918 33.6335 59.2856 30.1712 61.1052L20.8669 43.4013C16.6404 45.6225 14.9231 49.8342 14.9231 53.3077H34.9231ZM57.2308 1.76923C57.8724 1.76923 58.3567 1.86647 58.6438 1.94261C58.9335 2.01943 59.1126 2.09864 59.1766 2.12859C59.2781 2.17612 59.2254 2.16122 59.0948 2.05774L46.6754 17.7344C48.3209 19.0381 52.2282 21.7692 57.2308 21.7692V1.76923ZM12.2902 61.1052C8.82856 59.2859 7.53846 55.9188 7.53846 53.3077H27.5385C27.5385 49.8334 25.8205 45.6222 21.5947 43.4013L12.2902 61.1052ZM43.8462 19.9231C46.8762 19.9231 50.5827 19.0472 51.3634 18.9031L47.7353 -0.765022C47.1939 -0.665148 46.6323 -0.551178 46.1957 -0.463683C45.722 -0.368752 45.3341 -0.292401 44.9698 -0.228068C44.6096 -0.16444 44.3373 -0.124386 44.1277 -0.100669C43.915 -0.0766068 43.8311 -0.0769234 43.8462 -0.0769234V19.9231ZM44.8985 60.4027C44.0548 60.6461 43.4851 60.6119 43.4637 60.6108C43.4423 60.6098 43.6009 60.6184 44.1443 60.7182C44.4088 60.7668 44.6703 60.8187 45.0425 60.8916C45.3827 60.9583 45.8124 61.0418 46.2607 61.1193C47.1087 61.2659 48.4034 61.4615 49.8462 61.4615V41.4615C50.11 41.4615 50.1335 41.4921 49.667 41.4115C48.9101 41.2807 48.9805 41.2721 47.7594 41.0477C46.9509 40.8991 45.7634 40.7 44.4506 40.6352C43.1379 40.5703 41.3316 40.6161 39.3551 41.1863L44.8985 60.4027ZM19.8462 41.1538C15.0775 41.1538 9.62436 36.9705 10.6023 30.3856L30.3853 33.3236C31.4738 25.9947 25.3669 21.1538 19.8462 21.1538V41.1538ZM55.8462 17.4615C56.4951 17.4615 57.2156 17.5939 57.9684 17.9554C58.7387 18.3253 59.748 19.0448 60.5168 20.3064L43.4383 30.7144C46.5209 35.7725 51.8817 37.4615 55.8462 37.4615V17.4615ZM19.3558 14.1824C20.1974 13.431 20.986 13.0909 21.3846 12.9504C21.7755 12.8125 21.9865 12.7976 21.8907 12.8094C21.8082 12.8196 21.613 12.8362 21.2368 12.8436C21.056 12.8471 20.8584 12.8482 20.6233 12.848C20.5052 12.8479 20.3876 12.8475 20.256 12.847C20.1293 12.8466 19.9878 12.8462 19.8462 12.8462V32.8462C20.4848 32.8462 22.4566 32.8918 24.3448 32.6583C26.1084 32.4403 29.6477 31.8049 32.6757 29.1015L19.3558 14.1824ZM10.3077 34.3846C10.3077 29.5725 13.8562 25.7548 18.2882 25.0713L21.3365 44.8376C26.3323 44.0672 30.3077 39.7671 30.3077 34.3846H10.3077ZM59.1473 37.7209C60.3138 38.8008 61.185 40.229 61.5803 41.8966C61.9885 43.6189 61.9672 46.0829 60.5167 48.4629L43.4383 38.0549C39.816 43.9986 42.8364 49.8755 45.5605 52.3974L59.1473 37.7209ZM38.1437 7.3182C44.5325 7.49528 48.8138 13.4446 47.5299 19.3142L27.9919 15.0403C26.6779 21.0471 31.0604 27.1296 37.5896 27.3105L38.1437 7.3182ZM20.4615 16.3846C20.4615 15.9997 20.5086 15.3454 20.8399 14.4979C21.1651 13.6658 22.075 11.913 24.234 10.7121L33.9564 28.1899C37.116 26.4323 38.7091 23.7189 39.4674 21.7791C40.2317 19.8238 40.4615 17.9146 40.4615 16.3846H20.4615ZM28.1975 19.2634C26.89 13.127 31.6139 7.13721 38.1437 7.3182L37.5896 27.3105C44.2631 27.4955 49.0958 21.3726 47.7584 15.0956L28.1975 19.2634Z" fill="#B3FFD1"/>
</g>
<circle cx="57.2303" cy="19.1537" r="7.38462" fill="#B3FFD1"/>
<circle cx="50.3081" cy="13.1538" r="4.15385" fill="#B3FFD1"/>
<circle cx="49.8466" cy="47.7695" r="3.69231" fill="#204ECF"/>
<circle opacity="0.8" cx="19.8462" cy="27" r="4.15385" fill="#EA9836"/>
<circle cx="55.8462" cy="35.3076" r="7.84615" fill="#F9A197"/>
<circle cx="43.8457" cy="15.9229" r="6" fill="#204ECF"/>
<circle cx="21.2304" cy="53.3075" r="3.69231" fill="#204ECF"/>
<circle cx="21.2308" cy="44.077" r="9.23077" fill="#204ECF"/>
<circle cx="37.3845" cy="34.3845" r="17.0769" fill="#8AA4EC"/>
<circle cx="34.1542" cy="16.3847" r="3.69231" fill="#F9A197"/>
</g>
<defs>
<filter id="filter0_f_2380_211" x="-28" y="-31" width="132.615" height="128" filterUnits="userSpaceOnUse" color-interpolation-filters="sRGB">
<feFlood flood-opacity="0" result="BackgroundImageFix"/>
<feBlend mode="normal" in="SourceGraphic" in2="BackgroundImageFix" result="shape"/>
<feGaussianBlur stdDeviation="15" result="effect1_foregroundBlur_2380_211"/>
</filter>
</defs>
</svg>
