<svg width="94" height="56" viewBox="0 0 94 56" fill="none" xmlns="http://www.w3.org/2000/svg">
<mask id="mask0_1110_934" style="mask-type:alpha" maskUnits="userSpaceOnUse" x="0" y="0" width="94" height="56">
<path d="M0 27.8445C0 22.5964 1.06954 18.0044 3.20863 14.0684C5.34772 10.0633 8.31485 6.85231 12.11 4.43545C15.9052 2.01859 20.3213 0.56847 25.3586 0.0851004C30.3958 -0.467326 41.1075 1.78508 46.8347 3.51141C46.8347 6.13543 46.8347 8.79398 46.8347 11.4871C46.8347 14.1801 46.8347 16.8387 46.8347 19.4627C42.8325 17.5292 33.6734 14.9661 30.0163 15.1042C26.3591 15.2423 23.3575 16.3816 21.0114 18.5223C18.6653 20.5939 17.4922 23.7013 17.4922 27.8445C17.4922 31.9877 18.6653 35.1296 21.0114 37.2702C23.3575 39.3418 26.3591 40.4467 30.0163 40.5848C33.6734 40.6538 42.8046 37.6355 46.8067 35.7711C51.7958 48.7526 51.7958 48.7526 51.7958 48.7526C51.7958 48.7526 50.2053 49.6012 45.7464 51.7224C40.0185 54.4472 30.3958 56.1563 25.3586 55.6038C20.3213 55.1205 15.9052 53.6704 12.11 51.2535C8.31485 48.8366 5.34772 45.6602 3.20863 41.7242C1.06954 37.7191 0 33.0925 0 27.8445Z" fill="#2F50C8"/>
<path d="M93.4326 27.8767C93.4326 22.6287 92.3631 18.0366 90.224 14.1006C88.0849 10.0955 85.1178 6.88453 81.3226 4.46767C77.5275 2.05081 73.1113 0.600697 68.0741 0.117327C63.0368 -0.435099 52.4084 1.81731 46.6812 3.54364C46.6812 6.16766 46.6812 8.82621 46.6812 11.5193C46.6812 14.2124 46.6812 16.8709 46.6812 19.4949C50.6834 17.5614 59.7592 14.9983 63.4164 15.1364C67.0735 15.2745 70.0751 16.4139 72.4212 18.5545C74.7673 20.6261 75.9404 23.7335 75.9404 27.8767C75.9404 32.0199 74.7673 35.1618 72.4212 37.3024C70.0751 39.374 67.0735 40.4789 63.4164 40.617C59.7592 40.6861 50.628 37.6678 46.6259 35.8033C41.6368 48.7849 41.6368 48.7849 41.6368 48.7849C41.6368 48.7849 43.2273 49.6335 47.6862 51.7546C53.4141 54.4795 63.0368 56.1885 68.0741 55.6361C73.1113 55.1527 77.5275 53.7026 81.3226 51.2857C85.1178 48.8689 88.0849 45.6924 90.224 41.7564C92.3631 37.7513 93.4326 33.1247 93.4326 27.8767Z" fill="#2F50C8"/>
</mask>
<g mask="url(#mask0_1110_934)">
<path d="M0 27.8445C0 22.5964 1.06954 18.0044 3.20863 14.0684C5.34772 10.0633 8.31485 6.85231 12.11 4.43545C15.9052 2.01859 20.3213 0.56847 25.3586 0.0851004C30.3958 -0.467326 41.1075 1.78508 46.8347 3.51141C46.8347 6.13543 46.8347 8.79398 46.8347 11.4871C46.8347 14.1801 46.8347 16.8387 46.8347 19.4627C42.8325 17.5292 33.6734 14.9661 30.0163 15.1042C26.3591 15.2423 23.3575 16.3816 21.0114 18.5223C18.6653 20.5939 17.4922 23.7013 17.4922 27.8445C17.4922 31.9877 18.6653 35.1296 21.0114 37.2702C23.3575 39.3418 26.3591 40.4467 30.0163 40.5848C33.6734 40.6538 42.8046 37.6355 46.8067 35.7711C51.7958 48.7526 51.7958 48.7526 51.7958 48.7526C51.7958 48.7526 50.2053 49.6012 45.7464 51.7224C40.0185 54.4472 30.3958 56.1563 25.3586 55.6038C20.3213 55.1205 15.9052 53.6704 12.11 51.2535C8.31485 48.8366 5.34772 45.6602 3.20863 41.7242C1.06954 37.7191 0 33.0925 0 27.8445Z" fill="#A5B6E3"/>
<path d="M93.4326 27.8767C93.4326 22.6287 92.3631 18.0366 90.224 14.1006C88.0849 10.0955 85.1178 6.88453 81.3226 4.46767C77.5275 2.05081 73.1113 0.600697 68.0741 0.117327C63.0368 -0.435099 52.4084 1.81731 46.6812 3.54364C46.6812 6.16766 46.6812 8.82621 46.6812 11.5193C46.6812 14.2124 46.6812 16.8709 46.6812 19.4949C50.6834 17.5614 59.7592 14.9983 63.4164 15.1364C67.0735 15.2745 70.0751 16.4139 72.4212 18.5545C74.7673 20.6261 75.9404 23.7335 75.9404 27.8767C75.9404 32.0199 74.7673 35.1618 72.4212 37.3024C70.0751 39.374 67.0735 40.4789 63.4164 40.617C59.7592 40.6861 50.628 37.6678 46.6259 35.8033C41.6368 48.7849 41.6368 48.7849 41.6368 48.7849C41.6368 48.7849 43.2273 49.6335 47.6862 51.7546C53.4141 54.4795 63.0368 56.1885 68.0741 55.6361C73.1113 55.1527 77.5275 53.7026 81.3226 51.2857C85.1178 48.8689 88.0849 45.6924 90.224 41.7564C92.3631 37.7513 93.4326 33.1247 93.4326 27.8767Z" fill="#A5B6E3"/>
<g filter="url(#filter0_f_1110_934)">
<path d="M79.4605 66.6498C48.3126 88.2549 16.0598 95.674 7.42189 83.2208C-1.21601 70.7676 -44.8741 16.523 37.1147 5.60008C68.2627 -16.005 108.786 -66.5592 120.219 4.98183C128.856 17.435 110.608 45.0448 79.4605 66.6498Z" fill="url(#paint0_linear_1110_934)"/>
</g>
<g filter="url(#filter1_f_1110_934)">
<path d="M-3.5222 89.647C-50.4348 73.3112 -14.0635 48.9505 -6.97594 35.7179C0.111625 22.4853 25.4352 15.986 34.1053 31.4811C49.1709 45.8325 33.1318 56.9478 26.0442 70.1804C18.1583 95.399 10.6026 97.7785 -3.5222 89.647Z" fill="url(#paint1_linear_1110_934)"/>
</g>
</g>
<defs>
<filter id="filter0_f_1110_934" x="-61.9102" y="-81.975" width="234.272" height="221.237" filterUnits="userSpaceOnUse" color-interpolation-filters="sRGB">
<feFlood flood-opacity="0" result="BackgroundImageFix"/>
<feBlend mode="normal" in="SourceGraphic" in2="BackgroundImageFix" result="shape"/>
<feGaussianBlur stdDeviation="25" result="effect1_foregroundBlur_1110_934"/>
</filter>
<filter id="filter1_f_1110_934" x="-77.1011" y="-27.5379" width="167.449" height="171.359" filterUnits="userSpaceOnUse" color-interpolation-filters="sRGB">
<feFlood flood-opacity="0" result="BackgroundImageFix"/>
<feBlend mode="normal" in="SourceGraphic" in2="BackgroundImageFix" result="shape"/>
<feGaussianBlur stdDeviation="25" result="effect1_foregroundBlur_1110_934"/>
</filter>
<linearGradient id="paint0_linear_1110_934" x1="114.686" y1="-2.99458" x2="1.88936" y2="75.2444" gradientUnits="userSpaceOnUse">
<stop stop-color="#EA9836"/>
<stop offset="0.635417" stop-color="#8AA4EC"/>
</linearGradient>
<linearGradient id="paint1_linear_1110_934" x1="29.579" y1="62.5925" x2="-7.08584" y2="42.9543" gradientUnits="userSpaceOnUse">
<stop stop-color="#83A5F2"/>
<stop offset="0.588542" stop-color="#2C4DC7"/>
</linearGradient>
</defs>
</svg>
