<svg id="Layer_1" data-nam="Layer 1" xmlns="http://www.w3.org/2000/svg" viewBox="0 0 44 44"><defs><style>.cls-1{fill:#fff;}.cls-2{fill:#111284;}</style></defs><title>scheduling icons</title><path class="cls-1" d="M41.8,22A19.8,19.8,0,1,0,22,41.8,19.79,19.79,0,0,0,41.8,22Z"/><path class="cls-2" d="M33.75,21.12H22.88V10.25a.88.88,0,1,0-1.75,0V21.12H10.25a.88.88,0,1,0,0,1.75H21.13V33.75a.88.88,0,1,0,1.75,0V22.87H33.75a.88.88,0,1,0,0-1.75Z"/><path class="cls-2" d="M42,22A20,20,0,1,0,22,42,20,20,0,0,0,42,22ZM22,40.25A18.25,18.25,0,1,1,40.25,22,18.27,18.27,0,0,1,22,40.25Z"/></svg>
