<svg width="14" height="14" viewBox="0 0 14 14" fill="none" xmlns="http://www.w3.org/2000/svg">
    <path d="M11.9219 1.64062H9.00952C8.81896 0.705687 7.99039 0 7 0C6.00964 0 5.18104 0.705687 4.99048 1.64062H2.07812C1.39964 1.64062 0.847656 2.19261 0.847656 2.87109V3.69141C0.847656 3.91792 1.0313 4.10156 1.25781 4.10156H1.70054L2.427 12.8717C2.47975 13.5044 3.01837 14 3.65323 14H10.3468C10.9817 14 11.5203 13.5044 11.573 12.8715L12.2995 4.10156H12.7422C12.9687 4.10156 13.1523 3.91792 13.1523 3.69141V2.87109C13.1523 2.19261 12.6004 1.64062 11.9219 1.64062ZM7 0.820312C7.53473 0.820312 7.99091 1.16318 8.1602 1.64062H5.8398C6.00909 1.16318 6.46527 0.820312 7 0.820312ZM10.7555 12.8036C10.7379 13.0145 10.5584 13.1797 10.3468 13.1797H3.65323C3.44162 13.1797 3.26205 13.0145 3.2445 12.8038L2.52366 4.10156H11.4763L10.7555 12.8036ZM12.332 3.28125H1.66797V2.87109C1.66797 2.64493 1.85196 2.46094 2.07812 2.46094C2.50802 2.46094 11.6511 2.46094 11.9219 2.46094C12.148 2.46094 12.332 2.64493 12.332 2.87109V3.28125Z" fill="#C3C4C6"/>
</svg>
