<svg id="Layer_1" data-name="Layer 1" xmlns="http://www.w3.org/2000/svg" viewBox="0 0 44 44"><defs><style>.cls-1{fill:#183284;}</style></defs><title>scheduling icons</title><path class="cls-1" d="M39.51,4.05H36.64a3.79,3.79,0,0,0-7.38,0H14.2a3.79,3.79,0,0,0-7.38,0H4.49A2.88,2.88,0,0,0,1.61,6.93V40a2.88,2.88,0,0,0,2.88,2.88h35A2.88,2.88,0,0,0,42.39,40V6.93A2.88,2.88,0,0,0,39.51,4.05Zm1.13,36a1.13,1.13,0,0,1-1.13,1.12h-35A1.13,1.13,0,0,1,3.36,40V14.58H40.64Zm0-27.17H3.36V6.93A1.14,1.14,0,0,1,4.49,5.8h6a.88.88,0,1,0,0-1.75H8.66A2,2,0,1,1,10.51,7a.88.88,0,0,0,0,1.75A3.8,3.8,0,0,0,14.2,5.8H33a.88.88,0,0,0,0-1.75H31.1A2,2,0,1,1,33,7a.88.88,0,1,0,0,1.75A3.8,3.8,0,0,0,36.64,5.8h2.87a1.14,1.14,0,0,1,1.13,1.13Z"/><path class="cls-1" d="M10.78,27a3.56,3.56,0,1,0-3.55-3.56A3.56,3.56,0,0,0,10.78,27Zm0-5.86a2.31,2.31,0,1,1-2.3,2.3A2.3,2.3,0,0,1,10.78,21.16Z"/><path class="cls-1" d="M22,27a3.56,3.56,0,1,0-3.55-3.56A3.56,3.56,0,0,0,22,27Zm0-5.86a2.31,2.31,0,1,1-2.3,2.3A2.3,2.3,0,0,1,22,21.16Z"/><path class="cls-1" d="M33.22,27a3.56,3.56,0,1,0-3.55-3.56A3.56,3.56,0,0,0,33.22,27Zm0-5.86a2.31,2.31,0,1,1-2.3,2.3A2.3,2.3,0,0,1,33.22,21.16Z"/><path class="cls-1" d="M10.78,36.77a3.55,3.55,0,1,0-3.55-3.55A3.55,3.55,0,0,0,10.78,36.77Zm0-5.85a2.3,2.3,0,1,1-2.3,2.3A2.3,2.3,0,0,1,10.78,30.92Z"/><path class="cls-1" d="M22,36.77a3.55,3.55,0,1,0-3.55-3.55A3.55,3.55,0,0,0,22,36.77Zm0-5.85a2.3,2.3,0,1,1-2.3,2.3A2.3,2.3,0,0,1,22,30.92Z"/><path class="cls-1" d="M33.22,36.77a3.55,3.55,0,1,0-3.55-3.55A3.55,3.55,0,0,0,33.22,36.77Zm0-5.85a2.3,2.3,0,1,1-2.3,2.3A2.3,2.3,0,0,1,33.22,30.92Z"/></svg>
