<?xml version="1.0" encoding="utf-8"?>
<!-- Generator: Adobe Illustrator 22.1.0, SVG Export Plug-In . SVG Version: 6.00 Build 0)  -->
<svg version="1.1" id="Layer_1" xmlns="http://www.w3.org/2000/svg" xmlns:xlink="http://www.w3.org/1999/xlink" x="0px" y="0px"
	 viewBox="0 0 26 26" style="enable-background:new 0 0 26 26;" xml:space="preserve">
<style type="text/css">
	.st0{fill:#183284;}
</style>
<path class="st0" d="M22.2,3.8c-5.1-5.1-13.3-5.1-18.4,0c-5.1,5.1-5.1,13.3,0,18.4c5.1,5.1,13.3,5.1,18.4,0
	C27.3,17.1,27.3,8.9,22.2,3.8C22.2,3.8,22.2,3.8,22.2,3.8z M18.9,18.1l-0.7,0.7L13,13.7l-5.1,5.1l-0.7-0.7l5.1-5.1L7.1,7.9l0.7-0.7
	l5.1,5.1l5.1-5.1l0.7,0.7L13.7,13L18.9,18.1z"/>
</svg>
