<svg width="127" height="122" viewBox="0 0 127 122" fill="none" xmlns="http://www.w3.org/2000/svg">
<g filter="url(#filter0_f_1741_6771)">
<path fill-rule="evenodd" clip-rule="evenodd" d="M74.5501 37.069C72.7651 37.3982 70.6608 37.9231 68.8457 37.9231C65.532 37.9231 62.8457 40.6094 62.8457 43.9231C62.8457 44.3542 62.8912 44.7746 62.9775 45.1799C62.9925 45.25 62.9382 45.3163 62.8666 45.3144C62.7966 45.3124 62.7462 45.2461 62.7612 45.1777C62.8171 44.9222 62.8465 44.6569 62.8465 44.3847C62.8465 42.3455 61.1934 40.6924 59.1542 40.6924C57.115 40.6924 55.4619 42.3455 55.4619 44.3847C55.4619 45.5297 55.0963 46.8942 54.0956 47.4508C52.9874 48.0672 51.9549 48.8034 51.0157 49.6419C49.5527 50.9481 46.8074 50.8462 44.8462 50.8462C42.552 50.8462 40.6923 52.7059 40.6923 55C40.6923 57.2941 42.552 59.1538 44.8462 59.1538C45.2222 59.1538 45.5491 59.4826 45.4938 59.8546C45.3712 60.6801 45.3077 61.525 45.3077 62.3846C45.3077 62.6698 45.0942 62.911 44.8124 62.9545C40.3877 63.6368 37 67.4612 37 72.0769C37 75.6267 39.0038 78.7085 41.9419 80.253C42.3241 80.4538 42.5381 80.876 42.5381 81.3078C42.5381 83.347 44.1912 85.0001 46.2304 85.0001C48.2696 85.0001 49.9227 83.347 49.9227 81.3078C49.9227 80.8762 50.1366 80.4542 50.5186 80.2535C51.0371 79.981 51.5265 79.6607 51.9809 79.2984C53.236 78.2977 54.9768 77.8596 56.483 78.4143C58.3223 79.0917 60.3103 79.4615 62.3846 79.4615C64.0302 79.4615 65.6213 79.2288 67.127 78.7944C69.3926 78.1409 72.4887 79.4615 74.8466 79.4615C76.8858 79.4615 78.5389 77.8084 78.5389 75.7692C78.5389 74.698 78.0827 73.7333 77.354 73.0588C76.8613 72.6028 76.6282 71.8321 76.9776 71.2588C77.2672 70.7836 77.8655 70.5893 78.3941 70.7631C79.1656 71.0167 79.9898 71.1538 80.8462 71.1538C85.1795 71.1538 88.6923 67.641 88.6923 63.3077C88.6923 58.9744 85.1795 55.4615 80.8462 55.4615C79.3343 55.4615 77.7643 54.8013 76.9775 53.5104C76.2432 52.3054 75.3639 51.1986 74.3637 50.2141C73.5021 49.3659 73.5028 47.8946 74.0911 46.8383C74.3363 46.3982 74.5276 45.9241 74.6562 45.4248C74.6797 45.3337 74.7665 45.2738 74.86 45.2838C74.973 45.2959 75.0533 45.4043 75.0282 45.5152C74.9087 46.0423 74.8457 46.5907 74.8457 47.1539C74.8457 51.2323 78.1519 54.5385 82.2303 54.5385C86.3087 54.5385 89.6149 51.2323 89.6149 47.1539C89.6149 43.0755 86.3087 39.7693 82.2303 39.7693C80.7191 39.7693 79.0704 38.835 77.886 37.8965C77.1777 37.3352 76.2821 37 75.3081 37C75.0492 37 74.7959 37.0237 74.5501 37.069Z" fill="#F9A197"/>
<path d="M75.0282 45.5152L81.8551 47.062L75.0282 45.5152ZM74.6562 45.4248L67.8777 43.678L74.6562 45.4248ZM74.3637 50.2141L79.2744 45.2255L74.3637 50.2141ZM74.0911 46.8383L67.9757 43.4323L74.0911 46.8383ZM78.3941 70.7631L76.2082 77.413L78.3941 70.7631ZM51.9809 79.2984L47.617 73.8251L51.9809 79.2984ZM56.483 78.4143L54.0639 84.983L56.483 78.4143ZM77.886 37.8965L82.2336 32.4103L77.886 37.8965ZM41.9419 80.253L38.685 86.4491L41.9419 80.253ZM74.5501 37.069L73.2806 30.1851L74.5501 37.069ZM67.127 78.7944L69.0673 85.5202L67.127 78.7944ZM45.4938 59.8546L52.4179 60.8829L45.4938 59.8546ZM76.9775 53.5104L71.0001 57.1532L76.9775 53.5104ZM44.8124 62.9545L43.7455 56.0362L44.8124 62.9545ZM77.354 73.0588L82.1088 67.9215L77.354 73.0588ZM62.7612 45.1777L55.923 43.6812L62.7612 45.1777ZM62.9775 45.1799L69.8238 43.7207L62.9775 45.1799ZM69.8457 43.9231C69.8457 44.4754 69.398 44.9231 68.8457 44.9231V30.9231C61.666 30.9231 55.8457 36.7434 55.8457 43.9231H69.8457ZM69.8238 43.7207C69.839 43.7921 69.8457 43.8607 69.8457 43.9231H55.8457C55.8457 44.8476 55.9433 45.7571 56.1313 46.6391L69.8238 43.7207ZM55.8465 44.3847C55.8465 44.1505 55.872 43.9141 55.923 43.6812L69.5993 46.6742C69.7621 45.9303 69.8465 45.1633 69.8465 44.3847H55.8465ZM59.1542 47.6924C57.3274 47.6924 55.8465 46.2115 55.8465 44.3847H69.8465C69.8465 38.4795 65.0594 33.6924 59.1542 33.6924V47.6924ZM62.4619 44.3847C62.4619 46.2115 60.981 47.6924 59.1542 47.6924V33.6924C53.249 33.6924 48.4619 38.4795 48.4619 44.3847H62.4619ZM55.6777 54.8636C56.2344 54.3666 56.845 53.9315 57.4983 53.5681L50.6929 41.3334C49.1297 42.2029 47.6754 43.2403 46.3538 44.4203L55.6777 54.8636ZM47.6923 55C47.6923 56.5719 46.418 57.8462 44.8462 57.8462V43.8462C38.6861 43.8462 33.6923 48.8399 33.6923 55H47.6923ZM44.8462 52.1538C46.418 52.1538 47.6923 53.4281 47.6923 55H33.6923C33.6923 61.1601 38.6861 66.1538 44.8462 66.1538V52.1538ZM52.3077 62.3846C52.3077 61.8703 52.3457 61.3691 52.4179 60.8829L38.5698 58.8263C38.3968 59.9912 38.3077 61.1797 38.3077 62.3846H52.3077ZM44 72.0769C44 70.9679 44.816 70.0366 45.8793 69.8727L43.7455 56.0362C35.9594 57.237 30 63.9546 30 72.0769H44ZM45.1989 74.0568C44.4712 73.6743 44 72.925 44 72.0769H30C30 78.3285 33.5364 83.7428 38.685 86.4491L45.1989 74.0568ZM46.2304 78.0001C48.0572 78.0001 49.5381 79.481 49.5381 81.3078H35.5381C35.5381 87.213 40.3252 92.0001 46.2304 92.0001V78.0001ZM42.9227 81.3078C42.9227 79.481 44.4036 78.0001 46.2304 78.0001V92.0001C52.1356 92.0001 56.9227 87.213 56.9227 81.3078H42.9227ZM47.617 73.8251C47.5055 73.9141 47.3866 73.9917 47.2624 74.0569L53.7748 86.45C54.6875 85.9704 55.5474 85.4074 56.3447 84.7717L47.617 73.8251ZM62.3846 72.4615C61.1479 72.4615 59.9783 72.2419 58.9022 71.8456L54.0639 84.983C56.6663 85.9414 59.4726 86.4615 62.3846 86.4615V72.4615ZM65.1868 72.0687C64.3054 72.323 63.3671 72.4615 62.3846 72.4615V86.4615C64.6932 86.4615 66.9373 86.1346 69.0673 85.5202L65.1868 72.0687ZM71.5389 75.7692C71.5389 73.9424 73.0198 72.4615 74.8466 72.4615V86.4615C80.7518 86.4615 85.5389 81.6744 85.5389 75.7692H71.5389ZM72.5992 78.1961C71.9565 77.6013 71.5389 76.7288 71.5389 75.7692H85.5389C85.5389 72.6672 84.2089 69.8652 82.1088 67.9215L72.5992 78.1961ZM80.8462 64.1538C80.7416 64.1538 80.6548 64.1377 80.58 64.1131L76.2082 77.413C77.6763 77.8956 79.2381 78.1538 80.8462 78.1538V64.1538ZM81.6923 63.3077C81.6923 63.775 81.3135 64.1538 80.8462 64.1538V78.1538C89.0455 78.1538 95.6923 71.507 95.6923 63.3077H81.6923ZM80.8462 62.4615C81.3135 62.4615 81.6923 62.8404 81.6923 63.3077H95.6923C95.6923 55.1084 89.0455 48.4615 80.8462 48.4615V62.4615ZM69.4531 55.2027C70.0462 55.7865 70.5666 56.4418 71.0001 57.1532L82.955 49.8676C81.9199 48.169 80.6815 46.6107 79.2744 45.2255L69.4531 55.2027ZM67.8777 43.678C67.9005 43.5896 67.9341 43.5069 67.9757 43.4323L80.2066 50.2443C80.7384 49.2895 81.1547 48.2585 81.4348 47.1715L67.8777 43.678ZM81.8457 47.1539C81.8457 47.1147 81.8499 47.085 81.8551 47.062L68.2012 43.9684C67.9676 44.9996 67.8457 46.0668 67.8457 47.1539H81.8457ZM82.2303 47.5385C82.0179 47.5385 81.8457 47.3663 81.8457 47.1539H67.8457C67.8457 55.0983 74.2859 61.5385 82.2303 61.5385V47.5385ZM82.6149 47.1539C82.6149 47.3663 82.4427 47.5385 82.2303 47.5385V61.5385C90.1747 61.5385 96.6149 55.0983 96.6149 47.1539H82.6149ZM82.2303 46.7693C82.4427 46.7693 82.6149 46.9415 82.6149 47.1539H96.6149C96.6149 39.2095 90.1747 32.7693 82.2303 32.7693V46.7693ZM75.3081 44C74.6479 44 74.0228 43.7665 73.5384 43.3827L82.2336 32.4103C80.3327 30.9039 77.9163 30 75.3081 30V44ZM75.8195 43.9529C75.6486 43.9845 75.4771 44 75.3081 44V30C74.6214 30 73.9431 30.0629 73.2806 30.1851L75.8195 43.9529ZM74.1134 52.2439C70.2135 51.8255 67.2681 48.0867 68.2012 43.9684L81.8551 47.062C82.8385 42.7219 79.7326 38.7663 75.6066 38.3237L74.1134 52.2439ZM81.4348 47.1715C80.5886 50.4555 77.4636 52.6033 74.1134 52.2439L75.6066 38.3237C72.0694 37.9443 68.7709 40.2119 67.8777 43.678L81.4348 47.1715ZM79.2744 45.2255C80.3317 46.2664 80.6307 47.4631 80.6727 48.2123C80.7136 48.9418 80.5513 49.6254 80.2066 50.2443L67.9757 43.4323C66.3767 46.3033 65.6662 51.475 69.4531 55.2027L79.2744 45.2255ZM82.9551 74.9016C81.4119 77.4338 78.5049 78.168 76.2082 77.413L80.58 64.1131C77.226 63.0107 73.1224 64.1335 71.0001 67.616L82.9551 74.9016ZM56.3447 84.7717C56.1506 84.9265 55.9087 85.0533 55.5882 85.1212C55.2561 85.1915 54.7088 85.2205 54.0639 84.983L58.9022 71.8456C54.6316 70.2728 50.3616 71.6369 47.617 73.8251L56.3447 84.7717ZM56.9227 81.3078C56.9227 83.0057 56.084 85.2366 53.7748 86.45L47.2624 74.0569C44.1891 75.6719 42.9227 78.7467 42.9227 81.3078H56.9227ZM82.2303 32.7693C82.5661 32.7693 82.7893 32.8198 82.8748 32.8425C82.9621 32.8656 82.9722 32.8773 82.9047 32.8457C82.8404 32.8156 82.7404 32.7624 82.6124 32.6809C82.486 32.6004 82.3563 32.5075 82.2336 32.4103L73.5384 43.3827C75.0458 44.5773 78.2752 46.7693 82.2303 46.7693V32.7693ZM38.685 86.4491C36.3767 85.2358 35.5381 83.0056 35.5381 81.3078H49.5381C49.5381 78.7465 48.2716 75.6719 45.1989 74.0568L38.685 86.4491ZM68.8457 44.9231C71.5112 44.9231 74.7378 44.1524 75.8195 43.9529L73.2806 30.1851C70.7924 30.6439 69.8104 30.9231 68.8457 30.9231V44.9231ZM69.0673 85.5202C68.6466 85.6415 68.4332 85.6056 68.612 85.6144C68.7907 85.6232 69.1037 85.6604 69.6869 85.7676C69.9734 85.8202 70.2581 85.8768 70.6195 85.9475C70.9586 86.014 71.3596 86.0918 71.772 86.1631C72.5628 86.2998 73.6598 86.4615 74.8466 86.4615V72.4615C74.8545 72.4615 74.6802 72.4582 74.1565 72.3677C73.4295 72.242 73.2751 72.1926 72.2175 71.9982C70.9262 71.7609 68.08 71.2341 65.1868 72.0687L69.0673 85.5202ZM44.8462 66.1538C41.6209 66.1538 37.9018 63.3242 38.5698 58.8263L52.4179 60.8829C53.1964 55.6411 48.8235 52.1538 44.8462 52.1538V66.1538ZM80.8462 48.4615C81.0737 48.4615 81.3469 48.5047 81.6699 48.6598C82.0052 48.8208 82.5348 49.1781 82.955 49.8676L71.0001 57.1532C73.3939 61.0811 77.6175 62.4615 80.8462 62.4615V48.4615ZM46.3538 44.4203C46.8332 43.9922 47.2514 43.8258 47.3823 43.7796C47.5079 43.7353 47.4931 43.7578 47.2589 43.7868C47.0339 43.8146 46.7255 43.8346 46.2953 43.843C45.8299 43.8521 45.4446 43.8462 44.8462 43.8462V57.8462C45.5874 57.8462 47.3206 57.8857 48.9767 57.681C50.5455 57.487 53.3387 56.9519 55.6777 54.8636L46.3538 44.4203ZM38.3077 62.3846C38.3077 59.1017 40.7276 56.5016 43.7455 56.0362L45.8793 69.8727C49.4609 69.3203 52.3077 66.2379 52.3077 62.3846H38.3077ZM82.1088 67.9215C82.8517 68.6091 83.4073 69.5169 83.6612 70.5879C83.9242 71.6972 83.9181 73.3214 82.9551 74.9016L71.0001 67.616C68.3596 71.9489 70.5441 76.2941 72.5992 78.1961L82.1088 67.9215ZM63.0605 38.3171C67.5117 38.4404 70.4942 42.5853 69.5993 46.6742L55.923 43.6812C54.9982 47.9068 58.0815 52.1844 62.6727 52.3117L63.0605 38.3171ZM48.4619 44.3847C48.4619 44.2869 48.4674 44.017 48.6344 43.5898C48.7972 43.1734 49.3318 42.0906 50.6929 41.3334L57.4983 53.5681C59.8601 52.2544 61.0778 50.211 61.6736 48.687C62.2736 47.1522 62.4619 45.6275 62.4619 44.3847H48.4619ZM56.1313 46.6391C55.2201 42.364 58.5111 38.191 63.0605 38.3171L62.6727 52.3117C67.3654 52.4417 70.7648 48.136 69.8238 43.7207L56.1313 46.6391Z" fill="#B3FFD1"/>
</g>
<circle cx="82.2303" cy="47.1539" r="7.38462" fill="#B3FFD1"/>
<circle cx="75.3081" cy="41.1538" r="4.15385" fill="#B3FFD1"/>
<circle cx="74.8466" cy="75.7692" r="3.69231" fill="#204ECF"/>
<circle opacity="0.8" cx="44.8462" cy="55" r="4.15385" fill="#EA9836"/>
<circle cx="80.8462" cy="63.3076" r="7.84615" fill="#F9A197"/>
<circle cx="68.8457" cy="43.9231" r="6" fill="#204ECF"/>
<circle cx="46.2304" cy="81.3078" r="3.69231" fill="#204ECF"/>
<circle cx="46.2308" cy="72.077" r="9.23077" fill="#204ECF"/>
<circle cx="62.3845" cy="62.3845" r="17.0769" fill="#8AA4EC"/>
<circle cx="59.1542" cy="44.3847" r="3.69231" fill="#F9A197"/>
<defs>
<filter id="filter0_f_1741_6771" x="0" y="0" width="126.615" height="122" filterUnits="userSpaceOnUse" color-interpolation-filters="sRGB">
<feFlood flood-opacity="0" result="BackgroundImageFix"/>
<feBlend mode="normal" in="SourceGraphic" in2="BackgroundImageFix" result="shape"/>
<feGaussianBlur stdDeviation="15" result="effect1_foregroundBlur_1741_6771"/>
</filter>
</defs>
</svg>
