<svg id="Layer_1" data-name="Layer 1" xmlns="http://www.w3.org/2000/svg" viewBox="0 0 62.75 42"><defs><style>.cls-1{fill:#fff;}</style></defs><title>Touch-Icons</title><path class="cls-1" d="M19.91,5.5A1.47,1.47,0,0,1,21,8L9,20A1.45,1.45,0,0,0,9,22L21,34a1.46,1.46,0,0,1-2.07,2.07l-12-12a4.39,4.39,0,0,1,0-6.2l12-12A1.43,1.43,0,0,1,19.91,5.5Z"/><path class="cls-1" d="M55.91,5.5A1.47,1.47,0,0,1,57,8L45,20A1.45,1.45,0,0,0,45,22L57,34a1.46,1.46,0,0,1-2.07,2.07l-12-12a4.39,4.39,0,0,1,0-6.2l12-12A1.43,1.43,0,0,1,55.91,5.5Z"/></svg>