<?xml version="1.0" encoding="utf-8"?>
<!-- Generator: Adobe Illustrator 22.0.1, SVG Export Plug-In . SVG Version: 6.00 Build 0)  -->
<!DOCTYPE svg PUBLIC "-//W3C//DTD SVG 1.1//EN" "http://www.w3.org/Graphics/SVG/1.1/DTD/svg11.dtd">
<svg version="1.1" id="Layer_1" xmlns="http://www.w3.org/2000/svg" xmlns:xlink="http://www.w3.org/1999/xlink" x="0px" y="0px"
	 viewBox="0 0 42 42" style="enable-background:new 0 0 42 42;" xml:space="preserve">
<style type="text/css">
	.st0{fill:#FFFFFF;}
</style>
<title>Touch-Icons</title>
<path class="st0" d="M22.2,36.5c-0.8,0-1.5-0.6-1.5-1.4c0-0.4,0.1-0.8,0.4-1.1l12-12c0.5-0.6,0.5-1.4,0-2l-12-12
	c-0.6-0.6-0.6-1.5,0-2.1s1.5-0.6,2.1,0l12,12c1.7,1.7,1.7,4.5,0,6.2l-12,12C22.9,36.4,22.5,36.5,22.2,36.5z"/>
<path class="st0" d="M7.2,36.5c-0.8,0-1.5-0.6-1.5-1.4c0-0.4,0.1-0.8,0.4-1.1l12-12c0.5-0.6,0.5-1.4,0-2L6.1,8
	c-0.6-0.6-0.6-1.5,0-2.1s1.5-0.6,2.1,0l12,12c1.7,1.7,1.7,4.5,0,6.2l-12,12C7.9,36.4,7.5,36.5,7.2,36.5z"/>
</svg>
