<svg id="Layer_1" data-name="Layer 1" xmlns="http://www.w3.org/2000/svg" viewBox="0 0 42 42"><defs><style>.cls-1{fill:#F84846;}</style></defs><title>new</title><path class="cls-1" d="M19.91,36.5A1.47,1.47,0,0,0,21,34L9,22A1.45,1.45,0,0,1,9,20L21,8a1.46,1.46,0,0,0-2.07-2.07l-12,12a4.39,4.39,0,0,0,0,6.2l12,12A1.43,1.43,0,0,0,19.91,36.5Z"/><path class="cls-1" d="M34.91,36.5A1.47,1.47,0,0,0,36,34L24,22A1.45,1.45,0,0,1,24,20L36,8a1.46,1.46,0,1,0-2.07-2.07l-12,12a4.39,4.39,0,0,0,0,6.2l12,12A1.43,1.43,0,0,0,34.91,36.5Z"/></svg>
