<svg id="Layer_1" data-name="Layer 1" xmlns="http://www.w3.org/2000/svg" viewBox="0 0 42 42"><defs><style>.cls-1{fill:#c3c4c6;}</style></defs><title>new</title><path class="cls-1" d="M22.09,5.5a1.47,1.47,0,0,0-1,2.5L33,20A1.45,1.45,0,0,1,33,22l-12,12a1.46,1.46,0,0,0,2.07,2.07l12-12a4.39,4.39,0,0,0,0-6.2l-12-12A1.43,1.43,0,0,0,22.09,5.5Z"/><path class="cls-1" d="M7.09,5.5a1.47,1.47,0,0,0-1,2.5L18,20A1.45,1.45,0,0,1,18,22l-12,12a1.46,1.46,0,0,0,2.07,2.07l12-12a4.39,4.39,0,0,0,0-6.2l-12-12A1.43,1.43,0,0,0,7.09,5.5Z"/></svg>