<svg id="Layer_1" data-name="Layer 1" xmlns="http://www.w3.org/2000/svg" viewBox="0 0 42 49"><defs><style>.cls-1{fill:#fff;}</style></defs><title>scheduling icons</title><path class="cls-1" d="M3.09,5.74A1.75,1.75,0,0,1,5.57,3.26L22.74,20.43a5.77,5.77,0,0,1,0,8.14L5.57,45.74a1.75,1.75,0,0,1-2.48-2.48L20.26,26.09a2.25,2.25,0,0,0,0-3.18Z"/><path class="cls-1" d="M35.26,26.09a2.25,2.25,0,0,0,0-3.18L18.09,5.74a1.75,1.75,0,1,1,2.48-2.48L37.74,20.43a5.77,5.77,0,0,1,0,8.14L20.57,45.74a1.75,1.75,0,1,1-2.48-2.48Z"/></svg>
