<?xml version="1.0" encoding="utf-8"?>
<!-- Generator: Adobe Illustrator 23.0.1, SVG Export Plug-In . SVG Version: 6.00 Build 0)  -->
<svg version="1.1" id="Layer_1" xmlns="http://www.w3.org/2000/svg" xmlns:xlink="http://www.w3.org/1999/xlink" x="0px" y="0px"
	 viewBox="0 0 42 42" style="enable-background:new 0 0 42 42;" xml:space="preserve">
<style type="text/css">
	.st0{fill:#FFFFFF;}
</style>
<title>Touch-Icons</title>
<g>
	<path class="st0" d="M4.6,39.2c-1.1,0-1.7-0.5-1.7-1.6C3,37,4.1,30.3,4.3,29l0-0.2l0.1-0.1c0.2-0.2,23.2-23.6,24.7-25
		c0.6-0.6,1.2-0.9,1.9-0.8c1,0.1,1.6,0.8,1.6,0.9l0,0c0,0,4.6,4.6,5.7,5.8c1.2,1.2,0.6,2.8,0,3.5L13,38l-0.2,0
		C12.1,38.2,5.6,39.2,4.6,39.2z M4.2,37.9c0,0,0.1,0,0.4,0c0.6,0,4.9-0.6,7.8-1.1l25-24.7c0-0.1,0.8-1,0-1.8
		c-1.2-1.2-5.8-5.9-5.8-5.9c0-0.1-0.4-0.4-0.8-0.5c-0.3,0-0.6,0.1-0.9,0.5C28.6,5.9,7.4,27.4,5.5,29.4c-0.5,3-1.3,7.8-1.3,8.2
		C4.2,37.8,4.2,37.9,4.2,37.9C4.2,37.9,4.2,37.9,4.2,37.9z"/>
	<rect x="29" y="6.5" transform="matrix(0.6893 -0.7245 0.7245 0.6893 0.1759 25.316)" class="st0" width="1.3" height="11.8"/>
	<polygon class="st0" points="12.1,37.7 9.7,32.2 4.6,29.7 5.2,28.5 10.6,31.2 13.3,37.2 	"/>
	<rect x="6.2" y="21.4" transform="matrix(0.7094 -0.7048 0.7048 0.7094 -9.7707 20.386)" class="st0" width="27.4" height="1.2"/>
</g>
</svg>
