
<svg id="Flag1" data-name="Flag1" width="13" height="21" viewBox="0 0 13 21" xmlns="http://www.w3.org/2000/svg">
    <defs><style>.cls-1{fill:#ff1a1a;}</style></defs><title>Touch-Icons</title>
    <path class="cls-1" d="M10.6016 5.8125L12.5937 3.15625C12.6808 3.04018 12.7338 2.90216 12.7468 2.75766C12.7599 2.61316 12.7324 2.46788 12.6675 2.33811C12.6026 2.20834 12.5029 2.09921 12.3795 2.02293C12.2561 1.94665 12.1138 1.90625 11.9688 1.90625H3.375V1.125C3.375 0.9178 3.29269 0.719086 3.14618 0.572573C2.99966 0.42606 2.80095 0.34375 2.59375 0.34375C2.38655 0.34375 2.18784 0.42606 2.04132 0.572573C1.89481 0.719086 1.8125 0.9178 1.8125 1.125V19.0938H1.03125C0.82405 19.0938 0.625336 19.1761 0.478823 19.3226C0.33231 19.4691 0.25 19.6678 0.25 19.875C0.25 20.0822 0.33231 20.2809 0.478823 20.4274C0.625336 20.5739 0.82405 20.6562 1.03125 20.6562H4.15625C4.36345 20.6562 4.56216 20.5739 4.70868 20.4274C4.85519 20.2809 4.9375 20.0822 4.9375 19.875C4.9375 19.6678 4.85519 19.4691 4.70868 19.3226C4.56216 19.1761 4.36345 19.0938 4.15625 19.0938H3.375V9.71875H11.9688C12.1138 9.71875 12.2561 9.67835 12.3795 9.60207C12.5029 9.52579 12.6026 9.41666 12.6675 9.28689C12.7324 9.15711 12.7599 9.01184 12.7468 8.86734C12.7338 8.72284 12.6808 8.58482 12.5937 8.46875L10.6016 5.8125ZM9 6.28125L10.4062 8.15625H3.375V3.46875H10.4062L9 5.34375C8.89864 5.47901 8.84385 5.64348 8.84385 5.8125C8.84385 5.98152 8.89864 6.14599 9 6.28125Z" fill="black"/>
</svg>

