<svg id="Layer_1" data-name="Layer 1" xmlns="http://www.w3.org/2000/svg" viewBox="0 0 44 44"><defs><style>.cls-1{fill:#fff;}</style></defs><path class="cls-1" d="M22.31,13.79a8.14,8.14,0,1,1-8.14,8.14,8.15,8.15,0,0,1,8.14-8.14m0-1.5A9.64,9.64,0,1,0,32,21.93a9.65,9.65,0,0,0-9.64-9.64Z"/><path class="cls-1" d="M19.18,3h0m6.3.24.63,2.86.18.84.82.27a14.88,14.88,0,0,1,2.19.91l.77.39.72-.47,2.47-1.58L37.75,11l-1.59,2.47-.46.72.39.77A15.55,15.55,0,0,1,37,17.13l.26.82.84.18,2.87.62V25.1l-2.87.63-.84.18-.26.82a16.06,16.06,0,0,1-.91,2.19l-.39.77.46.72,1.59,2.47-4.49,4.49-2.47-1.59-.72-.46-.77.39a16.06,16.06,0,0,1-2.19.91l-.82.26-.18.84-.63,2.87H19.13l-.62-2.87-.18-.84-.82-.26a15.55,15.55,0,0,1-2.19-.91l-.77-.39-.72.46-2.47,1.59L6.87,32.88l1.58-2.47.47-.72-.39-.77a16.06,16.06,0,0,1-.91-2.19l-.27-.82-.84-.18L3.65,25.1V18.75l2.86-.62L7.35,18l.27-.82a15.55,15.55,0,0,1,.91-2.19l.39-.77-.47-.72L6.87,11l4.49-4.49,2.47,1.58.72.47.77-.39a14.45,14.45,0,0,1,2.19-.91L18.33,7l.18-.84.62-2.86h6.35M11.53,6.32h0m21.93,0h0M25.72,1.77H18.89a1.2,1.2,0,0,0-1.17.94L17,5.81a17.36,17.36,0,0,0-2.4,1L12,5.1a1.21,1.21,0,0,0-.65-.2,1.17,1.17,0,0,0-.85.36L5.64,10.08a1.21,1.21,0,0,0-.16,1.51l1.71,2.67a17.36,17.36,0,0,0-1,2.4l-3.09.68a1.2,1.2,0,0,0-1,1.17v6.83a1.2,1.2,0,0,0,1,1.18l3.09.67a17.48,17.48,0,0,0,1,2.41L5.48,32.27a1.2,1.2,0,0,0,.16,1.5l4.83,4.83a1.21,1.21,0,0,0,1.5.16L14.64,37A16.21,16.21,0,0,0,17,38l.68,3.1a1.21,1.21,0,0,0,1.17,1h6.83a1.21,1.21,0,0,0,1.18-1l.67-3.1A16.32,16.32,0,0,0,30,37l2.67,1.72a1.17,1.17,0,0,0,.65.19,1.2,1.2,0,0,0,.85-.35L39,33.77a1.2,1.2,0,0,0,.16-1.5L37.43,29.6a17.43,17.43,0,0,0,1-2.41l3.1-.67a1.2,1.2,0,0,0,.95-1.18V18.51a1.2,1.2,0,0,0-.95-1.17l-3.1-.68a17.31,17.31,0,0,0-1-2.4l1.71-2.67A1.21,1.21,0,0,0,39,10.08L34.15,5.26a1.17,1.17,0,0,0-1.5-.16L30,6.81a17.48,17.48,0,0,0-2.41-1l-.67-3.1a1.2,1.2,0,0,0-1.18-.94Z"/></svg>