<svg width="18" height="18" viewBox="0 0 18 18" fill="none" xmlns="http://www.w3.org/2000/svg">
    <circle cx="9" cy="9" r="9" fill="#F0ECE7" />
    <path opacity="0.5"
        d="M9.61133 6.60352V14H7.95703V6.60352H9.61133ZM7.84766 4.66211C7.84766 4.41146 7.92969 4.2041 8.09375 4.04004C8.26237 3.87142 8.49479 3.78711 8.79102 3.78711C9.08268 3.78711 9.31283 3.87142 9.48145 4.04004C9.65007 4.2041 9.73438 4.41146 9.73438 4.66211C9.73438 4.9082 9.65007 5.11328 9.48145 5.27734C9.31283 5.44141 9.08268 5.52344 8.79102 5.52344C8.49479 5.52344 8.26237 5.44141 8.09375 5.27734C7.92969 5.11328 7.84766 4.9082 7.84766 4.66211Z"
        fill="#080815" />
</svg>