<svg id="Layer_1" data-name="Layer 1" xmlns="http://www.w3.org/2000/svg" viewBox="0 0 44 44"><defs><style>.cls-1{fill:#fff;}</style></defs><title>scheduling icons</title><path class="cls-1" d="M18.52,32.68l-4.71,4.71a5.62,5.62,0,1,1-7.95-7.95L15.28,20a5.63,5.63,0,0,1,8,0,1,1,0,1,0,1.47-1.48,7.73,7.73,0,0,0-10.9,0L4.38,28a7.71,7.71,0,1,0,10.9,10.9L20,34.15a1,1,0,0,0-1.48-1.47Z"/><path class="cls-1" d="M38.62,4.63a7.7,7.7,0,0,0-10.9,0l-5.66,5.65a1,1,0,0,0,0,1.48,1.05,1.05,0,0,0,1.47,0L29.19,6.1a5.63,5.63,0,0,1,8,8L26.77,24.43a5.64,5.64,0,0,1-7.95,0,1,1,0,0,0-1.47,0,1,1,0,0,0,0,1.47,7.73,7.73,0,0,0,10.9,0L38.62,15.53A7.73,7.73,0,0,0,38.62,4.63Z"/></svg>
