<svg width="18" height="18" viewBox="0 0 10 10" fill="none" xmlns="http://www.w3.org/2000/svg">
    <g clip-path="url(#clip0)">
        <path d="M5.16701 10C5.92163 10 6.55289 9.46205 6.69785 8.75H3.63617C3.7812 9.46205 4.41246 10 5.16701 10Z" fill="black"/>
        <path d="M8.08858 4.99963C8.0869 4.99963 8.08522 5.00002 8.08354 5.00002C6.47565 5.00002 5.1669 3.69165 5.1669 2.08337C5.1669 1.64125 5.2686 1.22331 5.44568 0.847488C5.35397 0.838791 5.26105 0.833374 5.1669 0.833374C3.55611 0.833374 2.25026 2.13914 2.25026 3.75002V4.91167C2.25026 5.73625 1.88901 6.5146 1.25523 7.05042C1.04398 7.23085 0.950211 7.51833 1.02605 7.79878C1.1144 8.12502 1.43689 8.33337 1.77525 8.33337H8.55649C8.91148 8.33337 9.24611 8.10335 9.31813 7.75545C9.37398 7.48628 9.27815 7.2175 9.06941 7.0421C8.46356 6.53421 8.11314 5.7879 8.08858 4.99963Z" fill="black"/>
        <path d="M10.167 2.08336C10.167 3.23395 9.23431 4.16664 8.08365 4.16664C6.93306 4.16664 6.00037 3.23395 6.00037 2.08336C6.00037 0.93277 6.93306 0 8.08365 0C9.23431 0 10.167 0.93277 10.167 2.08336Z" fill="black"/>
    </g>
    <defs>
        <clipPath id="clip0">
            <rect width="18" height="18" fill="white"/>
        </clipPath>
    </defs>
</svg>
