<svg xmlns="http://www.w3.org/2000/svg" width="24.844" height="25" viewBox="0 0 24.844 25">
  <g id="Group_4334" data-name="Group 4334" transform="translate(-804 -35)">
    <path id="Path_960" data-name="Path 960" d="M815.508,48.46l-.617.648,5.885,5.6.617-.648Z" transform="translate(4.235 -10.044)" fill="#4b5fcc"/>
    <g id="Group_4334-2" data-name="Group 4334" transform="translate(804 35)">
      <path id="Path_961" data-name="Path 961" d="M810,65.03l-1.651-3.786-3.511-1.721.414-.826,3.717,1.858,1.858,4.13Z" transform="translate(-803.672 -41.062)" fill="#4b5fcc"/>
      <path id="Path_962" data-name="Path 962" d="M820.754,50.463,807.375,63.756l.582.586,13.38-13.293Z" transform="translate(-802.687 -44.265)" fill="#4b5fcc"/>
      <path id="Path_974" data-name="Path 974" d="M805.171,71c-.758,0-1.171-.344-1.171-1.1.069-.413.826-5.025.964-5.92v-.138l.068-.069c.139-.138,15.971-16.245,17-17.209a1.509,1.509,0,0,1,1.308-.551,1.46,1.46,0,0,1,1.1.619s3.165,3.166,3.924,3.993a1.782,1.782,0,0,1,0,2.409l-17.415,17.14h-.137C810.333,70.312,805.858,71,805.171,71Zm-.276-.895h.276c.412,0,3.372-.413,5.368-.757l17.21-17c0-.069.55-.688,0-1.239-.826-.826-3.993-4.061-3.993-4.061,0-.069-.275-.275-.551-.344a.73.73,0,0,0-.62.344c-.894,1.033-15.487,15.832-16.794,17.209-.344,2.065-.9,5.369-.9,5.644Z" transform="translate(-804 -46)" fill="#4b5fcc"/>
    </g>
  </g>
</svg>
