<?xml version="1.0" encoding="utf-8"?>
<!-- Generator: Adobe Illustrator 22.1.0, SVG Export Plug-In . SVG Version: 6.00 Build 0)  -->
<svg version="1.1" id="Layer_1" xmlns="http://www.w3.org/2000/svg" xmlns:xlink="http://www.w3.org/1999/xlink" x="0px" y="0px"
	 viewBox="0 0 1280 1280" style="enable-background:new 0 0 1280 1280;" xml:space="preserve">
<style type="text/css">
	.st0{fill:#183284;}
</style>
<g transform="translate(0.000000,1280.000000) scale(0.100000,-0.100000)">
	<path class="st0" d="M6130,12796c-3-2-97-12-210-21c-446-35-840-105-1250-220c-1231-347-2351-1069-3166-2043
		C553,9376,31,7963,2,6450c-2-141,0-292,7-355c6-60,16-168,21-240c56-680,245-1416,524-2042c609-1365,1652-2460,2976-3124
		c719-360,1486-580,2280-653c381-35,441-38,670-33c867,19,1700,199,2475,537c66,29,217,101,335,161c1116,563,2031,1431,2655,2519
		c552,963,850,2079,850,3185c0,664-113,1359-325,1995c-114,345-196,543-359,868c-441,882-1074,1642-1864,2238
		c-1094,826-2420,1272-3832,1291C6261,12799,6132,12799,6130,12796z M6914,11546c1227-138,2287-640,3132-1481
		c796-793,1320-1837,1473-2936c40-286,46-380,46-719c0-492-39-819-151-1264c-210-838-620-1601-1208-2246
		c-719-788-1718-1352-2782-1569c-341-70-622-96-1019-96c-325,0-466,9-726,46c-1284,182-2462,843-3276,1839
		c-598,731-994,1631-1122,2551c-40,286-46,380-46,724s6,438,46,725c119,857,465,1695,984,2385c213,283,501,591,755,809
		c313,268,700,525,1060,706c635,318,1262,487,2015,544C6216,11573,6783,11560,6914,11546z"/>
	<path class="st0" d="M5960,9311c-14-4-30-18-37-31c-10-20-13-285-13-1207V6890l-1195-2c-1131-3-1195-4-1212-21c-17-16-18-49-18-467
		s1-451,18-467c17-17,81-18,1212-21l1195-2l2-1195c3-1131,4-1195,21-1212c16-17,49-18,467-18s451,1,467,18c17,17,18,81,21,1212
		l2,1195l1195,2c1131,3,1195,4,1212,21c17,16,18,49,18,467s-1,451-18,467c-17,17-81,18-1212,21l-1195,2l-2,1195
		c-3,1131-4,1195-21,1212c-16,17-50,18-450,20C6179,9318,5974,9315,5960,9311z"/>
</g>
</svg>
