<svg xmlns="http://www.w3.org/2000/svg" width="18.33" height="18.5" viewBox="0 0 18.33 18.5"><defs><style>.a{fill:#fff;stroke:#fff;stroke-width:0.5px;}</style></defs><g transform="translate(0.25 0.25)"><path class="a" d="M17.3,14.8,12,9a5.954,5.954,0,0,0,.6-2.7,6.3,6.3,0,1,0-6.3,6.3,5.71,5.71,0,0,0,3.2-.9l5,5.5a2.851,2.851,0,0,0,1.4.8h.3a1.5,1.5,0,0,0,1.1-.4,1.392,1.392,0,0,0,.5-1.4A1.553,1.553,0,0,0,17.3,14.8Zm-11-2.6a5.8,5.8,0,1,1,5.8-5.8A5.8,5.8,0,0,1,6.3,12.2Zm10.8,5a1.689,1.689,0,0,1-1,.3,2.384,2.384,0,0,1-1.1-.6l-5-5.4a5.775,5.775,0,0,0,1.8-2l5.1,5.6a1.656,1.656,0,0,1,.5,1.2A1.4,1.4,0,0,1,17.1,17.2Z"/><path class="a" d="M6.3,1.8A4.8,4.8,0,0,0,2.4,4a.192.192,0,0,0,.1.3h.1c.1,0,.2,0,.2-.1a4.033,4.033,0,0,1,3.5-2A3.631,3.631,0,0,1,9.1,3.4a.188.188,0,0,0,.3,0,.187.187,0,0,0,0-.3A4.216,4.216,0,0,0,6.3,1.8Z"/></g></svg>