<svg id="Layer_1" data-name="Layer 1" xmlns="http://www.w3.org/2000/svg" viewBox="0 0 42 42"><defs><style>.cls-1{fill:#fff;}</style></defs><title>new</title><path class="cls-1" d="M37.8,32.76,27.31,21.29a12.69,12.69,0,1,0-4.93,5.43l10,11a4.79,4.79,0,0,0,2.81,1.52,3.52,3.52,0,0,0,.56,0A3.26,3.26,0,0,0,38,38.41a3.37,3.37,0,0,0,1-2.72A4.66,4.66,0,0,0,37.8,32.76ZM15.9,27.57A11.68,11.68,0,1,1,27.58,15.89,11.69,11.69,0,0,1,15.9,27.57ZM37.38,37.7a2.46,2.46,0,0,1-2,.56A3.83,3.83,0,0,1,33.12,37L23.2,26.19a12.64,12.64,0,0,0,3.64-4L37.09,33.4a3.75,3.75,0,0,1,1,2.33A2.45,2.45,0,0,1,37.38,37.7Z"/><path class="cls-1" d="M15.9,6.9a9,9,0,0,0-7.74,4.41.48.48,0,0,0,.17.66.44.44,0,0,0,.24.07A.49.49,0,0,0,9,11.8,8.07,8.07,0,0,1,15.9,7.86a8,8,0,0,1,5.68,2.35.48.48,0,1,0,.68-.68A8.93,8.93,0,0,0,15.9,6.9Z"/></svg>