<svg id="Layer_1" data-name="Layer 1" xmlns="http://www.w3.org/2000/svg" viewBox="0 0 37.84 36.07"><defs><style>.cls-1{fill:#252931;}</style></defs><title>Untitled-1</title><path class="cls-1" d="M11.54,26.41a3.77,3.77,0,0,0-1-3.1L3.21,16.17,13.33,14.7A3.81,3.81,0,0,0,16,12.78L20.5,3.61,25,12.78a3.81,3.81,0,0,0,2.64,1.92l10.12,1.47-7.33,7.14a3.79,3.79,0,0,0-1,3.1l1.73,10.08-9.06-4.76a3.78,3.78,0,0,0-3.26,0L9.81,36.49Z" transform="translate(-1.58 -1.93)"/><path class="cls-1" d="M20.5,6.43l3.4,6.9a5,5,0,0,0,3.59,2.6L35.1,17l-5.51,5.37a5.07,5.07,0,0,0-1.37,4.21l1.31,7.59-6.82-3.59a4.81,4.81,0,0,0-2.21-.51,4.71,4.71,0,0,0-2.21.52l-6.82,3.58,1.31-7.59a5.07,5.07,0,0,0-1.37-4.21L5.9,17l7.61-1.11a5,5,0,0,0,3.58-2.6l3.41-6.9m0-4.5c-.21,0-.61.09-.91.7l-4.74,9.59a2.54,2.54,0,0,1-1.7,1.24L2.56,15a1,1,0,0,0-.94.65A1,1,0,0,0,2,16.73L9.66,24.2a2.58,2.58,0,0,1,.65,2L8.5,36.75a1.06,1.06,0,0,0,.33,1.1.85.85,0,0,0,.5.15,1.46,1.46,0,0,0,.65-.18l9.47-5a2.51,2.51,0,0,1,2.1,0l9.47,5a1.46,1.46,0,0,0,.65.18.85.85,0,0,0,.5-.15,1.06,1.06,0,0,0,.33-1.1L30.69,26.2a2.58,2.58,0,0,1,.65-2L39,16.73a1,1,0,0,0,.38-1.08,1,1,0,0,0-.94-.65L27.85,13.46a2.54,2.54,0,0,1-1.7-1.24L21.41,2.63c-.3-.61-.7-.7-.91-.7Z" transform="translate(-1.58 -1.93)"/></svg>