<svg id="Layer_1" data-name="Layer 1" xmlns="http://www.w3.org/2000/svg" viewBox="0 0 44 44"><defs><style>.cls-1{fill:#fff;}</style></defs><title>scheduling icons</title><path class="cls-1" d="M32.75,23.19a9.67,9.67,0,1,1,9.67-9.66A9.67,9.67,0,0,1,32.75,23.19Zm0-17.8a8.14,8.14,0,1,0,8.15,8.14A8.15,8.15,0,0,0,32.75,5.39Z"/><path class="cls-1" d="M32.75,18.74A5.21,5.21,0,1,1,38,13.53,5.22,5.22,0,0,1,32.75,18.74Zm0-8.9a3.69,3.69,0,1,0,3.69,3.69A3.69,3.69,0,0,0,32.75,9.84Z"/><path class="cls-1" d="M10.6,24.5c-4.95,0-9-4.82-9-10.75V7.23H3.15v6.52C3.15,18.84,6.49,23,10.6,23S18,18.84,18,13.75V7.23h1.52v6.52C19.56,19.68,15.54,24.5,10.6,24.5Z"/><path class="cls-1" d="M4.52,10.6A2.94,2.94,0,1,1,7.45,7.67,2.94,2.94,0,0,1,4.52,10.6Zm0-4.35A1.42,1.42,0,1,0,5.93,7.67,1.43,1.43,0,0,0,4.52,6.25Z"/><path class="cls-1" d="M16.68,10.6a2.94,2.94,0,1,1,2.93-2.93A2.93,2.93,0,0,1,16.68,10.6Zm0-4.35a1.42,1.42,0,1,0,1.41,1.42A1.42,1.42,0,0,0,16.68,6.25Z"/><path class="cls-1" d="M21.89,40.14c-6.41,0-11.62-3.66-11.62-8.15V23.74h1.52V32c0,3.65,4.53,6.62,10.1,6.62S32,35.64,32,32V22h1.52V32C33.51,36.48,28.3,40.14,21.89,40.14Z"/></svg>
