<svg xmlns="http://www.w3.org/2000/svg" width="25" height="23.809" viewBox="0 0 25 23.809">
  <g id="profile" transform="translate(0 0)">
    <path id="Path_1011" data-name="Path 1011" d="M136.678,26.777a6.681,6.681,0,1,0-6.691-6.691A6.692,6.692,0,0,0,136.678,26.777Zm0-11.617a4.926,4.926,0,1,1-4.926,4.926A4.941,4.941,0,0,1,136.678,15.16Z" transform="translate(-124.219 -13.415)" fill="#4b5fcc"/>
    <path id="Path_1012" data-name="Path 1012" d="M.883,350.2H24.117a.876.876,0,0,0,.883-.883,8.4,8.4,0,0,0-8.395-8.395H8.395A8.4,8.4,0,0,0,0,349.321.876.876,0,0,0,.883,350.2Zm7.512-7.512h8.21a6.625,6.625,0,0,1,6.568,5.747H1.827A6.643,6.643,0,0,1,8.395,342.691Z" transform="translate(0 -326.394)" fill="#4b5fcc"/>
  </g>
</svg>
