<svg xmlns="http://www.w3.org/2000/svg" width="24.403" height="16.268" viewBox="0 0 24.403 16.268"><defs><style>.a{fill:#183284;}</style></defs><g transform="translate(0 0)"><path class="a" d="M21.861,85.333H2.542A2.545,2.545,0,0,0,0,87.875V99.059A2.545,2.545,0,0,0,2.542,101.6H21.861A2.545,2.545,0,0,0,24.4,99.059V87.875A2.545,2.545,0,0,0,21.861,85.333Zm1.525,13.726a1.527,1.527,0,0,1-1.525,1.525H2.542a1.527,1.527,0,0,1-1.525-1.525V87.875A1.527,1.527,0,0,1,2.542,86.35H21.861a1.527,1.527,0,0,1,1.525,1.525V99.059Z" transform="translate(0 -85.333)"/></g><g transform="translate(0 3.05)"><g transform="translate(0 0)"><path class="a" d="M23.894,149.333H.508a.509.509,0,0,0-.508.508v3.05a.509.509,0,0,0,.508.508H23.894a.509.509,0,0,0,.508-.508v-3.05A.509.509,0,0,0,23.894,149.333Zm-.508,3.05H1.017V150.35H23.386v2.034Z" transform="translate(0 -149.333)"/></g></g><g transform="translate(3.05 10.168)"><path class="a" d="M70.609,298.667h-6.1a.508.508,0,1,0,0,1.017h6.1a.508.508,0,1,0,0-1.017Z" transform="translate(-64 -298.667)"/></g><g transform="translate(3.05 12.201)"><path class="a" d="M70.609,341.333h-6.1a.508.508,0,1,0,0,1.017h6.1a.508.508,0,1,0,0-1.017Z" transform="translate(-64 -341.333)"/></g><g transform="translate(17.285 9.151)"><path class="a" d="M365.209,277.333h-1.017a1.527,1.527,0,0,0-1.525,1.525v1.017a1.527,1.527,0,0,0,1.525,1.525h1.017a1.527,1.527,0,0,0,1.525-1.525v-1.017A1.527,1.527,0,0,0,365.209,277.333Zm.508,2.542a.509.509,0,0,1-.508.508h-1.017a.509.509,0,0,1-.508-.508v-1.017a.509.509,0,0,1,.508-.508h1.017a.509.509,0,0,1,.508.508Z" transform="translate(-362.667 -277.333)"/></g></svg>
