<svg id="Component_13_2" data-name="Component 13 – 2" xmlns="http://www.w3.org/2000/svg" width="21.256" height="18.528" viewBox="0 0 21.256 18.528">
  <defs><style>.a{fill:#fff;}</style></defs>
  <g id="Group_5037" data-name="Group 5037" transform="translate(2.346 12.126)">
    <g id="Group_5036" data-name="Group 5036" transform="translate(0 0)">
      <path class="a" id="Path_2517" data-name="Path 2517" d="M72.971,334.471l-2.653-2.437a3.919,3.919,0,0,0-5.2,0l-1.066.979-3.018-.021a1.226,1.226,0,0,0-.836.311,1.125,1.125,0,0,0-.132.142l-1.537-1.411a1.266,1.266,0,0,0-1.642-.051,1.023,1.023,0,0,0-.041,1.566l.606.557a.366.366,0,0,0,.487,0,.3.3,0,0,0,0-.447l-.606-.557a.427.427,0,0,1-.143-.329.432.432,0,0,1,.161-.322.54.54,0,0,1,.691.031l1.806,1.659h0a1.149,1.149,0,0,0,1.167,1.026l3.152.031h0a.339.339,0,0,0,.344-.324.335.335,0,0,0-.342-.323l-3.152-.024a.472.472,0,0,1-.486-.454.431.431,0,0,1,.146-.318.512.512,0,0,1,.347-.13l3.066.021a.365.365,0,0,0,.331-.082l1.179-1.083a3.185,3.185,0,0,1,4.23,0l2.653,2.437a.366.366,0,0,0,.487,0A.3.3,0,0,0,72.971,334.471Z" transform="translate(-56.498 -331.046)" fill="#fff"/>
    </g>
  </g>
  <g id="Group_5039" data-name="Group 5039" transform="translate(4.67 15.998)">
    <g id="Group_5038" data-name="Group 5038">
      <path class="a" id="Path_2518" data-name="Path 2518" d="M123.981,434.59l-1.474-1.354a.366.366,0,0,0-.311-.088l-2.914.533h-5.129l-1.078-.989a.367.367,0,0,0-.487,0,.3.3,0,0,0,0,.448l1.179,1.081a.359.359,0,0,0,.243.091h5.306a.373.373,0,0,0,.068,0l2.767-.507,1.344,1.235a.366.366,0,0,0,.487,0A.3.3,0,0,0,123.981,434.59Z" transform="translate(-112.486 -432.601)" fill="#fff"/>
    </g>
  </g>
  <g id="Group_5041" data-name="Group 5041" transform="translate(0 0)">
    <g id="Group_5040" data-name="Group 5040">
      <path class="a" id="Path_2519" data-name="Path 2519" d="M20.934,13.076H18a.317.317,0,1,0,0,.633h2.571V23.872H.689V13.709H16.527a.317.317,0,1,0,0-.633H.367a.337.337,0,0,0-.367.3v10.8a.37.37,0,0,0,.367.337H20.934a.329.329,0,0,0,.321-.337v-10.8A.3.3,0,0,0,20.934,13.076Z" transform="translate(0 -13.076)" fill="#fff"/>
    </g>
  </g>
  <g id="Group_5045" data-name="Group 5045" transform="translate(8.815 2.34)">
    <g id="Group_5044" data-name="Group 5044" transform="translate(0 0)">
      <path class="a" id="Path_2521" data-name="Path 2521" d="M214.889,77.506h-.413V75.777h1.148a.317.317,0,1,0,0-.633h-1.148v-.38a.346.346,0,0,0-.689,0v.38h-.367a1.044,1.044,0,0,0-1.1.97v1.012a1.077,1.077,0,0,0,1.1,1.012h.367v1.729h-1.1a.317.317,0,1,0,0,.633h1.1v.337a.346.346,0,0,0,.689,0V80.5h.413a1.035,1.035,0,0,0,1.056-1.012V78.476A1,1,0,0,0,214.889,77.506Zm-1.1,0h-.367a.415.415,0,0,1-.413-.38V76.115a.381.381,0,0,1,.413-.337h.367Zm1.469,1.982a.373.373,0,0,1-.367.38h-.413V78.139h.413a.339.339,0,0,1,.367.337Z" transform="translate(-212.318 -74.449)" fill="#fff"/>
    </g>
  </g>
</svg>
