<svg xmlns="http://www.w3.org/2000/svg" width="23" height="30" viewBox="0 0 23 30"><defs><style>.a{fill:#4b5fcc;}</style></defs><g transform="translate(-0.109)"><path class="a" d="M.109,57.4v26a.5.5,0,0,0,.5.5h19a.5.5,0,0,0,.5-.5v-21c0-.011-.005-.021-.006-.032a.471.471,0,0,0-.026-.129c-.006-.016-.009-.032-.016-.047a.5.5,0,0,0-.1-.146l-5-5a.485.485,0,0,0-.147-.1l-.046-.016a.5.5,0,0,0-.13-.026c-.008,0-.018,0-.029,0h-14A.5.5,0,0,0,.109,57.4ZM18.4,61.9H15.109V58.609Zm-17.293-4h13v4.5a.5.5,0,0,0,.5.5h4.5v20h-18v-25Zm0,0" transform="translate(0 -53.902)"/><path class="a" d="M75.008,26v1h1.5a.5.5,0,0,0,.5-.5V.5a.5.5,0,0,0-.5-.5h-19a.5.5,0,0,0-.5.5V2h1V1h18V26Zm0,0" transform="translate(-53.899)"/><path class="a" d="M75.977,189.668h12v1h-12Zm0,0" transform="translate(-71.867 -179.668)"/><path class="a" d="M75.977,132.766h4v1h-4Zm0,0" transform="translate(-71.867 -125.766)"/><path class="a" d="M75.977,246.566h8v1h-8Zm0,0" transform="translate(-71.867 -233.566)"/><path class="a" d="M246.676,246.566h3v1h-3Zm0,0" transform="translate(-233.566 -233.566)"/><path class="a" d="M75.977,303.465h12v1h-12Zm0,0" transform="translate(-71.867 -287.465)"/><path class="a" d="M75.977,417.266h12v1h-12Zm0,0" transform="translate(-71.867 -395.266)"/><path class="a" d="M161.324,360.367h7.5v1h-7.5Zm0,0" transform="translate(-152.715 -341.367)"/><path class="a" d="M75.977,360.367h3.5v1h-3.5Zm0,0" transform="translate(-71.867 -341.367)"/><path class="a" d="M75.977,474.168h2v1h-2Zm0,0" transform="translate(-71.867 -449.168)"/><path class="a" d="M132.875,474.168h9v1h-9Zm0,0" transform="translate(-125.766 -449.168)"/></g></svg>