<svg xmlns="http://www.w3.org/2000/svg" width="6.023" height="11.119" viewBox="0 0 6.023 11.119"><g transform="translate(-117.333)"><g transform="translate(120.113)"><g transform="translate(0)"><path d="M245.565,0a.232.232,0,0,0-.232.232V10.887a.232.232,0,1,0,.463,0V.232A.232.232,0,0,0,245.565,0Z" transform="translate(-245.333)"/></g></g><g transform="translate(117.333 0.927)"><path d="M120.344,42.667c-1.66,0-3.011,1.039-3.011,2.316a2.323,2.323,0,0,0,1.654,2.07.232.232,0,0,0,.168-.432,1.877,1.877,0,0,1-1.359-1.638c0-1.022,1.143-1.853,2.548-1.853s2.548.831,2.548,1.853a.232.232,0,1,0,.463,0C123.356,43.706,122,42.667,120.344,42.667Z" transform="translate(-117.333 -42.667)"/></g><g transform="translate(117.333 5.79)"><path d="M121.7,266.65a.231.231,0,1,0-.167.431,1.877,1.877,0,0,1,1.359,1.638c0,1.022-1.143,1.853-2.548,1.853s-2.548-.831-2.548-1.853a.232.232,0,0,0-.463,0c0,1.277,1.351,2.316,3.011,2.316s3.011-1.039,3.011-2.316A2.322,2.322,0,0,0,121.7,266.65Z" transform="translate(-117.333 -266.634)"/></g><g transform="translate(118.839 4.865)"><path d="M189.562,224.977c-.678-.273-1-.379-1.339-.492-.3-.1-.613-.2-1.21-.435a.231.231,0,0,0-.168.431c.608.236.926.341,1.233.442.333.11.647.214,1.311.481a.236.236,0,0,0,.087.017.231.231,0,0,0,.086-.446Z" transform="translate(-186.697 -224.034)"/></g></g></svg>