<svg xmlns="http://www.w3.org/2000/svg" width="23.108" height="22" viewBox="0 0 23.108 22"><defs><style>.a{fill:#fcfcfc;}</style></defs><g transform="translate(0 -0.391)"><path class="a" d="M347.4,40.953h.03a.375.375,0,0,0,.052,0,.837.837,0,0,1,.82.835.374.374,0,1,0,.749,0,1.587,1.587,0,0,0-1.246-1.548v-.36a.374.374,0,1,0-.749,0v.377a1.585,1.585,0,0,0,.409,3.116.836.836,0,1,1-.836.836.374.374,0,1,0-.749,0,1.588,1.588,0,0,0,1.176,1.531v.41a.374.374,0,1,0,.749,0v-.393a1.585,1.585,0,0,0-.339-3.133.836.836,0,0,1-.065-1.67Zm0,0" transform="translate(-329.691 -37.283)"/><path class="a" d="M17.793.391a5.372,5.372,0,0,0-5,3.515H3.5a.392.392,0,0,0-.374.391L3.033,17.43H.384A.368.368,0,0,0,0,17.787v1.667a2.941,2.941,0,0,0,2.808,2.929v.008H14.367V22.38c.094,0,.132.011.191.011h.008A2.941,2.941,0,0,0,17.5,19.45V11.024c.094.005.193.008.29.008a5.32,5.32,0,0,0,0-10.641ZM2.95,21.642h0a2.2,2.2,0,0,1-2.2-2.192V18.179H11.606v1.266a2.937,2.937,0,0,0,.867,2.081c.039.039.088.07.129.116Zm13.8-2.192a2.192,2.192,0,0,1-2.188,2.192h-.007a2.208,2.208,0,0,1-2.2-2.2V17.787A.346.346,0,0,0,12,17.43H3.782L3.868,4.654H12.58a5.625,5.625,0,0,0-.1,1.04,5.279,5.279,0,0,0,.452,2.142H9.393a.374.374,0,1,0,0,.749h3.942a5.283,5.283,0,0,0,3.418,2.345Zm1.039-9.167a4.567,4.567,0,1,1,4.567-4.567A4.566,4.566,0,0,1,17.793,10.283Zm0,0"/><path class="a" d="M124.96,212.746a1.161,1.161,0,1,0,1.2,1.16A1.181,1.181,0,0,0,124.96,212.746Zm0,1.572a.413.413,0,1,1,.45-.411A.432.432,0,0,1,124.96,214.318Zm0,0" transform="translate(-117.97 -202.418)"/><path class="a" d="M192.719,229.878a.374.374,0,0,0,.374.374h4.991a.374.374,0,1,0,0-.749h-4.991A.374.374,0,0,0,192.719,229.878Zm0,0" transform="translate(-183.7 -218.391)"/><path class="a" d="M124.96,143.2a1.161,1.161,0,1,0,1.2,1.16A1.181,1.181,0,0,0,124.96,143.2Zm0,1.572a.413.413,0,1,1,.45-.411.432.432,0,0,1-.45.411Zm0,0" transform="translate(-117.97 -136.129)"/><path class="a" d="M124.96,282.281a1.161,1.161,0,1,0,1.2,1.16A1.181,1.181,0,0,0,124.96,282.281Zm0,1.572a.413.413,0,1,1,.45-.411A.432.432,0,0,1,124.96,283.853Zm0,0" transform="translate(-117.97 -268.699)"/><path class="a" d="M198.084,299.5h-4.991a.374.374,0,1,0,0,.749h4.991a.374.374,0,1,0,0-.749Zm0,0" transform="translate(-183.7 -285.116)"/></g></svg>