<svg xmlns="http://www.w3.org/2000/svg" width="20.621" height="20.379" viewBox="0 0 20.621 20.379"><defs><style>.a{fill:#183284;}</style></defs><g transform="translate(12.081 10.198)"><path class="a" d="M301.646,259.107a.775.775,0,1,1,.886-.767.4.4,0,1,0,.806,0,1.6,1.6,0,0,0-1.289-1.527V256.6a.4.4,0,1,0-.806,0v.209a1.6,1.6,0,0,0-1.289,1.527,1.637,1.637,0,0,0,1.692,1.572.775.775,0,1,1-.886.767.4.4,0,1,0-.806,0,1.6,1.6,0,0,0,1.289,1.527v.174a.4.4,0,1,0,.806,0v-.174a1.6,1.6,0,0,0,1.289-1.527A1.637,1.637,0,0,0,301.646,259.107Z" transform="translate(-299.954 -256.201)"/></g><g transform="translate(15.463 8.771)"><path class="a" d="M386.645,222.722a5.248,5.248,0,0,0-2.144-1.9.4.4,0,0,0-.349.726,4.434,4.434,0,0,1,2,6.073.4.4,0,1,0,.711.378,5.242,5.242,0,0,0-.216-5.281Z" transform="translate(-383.924 -220.785)"/></g><g transform="translate(13.976 8.297)"><path class="a" d="M347.43,209H347.4a.4.4,0,0,0,0,.806h.025a.4.4,0,0,0,0-.806Z" transform="translate(-347 -209.001)"/></g><g transform="translate(8.538 10.863)"><path class="a" d="M215.321,279.376a4.434,4.434,0,0,1-2-6.073.4.4,0,1,0-.711-.378,5.238,5.238,0,0,0,2.359,7.178.4.4,0,0,0,.349-.726Z" transform="translate(-212.002 -272.711)"/></g><g transform="translate(12.742 17.963)"><path class="a" d="M316.806,449h-.023a.4.4,0,0,0,0,.806h.027a.4.4,0,1,0,0-.806Z" transform="translate(-316.378 -448.999)"/></g><g transform="translate(0 0)"><g transform="translate(0 0)"><path class="a" d="M15.6,9.934a1.849,1.849,0,0,0-.179-.329h1.049a1.853,1.853,0,0,0,0-3.705H13.247A1.851,1.851,0,0,0,11.72,3H1.853a1.853,1.853,0,0,0,0,3.705H5.078a1.848,1.848,0,0,0,0,2.094H4.028a1.852,1.852,0,0,0-1.151,3.3,1.849,1.849,0,0,0,0,2.9,1.849,1.849,0,0,0,0,2.9,1.852,1.852,0,0,0,1.151,3.3H8.774A6.845,6.845,0,1,0,15.6,9.934Zm.87-3.229a1.047,1.047,0,0,1,0,2.094H6.605a1.047,1.047,0,1,1,0-2.094ZM1.853,5.9a1.047,1.047,0,0,1,0-2.094H11.72a1.047,1.047,0,1,1,0,2.094ZM4.028,9.605H13.9a1.047,1.047,0,0,1,.457.105c-.191-.016-.383-.025-.578-.025A6.826,6.826,0,0,0,8.929,11.7h-4.9a1.047,1.047,0,0,1,0-2.094Zm0,2.9H8.241A6.827,6.827,0,0,0,7.206,14.6H4.028a1.047,1.047,0,1,1,0-2.094Zm0,2.9H7.021A6.852,6.852,0,0,0,7,17.5H4.028a1.047,1.047,0,1,1,0-2.094Zm0,4.994a1.047,1.047,0,1,1,0-2.094H7.16A6.82,6.82,0,0,0,8.127,20.4Zm9.747,2.175a6.041,6.041,0,1,1,6.041-6.041A6.048,6.048,0,0,1,13.774,22.574Z" transform="translate(0 -3)"/></g></g></svg>
