<svg id="Layer_1" data-name="Layer 1" xmlns="http://www.w3.org/2000/svg" viewBox="0 0 40.55 36"><defs><style>.cls-1{fill:#000;}</style></defs><title>Untitled-1</title><path class="cls-1" d="M41.4,13a9.54,9.54,0,1,0-10.19,9.51v8.93c0,3.7-4.57,6.72-10.19,6.72s-10.2-3-10.2-6.72V23.8c4.37-.65,7.76-5.12,7.76-10.54V7.65a2.4,2.4,0,0,0,.05-.46A2.82,2.82,0,1,0,15.81,10a2.75,2.75,0,0,0,1.47-.43v3.68c0,5.14-3.38,9.32-7.54,9.32S2.2,18.4,2.2,13.26V9.58A2.75,2.75,0,0,0,3.67,10,2.82,2.82,0,1,0,.85,7.19a3.57,3.57,0,0,0,0,.46v5.61C.89,19,4.75,23.73,9.52,23.87v7.61c0,4.42,5.16,8,11.5,8s11.49-3.6,11.49-8V22.55A9.55,9.55,0,0,0,41.4,13ZM15.81,8.7a1.52,1.52,0,1,1,1.47-1.87v.71A1.5,1.5,0,0,1,15.81,8.7Zm-12.14-3a1.52,1.52,0,1,1,0,3A1.5,1.5,0,0,1,2.2,7.54V6.83A1.51,1.51,0,0,1,3.67,5.67ZM31.86,21.28A8.24,8.24,0,1,1,40.1,13,8.25,8.25,0,0,1,31.86,21.28Z" transform="translate(-0.85 -3.5)"/><path class="cls-1" d="M31.86,8A5.1,5.1,0,1,0,37,13,5.1,5.1,0,0,0,31.86,8Zm0,8.89a3.8,3.8,0,1,1,3.8-3.8A3.8,3.8,0,0,1,31.86,16.84Z" transform="translate(-0.85 -3.5)"/></svg>