<svg id="Layer_1" data-name="Layer 1" xmlns="http://www.w3.org/2000/svg" viewBox="0 0 26.62 35.75"><defs><style>.cls-1{fill:#fff;}</style></defs><title>Untitled-1</title><path class="cls-1" d="M31.72,2.75H13.84a2.1,2.1,0,0,0-2.09,2.09V8.07H9.28a2.1,2.1,0,0,0-2.09,2.1V36.41A2.1,2.1,0,0,0,9.28,38.5H27.16a2.1,2.1,0,0,0,2.09-2.09V33.18h2.47a2.1,2.1,0,0,0,2.09-2.1V4.84A2.1,2.1,0,0,0,31.72,2.75ZM28.11,36.41a1,1,0,0,1-.95,1H9.28a1,1,0,0,1-.95-1V10.17a1,1,0,0,1,.95-.95H27.16a1,1,0,0,1,.95.95Zm4.56-5.33a1,1,0,0,1-1,1H29.25V10.17a2.1,2.1,0,0,0-2.09-2.1H12.89V4.84a1,1,0,0,1,.95-.95H31.72a1,1,0,0,1,1,.95Z" transform="translate(-7.19 -2.75)"/><path class="cls-1" d="M24.49,20.94H11.94a.58.58,0,0,0-.57.57.57.57,0,0,0,.57.57H24.49a.56.56,0,0,0,.57-.57A.57.57,0,0,0,24.49,20.94Z" transform="translate(-7.19 -2.75)"/><path class="cls-1" d="M24.49,26.52H11.94a.58.58,0,0,0-.57.57.57.57,0,0,0,.57.57H24.49a.56.56,0,0,0,.57-.57A.57.57,0,0,0,24.49,26.52Z" transform="translate(-7.19 -2.75)"/><path class="cls-1" d="M24.49,31.4H11.94a.58.58,0,0,0-.57.57.57.57,0,0,0,.57.57H24.49a.56.56,0,0,0,.57-.57A.57.57,0,0,0,24.49,31.4Z" transform="translate(-7.19 -2.75)"/><path class="cls-1" d="M13.08,16.06v1.33a.57.57,0,0,0,.57.57.56.56,0,0,0,.57-.57V16.06h1.34a.57.57,0,0,0,.57-.57.58.58,0,0,0-.57-.57H14.22V13.59a.56.56,0,0,0-.57-.57.57.57,0,0,0-.57.57v1.33H11.75a.58.58,0,0,0-.57.57.57.57,0,0,0,.57.57Z" transform="translate(-7.19 -2.75)"/></svg>