<svg id="Layer_1" data-name="Layer 1" xmlns="http://www.w3.org/2000/svg" viewBox="0 0 35.63 35.63"><defs><style>.cls-1{fill:#fff;}</style></defs><title>Untitled-1</title><path class="cls-1" d="M36.68,2.88H5.56A2.25,2.25,0,0,0,3.31,5.13V36.25A2.25,2.25,0,0,0,5.56,38.5H36.68a2.25,2.25,0,0,0,2.25-2.25V5.13A2.25,2.25,0,0,0,36.68,2.88Zm1,33.37a1,1,0,0,1-1,1H5.56a1,1,0,0,1-1-1V5.13a1,1,0,0,1,1-1H36.68a1,1,0,0,1,1,1Z" transform="translate(-3.31 -2.88)"/><path class="cls-1" d="M25.39,21.32A6.85,6.85,0,0,0,27,16.92c0-3.57-2.63-6.47-5.85-6.47s-5.85,2.9-5.85,6.47a6.88,6.88,0,0,0,1.58,4.41A14.33,14.33,0,0,0,9.3,30.11a.61.61,0,0,0,.39.78.63.63,0,0,0,.19,0,.6.6,0,0,0,.58-.41,13,13,0,0,1,7.36-8.26,5.41,5.41,0,0,0,3.3,1.14,5.48,5.48,0,0,0,3.31-1.14,13,13,0,0,1,7.35,8.2.61.61,0,1,0,1.16-.4A14.37,14.37,0,0,0,25.39,21.32Zm-4.27.84c-2.55,0-4.62-2.35-4.62-5.24s2.07-5.24,4.62-5.24,4.62,2.35,4.62,5.24S23.67,22.16,21.12,22.16Z" transform="translate(-3.31 -2.88)"/></svg>