<svg width="11" height="10" viewBox="0 0 11 10" fill="none" xmlns="http://www.w3.org/2000/svg">
<path d="M9.40011 0.968967H8.4557V0.521244C8.4557 0.442054 8.42109 0.366107 8.3595 0.310111C8.2979 0.254115 8.21436 0.222656 8.12725 0.222656C8.04014 0.222656 7.9566 0.254115 7.895 0.310111C7.83341 0.366107 7.7988 0.442054 7.7988 0.521244V0.968967H3.2009V0.521244C3.2009 0.482033 3.1924 0.443206 3.17589 0.40698C3.15939 0.370753 3.13519 0.337837 3.1047 0.310111C3.0742 0.282384 3.03799 0.26039 2.99814 0.245385C2.95829 0.230379 2.91558 0.222656 2.87245 0.222656C2.82932 0.222656 2.78661 0.230379 2.74676 0.245385C2.70691 0.26039 2.6707 0.282384 2.6402 0.310111C2.6097 0.337837 2.58551 0.370753 2.569 0.40698C2.5525 0.443206 2.544 0.482033 2.544 0.521244V0.968967H1.59959C1.24037 0.969388 0.896015 1.09932 0.642047 1.33026C0.388079 1.5612 0.245243 1.87429 0.244873 2.20084L0.244873 8.5456C0.245336 8.8721 0.388213 9.18511 0.64217 9.41598C0.896128 9.64685 1.24044 9.77674 1.59959 9.77716H9.39976C9.75891 9.77674 10.1032 9.64685 10.3572 9.41598C10.6111 9.18511 10.754 8.8721 10.7545 8.5456V2.20084C10.7541 1.87434 10.6113 1.5613 10.3574 1.33037C10.1035 1.09944 9.75926 0.969472 9.40011 0.968967ZM10.0997 8.5456C10.0997 8.71427 10.026 8.87603 9.89478 8.9953C9.76359 9.11457 9.58565 9.18157 9.40011 9.18157H1.59959C1.41405 9.18157 1.23611 9.11457 1.10492 8.9953C0.973722 8.87603 0.900018 8.71427 0.900018 8.5456V3.6003C0.900018 3.57558 0.910816 3.55189 0.930036 3.53441C0.949256 3.51694 0.975323 3.50713 1.0025 3.50713H9.99195C10.0191 3.50713 10.0452 3.51694 10.0644 3.53441C10.0836 3.55189 10.0944 3.57558 10.0944 3.6003L10.0997 8.5456Z" fill="black" stroke="#000000" stroke-width="1.4"/>
</svg>
