<svg width="16" height="10" viewBox="0 0 16 10" fill="none" xmlns="http://www.w3.org/2000/svg">
    <path d="M12.0749 0.583984C11.4096 0.583984 10.753 0.774777 10.1757 1.13513C9.85409 1.33527 9.55938 1.58513 9.29922 1.8778L7.99984 3.3396L6.70016 1.87745C6.44 1.58478 6.14497 1.33492 5.82528 1.13622C5.24672 0.774778 4.58975 0.583984 3.92512 0.583984C1.76062 0.583984 0 2.56507 0 4.99975C0 7.43478 1.76062 9.41551 3.92512 9.41551C4.59009 9.41551 5.24703 9.22437 5.82338 8.86437C6.14497 8.66493 6.44 8.41472 6.7005 8.12169L7.99994 6.65983L9.29953 8.12169C9.56 8.41546 9.85538 8.66528 10.1744 8.86367C10.7523 9.22476 11.4096 9.41555 12.0749 9.41555C14.239 9.41551 16 7.43478 16 4.99975C16 2.56507 14.239 0.583984 12.0749 0.583984ZM5.22497 6.46134C5.10272 6.59887 4.96481 6.71587 4.8125 6.81019C4.53953 6.98119 4.24066 7.06761 3.92512 7.06761C2.91169 7.06761 2.08703 6.1399 2.08703 4.99975C2.08703 3.8596 2.91166 2.93189 3.92512 2.93189C4.24066 2.93189 4.53953 3.01866 4.81409 3.19001C4.9645 3.28325 5.10275 3.4006 5.22497 3.53778L6.52416 4.99975L5.22497 6.46134ZM12.0749 7.06796C11.759 7.06796 11.4602 6.98154 11.185 6.80949C11.0352 6.7166 10.8976 6.5996 10.7751 6.46172L9.47584 4.99975L10.7754 3.53816C10.8973 3.40063 11.0352 3.28363 11.1869 3.18931C11.4602 3.01901 11.7591 2.93228 12.0749 2.93228C13.0887 2.93228 13.913 3.85998 13.913 5.00014C13.913 6.14029 13.0886 7.06796 12.0749 7.06796Z" fill="black"/>
</svg>
