<svg width="12" height="12" viewBox="0 0 12 12" fill="none" xmlns="http://www.w3.org/2000/svg">
    <path d="M10.8795 9.88112L7.73125 4.05662V0.586841C7.73125 0.260292 7.45807 0 7.13179 0H3.91836C3.59181 0 3.32311 0.260292 3.32311 0.586841V4.05662L0.172255 9.88112C-0.0680557 10.3252 -0.0559613 10.8644 0.20249 11.2985C0.460942 11.7321 0.929731 12 1.43454 12H9.61534C10.1202 12 10.59 11.7321 10.8484 11.2985C11.1066 10.8644 11.1198 10.3252 10.8795 9.88112ZM6.0454 7.44436C6.32751 7.44436 6.55599 7.67284 6.55599 7.95495C6.55599 8.2368 6.32698 8.46555 6.0454 8.46555C5.76354 8.46555 5.5348 8.2368 5.5348 7.95495C5.5348 7.67363 5.76328 7.44436 6.0454 7.44436ZM4.60958 4.37423C4.8917 4.37423 5.12017 4.60297 5.12017 4.88508C5.12017 5.16693 4.8917 5.39568 4.60958 5.39568C4.32747 5.39568 4.09899 5.16693 4.09899 4.88508C4.09925 4.60297 4.32747 4.37423 4.60958 4.37423ZM4.60958 6.15683C5.06654 6.15683 5.43726 6.52755 5.43726 6.98425C5.43726 7.4412 5.06654 7.81166 4.60958 7.81166C4.15236 7.81166 3.7819 7.4412 3.7819 6.98425C3.7819 6.52729 4.15236 6.15683 4.60958 6.15683ZM9.36268 10.4017C9.25646 10.5826 9.06216 10.6893 8.85313 10.6893H2.19675C1.98746 10.6893 1.79343 10.5826 1.68721 10.4017C1.58099 10.2208 1.5781 9.99996 1.67985 9.81644L2.47992 8.37826C2.59402 8.17265 2.81909 8.05486 3.05309 8.07721C4.11555 8.17844 5.30974 9.08736 6.37694 9.04687C6.94853 9.02504 7.47911 8.81681 7.98444 8.53838C8.26971 8.38062 8.6286 8.48395 8.78688 8.76896L9.3703 9.81591C9.47153 9.99969 9.4689 10.2211 9.36268 10.4017Z" fill="#000"/>
</svg>
