<svg width="13" height="13" viewBox="0 0 13 13" fill="none" xmlns="http://www.w3.org/2000/svg">
    <path d="M10.0085 0.768819C8.9955 -0.244179 7.34853 -0.247533 6.33553 0.768819L3.79297 3.31138L7.46929 6.98769L10.0085 4.44177C11.0215 3.42542 11.0215 1.78182 10.0085 0.768819ZM7.4022 2.27154L6.24497 3.41201L6.24161 3.41536C6.10744 3.54618 5.89612 3.54282 5.76866 3.40865C5.63784 3.27448 5.64119 3.06316 5.77536 2.9357L6.93595 1.79523L6.93931 1.79188C7.07348 1.66106 7.2848 1.66442 7.41227 1.79859C7.53973 1.92941 7.53637 2.14408 7.4022 2.27154Z" fill="#000"/>
    <path d="M3.31657 3.78418L0.757234 6.34687C-0.252411 7.36323 -0.252411 9.00348 0.757234 10.0198C1.7803 11.0295 3.42726 11.0295 4.45032 10.0198L6.99624 7.46386L3.31657 3.78418Z" fill="#000"/>
    <path d="M12.4638 8.83594L8.84448 12.4586C9.87425 13.2469 11.3267 13.1529 12.2424 12.2372C13.1615 11.3215 13.2554 9.86571 12.4638 8.83594Z" fill="#000"/>
    <path d="M10.4175 7.8291C8.99196 7.8291 7.83472 8.98298 7.83472 10.4119C7.83472 10.9821 8.02256 11.5356 8.36805 11.9851L11.9874 8.36579C11.5379 8.01694 10.9878 7.8291 10.4175 7.8291Z" fill="#000"/>
</svg>
