<svg width="14" height="12" viewBox="0 0 14 12" fill="none" xmlns="http://www.w3.org/2000/svg">
<path d="M13.6101 5.32986L8.51399 0.344033C8.43449 0.267116 8.33258 0.214782 8.22149 0.193826C8.11041 0.172871 7.99529 0.184262 7.89108 0.226523C7.78687 0.268784 7.69839 0.33996 7.63713 0.430807C7.57587 0.521655 7.54466 0.627977 7.54756 0.735962V2.95528C5.93668 3.03554 4.3931 3.59718 3.13535 4.56066C1.87761 5.52414 0.969446 6.84065 0.539455 8.32377C0.268151 9.22755 0.148567 10.1666 0.185143 11.1061C0.188024 11.2129 0.188744 11.2435 0.188744 11.2661C0.185348 11.3859 0.223905 11.5032 0.298313 11.5997C0.37272 11.6962 0.478728 11.7662 0.599556 11.7987C0.720385 11.8313 0.849132 11.8244 0.965421 11.7793C1.08171 11.7341 1.1789 11.6533 1.2416 11.5495C1.78532 10.6182 2.50868 9.79329 3.37359 9.11827C3.949 8.65714 4.61411 8.30882 5.33084 8.09327C6.04757 7.87772 6.80184 7.79916 7.55044 7.86211V10.7131C7.54754 10.8211 7.57875 10.9274 7.64001 11.0183C7.70127 11.1091 7.78975 11.1803 7.89396 11.2226C7.99817 11.2648 8.11329 11.2762 8.22437 11.2553C8.33546 11.2343 8.43737 11.182 8.51687 11.105L13.6101 6.11509C13.717 6.00982 13.7767 5.86902 13.7767 5.72248C13.7767 5.57593 13.717 5.43513 13.6101 5.32986ZM8.67999 9.3728V7.38568C8.68105 7.2636 8.63963 7.14464 8.56222 7.04742C8.48481 6.9502 8.37578 6.88023 8.25222 6.84845C8.14057 6.82271 8.0276 6.80253 7.91375 6.788C6.98364 6.67051 6.03807 6.73885 5.13714 6.9887C4.2362 7.23854 3.39959 7.66441 2.68045 8.23927C2.22877 8.58183 1.81319 8.96561 1.43964 9.38517L1.44828 9.34085C1.49329 9.11346 1.55126 8.87851 1.624 8.63119C2.0089 7.30407 2.84347 6.13582 3.99749 5.3087C5.15152 4.48159 6.56008 4.04215 8.00341 4.05893L8.09415 4.06099C8.17109 4.06261 8.24759 4.04944 8.31907 4.02225C8.39056 3.99506 8.45558 3.95442 8.51025 3.90275C8.56493 3.85107 8.60813 3.78943 8.63729 3.72148C8.66645 3.65354 8.68097 3.58069 8.67999 3.50728V2.07353L12.4085 5.72317L8.67999 9.3728Z" fill="#000" stroke="#000"/>
</svg>
