<svg width="12" height="13" viewBox="0 0 12 13" fill="none" xmlns="http://www.w3.org/2000/svg">
    <path d="M5.65104 0C4.10498 0 2.9209 1.55055 2.9209 3.39774C2.9209 5.24493 4.10548 6.79549 5.65104 6.79549C7.1971 6.79549 8.38564 5.24493 8.38564 3.39774C8.38564 1.55055 7.19657 0 5.65104 0ZM4.47715 7.09094C2.23736 7.39101 0.42691 8.43261 0.0109629 9.92082C-0.00365429 9.97333 -0.00365429 10.0299 0.0109629 10.0824C0.257768 10.9636 1.01001 11.685 2.02593 12.1921C3.04241 12.6993 4.33826 13 5.75449 13C7.17128 13 8.47168 12.6993 9.48766 12.1921C10.5041 11.6849 11.2558 10.9635 11.5026 10.0824C11.5172 10.0299 11.5172 9.97334 11.5026 9.92082C11.086 8.43261 9.27623 7.39098 7.03645 7.09094C6.94368 7.07882 6.84642 7.11633 6.78458 7.18789L5.75461 8.39741L4.72913 7.18789C4.66729 7.11633 4.56991 7.07882 4.47715 7.09094Z" fill="#000"/>
</svg>
