<svg width="78" height="63" viewBox="0 0 78 63" fill="none" xmlns="http://www.w3.org/2000/svg">
<path d="M0 23.0311C0 18.6902 0.884655 14.892 2.65397 11.6364C4.42328 8.32367 6.87748 5.66777 10.0166 3.6687C13.1557 1.66964 16.8084 0.4702 20.9749 0.0703893C25.1413 -0.386541 34.0013 1.4765 38.7385 2.9044C38.7385 5.07481 38.7385 7.27379 38.7385 9.50132C38.7385 11.7288 38.7385 13.9278 38.7385 16.0982C35.4282 14.499 27.8524 12.3789 24.8274 12.4931C21.8025 12.6074 19.3197 13.5498 17.3792 15.3204C15.4387 17.0339 14.4684 19.6041 14.4684 23.0311C14.4684 26.458 15.4387 29.0568 17.3792 30.8274C19.3197 32.5409 21.8025 33.4548 24.8274 33.569C27.8524 33.6261 35.4051 31.1296 38.7154 29.5874C42.842 40.3249 42.842 40.3249 42.842 40.3249C42.842 40.3249 41.5265 41.0268 37.8384 42.7813C33.1006 45.0351 25.1413 46.4487 20.9749 45.9917C16.8084 45.5919 13.1557 44.3925 10.0166 42.3934C6.87748 40.3944 4.42328 37.767 2.65397 34.5114C0.884655 31.1987 0 27.3719 0 23.0311Z" fill="#F26749"/>
<path d="M77.2808 23.0311C77.2808 18.6902 76.3961 14.892 74.6268 11.6364C72.8575 8.32367 70.4033 5.66777 67.2642 3.6687C64.1251 1.66964 60.4723 0.4702 56.3059 0.0703893C52.1394 -0.386541 43.3483 1.4765 38.6111 2.9044C38.6111 5.07481 38.6111 7.27379 38.6111 9.50132C38.6111 11.7288 38.6111 13.9278 38.6111 16.0982C41.9215 14.499 49.4284 12.3789 52.4533 12.4931C55.4783 12.6074 57.961 13.5498 59.9016 15.3204C61.8421 17.0339 62.8124 19.6041 62.8124 23.0311C62.8124 26.458 61.8421 29.0568 59.9016 30.8274C57.961 32.5409 55.4783 33.4548 52.4533 33.569C49.4284 33.6261 41.8757 31.1296 38.5654 29.5874C34.4388 40.3249 34.4388 40.3249 34.4388 40.3249C34.4388 40.3249 35.7543 41.0268 39.4424 42.7813C44.1802 45.0351 52.1394 46.4487 56.3059 45.9917C60.4723 45.5919 64.1251 44.3925 67.2642 42.3934C70.4033 40.3944 72.8575 37.767 74.6268 34.5114C76.3961 31.1987 77.2808 27.3719 77.2808 23.0311Z" fill="#F26749"/>
<path d="M0.750488 57.6271C0.750488 56.955 0.862313 56.344 1.08596 55.7941C1.31893 55.2355 1.64508 54.7511 2.06443 54.3409C2.48377 53.9306 2.98698 53.612 3.57406 53.3851C4.16114 53.1582 4.80879 53.036 5.51701 53.0185C6.23455 53.0011 6.99869 53.1058 7.80941 53.3327C7.80941 53.6993 7.80941 54.0703 7.80941 54.4456C7.80941 54.8122 7.80941 55.1788 7.80941 55.5454C7.25961 55.301 6.71447 55.1613 6.17398 55.1264C5.63349 55.0915 5.14426 55.1613 4.70628 55.3359C4.2683 55.5104 3.91885 55.7898 3.65793 56.1738C3.397 56.5491 3.26654 57.0335 3.26654 57.6271C3.26654 58.2206 3.397 58.7094 3.65793 59.0934C3.91885 59.4687 4.2683 59.7437 4.70628 59.9182C5.14426 60.0928 5.63349 60.1626 6.17398 60.1277C6.71447 60.0928 7.25961 59.9532 7.80941 59.7088C7.80941 60.0754 7.80941 60.4463 7.80941 60.8216C7.80941 61.1882 7.80941 61.5548 7.80941 61.9214C6.99869 62.1483 6.23455 62.2531 5.51701 62.2356C4.80879 62.2182 4.16114 62.096 3.57406 61.869C2.98698 61.6421 2.48377 61.3235 2.06443 60.9133C1.64508 60.503 1.31893 60.023 1.08596 59.4731C0.862313 58.9145 0.750488 58.2991 0.750488 57.6271Z" fill="#FDFCFB"/>
<path d="M16.0276 55.3097C16.0276 56.4269 16.0276 57.5572 16.0276 58.7006C16.0276 59.8353 16.0276 60.9613 16.0276 62.0785C15.6549 62.0785 15.2728 62.0785 14.8814 62.0785C14.4901 62.0785 14.1033 62.0785 13.7213 62.0785C13.7213 62.0174 13.7213 61.9607 13.7213 61.9083C13.7213 61.8559 13.7213 61.7992 13.7213 61.7381C13.4697 61.9039 13.1854 62.0305 12.8686 62.1178C12.5611 62.2138 12.2256 62.2618 11.8622 62.2618C11.331 62.2618 10.8604 62.1483 10.4504 61.9214C10.0497 61.6945 9.73285 61.3671 9.49989 60.9395C9.27624 60.5118 9.16441 60.0055 9.16441 59.4207C9.16441 58.7399 9.16441 58.0547 9.16441 57.3652C9.16441 56.6757 9.16441 55.9905 9.16441 55.3097C9.54648 55.3097 9.93321 55.3097 10.3246 55.3097C10.716 55.3097 11.098 55.3097 11.4708 55.3097C11.4708 55.9381 11.4708 56.5753 11.4708 57.2212C11.4708 57.8671 11.4708 58.5043 11.4708 59.1327C11.4708 59.4818 11.5547 59.7655 11.7224 59.9837C11.8995 60.1932 12.1744 60.2979 12.5471 60.2979C12.9199 60.2979 13.2087 60.1976 13.4137 59.9968C13.6188 59.796 13.7213 59.508 13.7213 59.1327C13.7213 58.5043 13.7213 57.8671 13.7213 57.2212C13.7213 56.5753 13.7213 55.9381 13.7213 55.3097C14.1033 55.3097 14.4901 55.3097 14.8814 55.3097C15.2728 55.3097 15.6549 55.3097 16.0276 55.3097Z" fill="#FDFCFB"/>
<path d="M17.5621 62.0785C17.5621 60.9613 17.5621 59.8353 17.5621 58.7006C17.5621 57.5572 17.5621 56.4269 17.5621 55.3097C17.9441 55.3097 18.3309 55.3097 18.7222 55.3097C19.1136 55.3097 19.4957 55.3097 19.8684 55.3097C19.8684 55.3708 19.8684 55.4319 19.8684 55.493C19.8684 55.5541 19.8684 55.6152 19.8684 55.6763C20.1573 55.4843 20.4835 55.3402 20.8469 55.2442C21.2103 55.1482 21.6064 55.122 22.035 55.1657C22.035 55.5148 22.035 55.8683 22.035 56.2262C22.035 56.584 22.035 56.9375 22.035 57.2867C21.2989 57.1906 20.7537 57.2517 20.3996 57.47C20.0455 57.6794 19.8684 58.0242 19.8684 58.5043C19.8684 59.0891 19.8684 59.6826 19.8684 60.2848C19.8684 60.8871 19.8684 61.485 19.8684 62.0785C19.4957 62.0785 19.1136 62.0785 18.7222 62.0785C18.3309 62.0785 17.9441 62.0785 17.5621 62.0785Z" fill="#FDFCFB"/>
<path d="M26.2359 62.2749C25.5556 62.2749 24.9453 62.1614 24.4048 61.9345C23.8643 61.6988 23.4356 61.3715 23.1188 60.9526C22.8113 60.5336 22.6575 60.0448 22.6575 59.4862C22.6575 59.0236 22.76 58.6221 22.965 58.2817C23.1794 57.9413 23.4682 57.6663 23.8317 57.4569C23.5242 57.2561 23.2819 57.0074 23.1048 56.7106C22.9371 56.4138 22.8532 56.0647 22.8532 55.6632C22.8532 55.1395 22.9976 54.6769 23.2865 54.2754C23.5847 53.8739 23.9901 53.5597 24.5026 53.3327C25.0151 53.0971 25.5929 52.9792 26.2359 52.9792C26.8789 52.9792 27.452 53.0971 27.9552 53.3327C28.4677 53.5597 28.8684 53.8739 29.1573 54.2754C29.4462 54.6769 29.5906 55.1395 29.5906 55.6632C29.5906 56.0647 29.5021 56.4138 29.3251 56.7106C29.1573 57.0074 28.9243 57.2561 28.6261 57.4569C28.9803 57.6663 29.2598 57.9413 29.4648 58.2817C29.6792 58.6221 29.7863 59.0236 29.7863 59.4862C29.7863 60.0448 29.6279 60.5336 29.3111 60.9526C29.0036 61.3715 28.5842 61.6988 28.053 61.9345C27.5219 62.1614 26.9162 62.2749 26.2359 62.2749ZM26.2359 56.6189C26.5341 56.6189 26.7717 56.5404 26.9488 56.3833C27.1258 56.2262 27.2144 56.0254 27.2144 55.781C27.2144 55.5454 27.1258 55.3533 26.9488 55.205C26.7717 55.0566 26.5341 54.9824 26.2359 54.9824C25.9377 54.9824 25.6954 55.0566 25.509 55.205C25.3227 55.3533 25.2295 55.5454 25.2295 55.781C25.2295 56.0254 25.3227 56.2262 25.509 56.3833C25.7047 56.5404 25.947 56.6189 26.2359 56.6189ZM26.2359 60.2717C26.5621 60.2717 26.8323 60.1801 27.0466 59.9968C27.261 59.8135 27.3681 59.5822 27.3681 59.3029C27.3681 59.0061 27.261 58.7705 27.0466 58.5959C26.8323 58.4126 26.5621 58.321 26.2359 58.321C25.9097 58.321 25.6348 58.4126 25.4112 58.5959C25.1875 58.7705 25.0757 59.0061 25.0757 59.3029C25.0757 59.5822 25.1875 59.8135 25.4112 59.9968C25.6348 60.1801 25.9097 60.2717 26.2359 60.2717Z" fill="#FDFCFB"/>
<path d="M36.4194 62.0785C36.0187 62.0785 35.6133 62.0785 35.2033 62.0785C34.7932 62.0785 34.3832 62.0785 33.9732 62.0785C33.9732 60.6121 33.9732 59.1283 33.9732 57.6271C33.9732 56.1258 33.9732 54.642 33.9732 53.1756C34.3832 53.1756 34.7932 53.1756 35.2033 53.1756C35.6133 53.1756 36.0187 53.1756 36.4194 53.1756C36.4194 53.708 36.4194 54.2448 36.4194 54.786C36.4194 55.3184 36.4194 55.8508 36.4194 56.3833C36.9132 56.3833 37.4118 56.3833 37.915 56.3833C38.4182 56.3833 38.9121 56.3833 39.3967 56.3833C39.3967 55.8508 39.3967 55.3184 39.3967 54.786C39.3967 54.2448 39.3967 53.708 39.3967 53.1756C39.8067 53.1756 40.2167 53.1756 40.6268 53.1756C41.0368 53.1756 41.4421 53.1756 41.8428 53.1756C41.8428 54.642 41.8428 56.1258 41.8428 57.6271C41.8428 59.1283 41.8428 60.6121 41.8428 62.0785C41.4421 62.0785 41.0368 62.0785 40.6268 62.0785C40.2167 62.0785 39.8067 62.0785 39.3967 62.0785C39.3967 61.485 39.3967 60.8871 39.3967 60.2848C39.3967 59.6739 39.3967 59.076 39.3967 58.4912C38.9121 58.4912 38.4182 58.4912 37.915 58.4912C37.4118 58.4912 36.9132 58.4912 36.4194 58.4912C36.4194 59.076 36.4194 59.6739 36.4194 60.2848C36.4194 60.8871 36.4194 61.485 36.4194 62.0785Z" fill="#FDFCFB"/>
<path d="M49.7455 61.7643C49.1025 62.0174 48.4642 62.1745 47.8305 62.2356C47.1968 62.2967 46.5958 62.2618 46.0273 62.1309C45.4682 62.0087 44.9696 61.7948 44.5317 61.4893C44.0937 61.1839 43.7489 60.7954 43.4973 60.3241C43.255 59.8528 43.1339 59.3073 43.1339 58.6876C43.1339 58.1726 43.2224 57.7013 43.3994 57.2736C43.5858 56.8371 43.8467 56.4575 44.1822 56.1345C44.5177 55.8028 44.9137 55.5497 45.3703 55.3752C45.827 55.1919 46.3255 55.1002 46.866 55.1002C47.3506 55.1002 47.7886 55.1744 48.1799 55.3228C48.5713 55.4712 48.9115 55.6806 49.2003 55.9512C49.4892 56.2131 49.7222 56.5273 49.8992 56.8939C50.0763 57.2605 50.1881 57.662 50.2347 58.0984C50.2813 58.5348 50.2534 58.9974 50.1508 59.4862C49.3867 59.4862 48.6179 59.4862 47.8445 59.4862C47.071 59.4862 46.3022 59.4862 45.5381 59.4862C45.7151 59.8179 46.0087 60.0535 46.4187 60.1932C46.838 60.3328 47.3319 60.3765 47.9004 60.3241C48.4781 60.2717 49.0932 60.1321 49.7455 59.9052C49.7455 60.2106 49.7455 60.5205 49.7455 60.8347C49.7455 61.1489 49.7455 61.4588 49.7455 61.7643ZM46.8101 57.0379C46.5398 57.0379 46.2882 57.1077 46.0553 57.2474C45.8316 57.387 45.6592 57.6009 45.5381 57.8889C45.9574 57.8889 46.3768 57.8889 46.7961 57.8889C47.2248 57.8889 47.6488 57.8889 48.0681 57.8889C47.9563 57.5921 47.7886 57.3783 47.5649 57.2474C47.3506 57.1077 47.099 57.0379 46.8101 57.0379Z" fill="#FDFCFB"/>
<path d="M56.2786 62.0785C56.2786 62.0087 56.2786 61.9432 56.2786 61.8821C56.2786 61.8123 56.2786 61.7468 56.2786 61.6857C56.0456 61.869 55.78 62.0087 55.4818 62.1047C55.193 62.2094 54.8808 62.2618 54.5453 62.2618C54.0701 62.2618 53.6228 62.1789 53.2034 62.013C52.7841 61.8385 52.4113 61.5941 52.0852 61.2799C51.7683 60.9569 51.5167 60.5772 51.3304 60.1408C51.1533 59.7044 51.0648 59.22 51.0648 58.6876C51.0648 58.1464 51.1533 57.6576 51.3304 57.2212C51.5167 56.7848 51.7683 56.4138 52.0852 56.1083C52.4113 55.7941 52.7841 55.5541 53.2034 55.3882C53.6228 55.2137 54.0654 55.1264 54.5313 55.1264C54.8668 55.1264 55.1836 55.1788 55.4818 55.2835C55.78 55.3795 56.0456 55.5148 56.2786 55.6894C56.2786 55.6195 56.2786 55.5541 56.2786 55.493C56.2786 55.4319 56.2786 55.3708 56.2786 55.3097C56.6607 55.3097 57.0474 55.3097 57.4388 55.3097C57.8302 55.3097 58.2122 55.3097 58.585 55.3097C58.585 56.4269 58.585 57.5572 58.585 58.7006C58.585 59.8353 58.585 60.9613 58.585 62.0785C58.2122 62.0785 57.8302 62.0785 57.4388 62.0785C57.0474 62.0785 56.6607 62.0785 56.2786 62.0785ZM54.8528 60.3503C55.3001 60.3503 55.6589 60.1976 55.9291 59.8921C56.1994 59.5866 56.3345 59.1851 56.3345 58.6876C56.3345 58.19 56.1994 57.7929 55.9291 57.4961C55.6589 57.1906 55.3001 57.0379 54.8528 57.0379C54.3962 57.0379 54.0328 57.1863 53.7625 57.483C53.5016 57.7798 53.3712 58.1813 53.3712 58.6876C53.3712 59.1938 53.5016 59.5997 53.7625 59.9052C54.0328 60.2019 54.3962 60.3503 54.8528 60.3503Z" fill="#FDFCFB"/>
<path d="M60.1941 62.0785C60.1941 60.4987 60.1941 58.9058 60.1941 57.2997C60.1941 55.6937 60.1941 54.1008 60.1941 52.521C60.5762 52.521 60.9629 52.521 61.3543 52.521C61.7457 52.521 62.1277 52.521 62.5005 52.521C62.5005 54.1008 62.5005 55.6937 62.5005 57.2997C62.5005 58.9058 62.5005 60.4987 62.5005 62.0785C62.1277 62.0785 61.7457 62.0785 61.3543 62.0785C60.9629 62.0785 60.5762 62.0785 60.1941 62.0785Z" fill="#FDFCFB"/>
<path d="M64.865 62.0785C64.865 61.2755 64.865 60.4681 64.865 59.6564C64.865 58.8447 64.865 58.0417 64.865 57.2474C64.6786 57.2474 64.4875 57.2474 64.2919 57.2474C64.1055 57.2474 63.9191 57.2474 63.7327 57.2474C63.7327 56.9244 63.7327 56.6015 63.7327 56.2785C63.7327 55.9556 63.7327 55.6326 63.7327 55.3097C63.9191 55.3097 64.1055 55.3097 64.2919 55.3097C64.4875 55.3097 64.6786 55.3097 64.865 55.3097C64.865 55.0042 64.865 54.7031 64.865 54.4063C64.865 54.1008 64.865 53.7997 64.865 53.5029C65.247 53.5029 65.6338 53.5029 66.0251 53.5029C66.4165 53.5029 66.7986 53.5029 67.1713 53.5029C67.1713 53.7997 67.1713 54.1008 67.1713 54.4063C67.1713 54.7031 67.1713 55.0042 67.1713 55.3097C67.3857 55.3097 67.6047 55.3097 67.8283 55.3097C68.052 55.3097 68.2709 55.3097 68.4853 55.3097C68.4853 55.6326 68.4853 55.9556 68.4853 56.2785C68.4853 56.6015 68.4853 56.9244 68.4853 57.2474C68.2709 57.2474 68.052 57.2474 67.8283 57.2474C67.6047 57.2474 67.3857 57.2474 67.1713 57.2474C67.1713 58.0417 67.1713 58.8447 67.1713 59.6564C67.1713 60.4681 67.1713 61.2755 67.1713 62.0785C66.7986 62.0785 66.4165 62.0785 66.0251 62.0785C65.6338 62.0785 65.247 62.0785 64.865 62.0785Z" fill="#FDFCFB"/>
<path d="M69.6675 62.0785C69.6675 60.4987 69.6675 58.9058 69.6675 57.2997C69.6675 55.6937 69.6675 54.1008 69.6675 52.521C70.0496 52.521 70.4363 52.521 70.8277 52.521C71.2191 52.521 71.6011 52.521 71.9739 52.521C71.9739 53.036 71.9739 53.5597 71.9739 54.0921C71.9739 54.6158 71.9739 55.1351 71.9739 55.6501C72.2255 55.4843 72.5051 55.3577 72.8126 55.2704C73.1294 55.1744 73.4696 55.1264 73.833 55.1264C74.3642 55.1264 74.8301 55.2399 75.2308 55.4668C75.6408 55.6937 75.9576 56.0211 76.1813 56.4487C76.4143 56.8677 76.5307 57.3739 76.5307 57.9675C76.5307 58.6483 76.5307 59.3334 76.5307 60.023C76.5307 60.7125 76.5307 61.3977 76.5307 62.0785C76.158 62.0785 75.7759 62.0785 75.3846 62.0785C74.9932 62.0785 74.6064 62.0785 74.2244 62.0785C74.2244 61.4501 74.2244 60.8129 74.2244 60.167C74.2244 59.5211 74.2244 58.8839 74.2244 58.2555C74.2244 57.9064 74.1358 57.6271 73.9588 57.4176C73.791 57.1994 73.5208 57.0903 73.1481 57.0903C72.7753 57.0903 72.4864 57.1906 72.2814 57.3914C72.0764 57.5921 71.9739 57.8802 71.9739 58.2555C71.9739 58.8839 71.9739 59.5211 71.9739 60.167C71.9739 60.8129 71.9739 61.4501 71.9739 62.0785C71.6011 62.0785 71.2191 62.0785 70.8277 62.0785C70.4363 62.0785 70.0496 62.0785 69.6675 62.0785Z" fill="#FDFCFB"/>
</svg>
