<svg width="354" height="95" viewBox="0 0 354 95" fill="none" xmlns="http://www.w3.org/2000/svg">
<path d="M0 31.8589C0 25.9668 1.20081 20.8112 3.60242 16.3921C6.00403 11.8955 9.33529 8.29043 13.5962 5.57696C17.8571 2.86349 22.8153 1.2354 28.4707 0.692712C34.1261 0.072489 46.1524 2.60133 52.5825 4.53952C52.5825 7.48557 52.5825 10.4704 52.5825 13.494C52.5825 16.5176 52.5825 19.5024 52.5825 22.4484C48.0892 20.2777 37.806 17.3999 33.7 17.555C29.594 17.7101 26.224 18.9893 23.59 21.3926C20.956 23.7185 19.639 27.2072 19.639 31.8589C19.639 36.5105 20.956 40.038 23.59 42.4414C26.224 44.7672 29.594 46.0077 33.7 46.1627C37.806 46.2403 48.0578 42.8515 52.5511 40.7583C58.1525 55.333 58.1525 55.333 58.1525 55.333C58.1525 55.333 56.3668 56.2857 51.3607 58.6672C44.9298 61.7265 34.1261 63.6453 28.4707 63.025C22.8153 62.4823 17.8571 60.8543 13.5962 58.1408C9.33529 55.4273 6.00403 51.861 3.60242 47.4419C1.20081 42.9453 0 37.751 0 31.8589Z" fill="#F26749"/>
<path d="M104.898 31.8589C104.898 25.9668 103.697 20.8112 101.296 16.3921C98.8939 11.8955 95.5627 8.29043 91.3017 5.57696C87.0408 2.86349 82.0826 1.2354 76.4272 0.692712C70.7718 0.072489 58.839 2.60133 52.4089 4.53952C52.4089 7.48557 52.4089 10.4704 52.4089 13.494C52.4089 16.5176 52.4089 19.5024 52.4089 22.4484C56.9022 20.2777 67.0919 17.3999 71.1979 17.555C75.3039 17.7101 78.6739 18.9893 81.3079 21.3926C83.942 23.7185 85.259 27.2072 85.259 31.8589C85.259 36.5105 83.942 40.038 81.3079 42.4414C78.6739 44.7672 75.3039 46.0077 71.1979 46.1627C67.0919 46.2403 56.8401 42.8515 52.3468 40.7583C46.7455 55.333 46.7455 55.333 46.7455 55.333C46.7455 55.333 48.5311 56.2857 53.5372 58.6672C59.9682 61.7265 70.7718 63.6453 76.4272 63.025C82.0826 62.4823 87.0408 60.8543 91.3017 58.1408C95.5627 55.4273 98.8939 51.861 101.296 47.4419C103.697 42.9453 104.898 37.751 104.898 31.8589Z" fill="#F26749"/>
<path d="M126 32.7047C126 30.6376 126.333 28.7584 127 27.0671C127.695 25.349 128.668 23.8591 129.919 22.5973C131.169 21.3356 132.67 20.3557 134.421 19.6577C136.172 18.9597 138.103 18.5839 140.215 18.5302C142.355 18.4765 144.634 18.7987 147.052 19.4966C147.052 20.6242 147.052 21.7651 147.052 22.9195C147.052 24.047 147.052 25.1745 147.052 26.302C145.412 25.5503 143.786 25.1208 142.175 25.0134C140.563 24.906 139.104 25.1208 137.797 25.6577C136.491 26.1946 135.449 27.0537 134.671 28.2349C133.893 29.3893 133.504 30.8792 133.504 32.7047C133.504 34.5302 133.893 36.0336 134.671 37.2148C135.449 38.3691 136.491 39.2148 137.797 39.7517C139.104 40.2886 140.563 40.5034 142.175 40.396C143.786 40.2886 145.412 39.8591 147.052 39.1074C147.052 40.2349 147.052 41.3758 147.052 42.5302C147.052 43.6577 147.052 44.7852 147.052 45.9128C144.634 46.6107 142.355 46.9329 140.215 46.8792C138.103 46.8255 136.172 46.4497 134.421 45.7517C132.67 45.0537 131.169 44.0738 129.919 42.8121C128.668 41.5503 127.695 40.0738 127 38.3825C126.333 36.6644 126 34.7718 126 32.7047Z" fill="#FDFCFB" fill-opacity="0.5"/>
<path d="M171.561 25.5772C171.561 29.0134 171.561 32.4899 171.561 36.0067C171.561 39.4966 171.561 42.9597 171.561 46.396C170.45 46.396 169.31 46.396 168.143 46.396C166.976 46.396 165.822 46.396 164.683 46.396C164.683 46.2081 164.683 46.0336 164.683 45.8725C164.683 45.7114 164.683 45.5369 164.683 45.349C163.932 45.8591 163.085 46.2483 162.14 46.5168C161.223 46.8121 160.222 46.9597 159.138 46.9597C157.554 46.9597 156.151 46.6107 154.928 45.9128C153.733 45.2148 152.788 44.2081 152.093 42.8926C151.426 41.5772 151.093 40.0201 151.093 38.2215C151.093 36.1275 151.093 34.0201 151.093 31.8993C151.093 29.7785 151.093 27.6711 151.093 25.5772C152.232 25.5772 153.386 25.5772 154.553 25.5772C155.72 25.5772 156.86 25.5772 157.971 25.5772C157.971 27.5101 157.971 29.4698 157.971 31.4564C157.971 33.443 157.971 35.4027 157.971 37.3356C157.971 38.4094 158.221 39.2819 158.722 39.953C159.25 40.5973 160.069 40.9195 161.181 40.9195C162.293 40.9195 163.154 40.6107 163.766 39.9933C164.377 39.3758 164.683 38.4899 164.683 37.3356C164.683 35.4027 164.683 33.443 164.683 31.4564C164.683 29.4698 164.683 27.5101 164.683 25.5772C165.822 25.5772 166.976 25.5772 168.143 25.5772C169.31 25.5772 170.45 25.5772 171.561 25.5772Z" fill="#FDFCFB" fill-opacity="0.5"/>
<path d="M176.137 46.396C176.137 42.9597 176.137 39.4966 176.137 36.0067C176.137 32.4899 176.137 29.0134 176.137 25.5772C177.277 25.5772 178.43 25.5772 179.597 25.5772C180.765 25.5772 181.904 25.5772 183.016 25.5772C183.016 25.7651 183.016 25.953 183.016 26.1409C183.016 26.3289 183.016 26.5168 183.016 26.7047C183.877 26.1141 184.85 25.6711 185.934 25.3758C187.018 25.0805 188.199 25 189.477 25.1342C189.477 26.2081 189.477 27.2953 189.477 28.396C189.477 29.4966 189.477 30.5839 189.477 31.6577C187.282 31.3624 185.656 31.5503 184.6 32.2215C183.544 32.8658 183.016 33.9262 183.016 35.4027C183.016 37.2013 183.016 39.0268 183.016 40.8792C183.016 42.7315 183.016 44.5705 183.016 46.396C181.904 46.396 180.765 46.396 179.597 46.396C178.43 46.396 177.277 46.396 176.137 46.396Z" fill="#FDFCFB" fill-opacity="0.5"/>
<path d="M202.005 47C199.977 47 198.156 46.651 196.544 45.953C194.932 45.2282 193.654 44.2215 192.709 42.9329C191.792 41.6443 191.333 40.1409 191.333 38.4228C191.333 37 191.639 35.7651 192.251 34.7181C192.89 33.6711 193.751 32.8255 194.835 32.1812C193.918 31.5638 193.195 30.7987 192.667 29.8859C192.167 28.9732 191.917 27.8993 191.917 26.6644C191.917 25.0537 192.348 23.6309 193.209 22.396C194.099 21.1611 195.308 20.1946 196.836 19.4966C198.365 18.7718 200.088 18.4094 202.005 18.4094C203.923 18.4094 205.632 18.7718 207.133 19.4966C208.661 20.1946 209.856 21.1611 210.718 22.396C211.579 23.6309 212.01 25.0537 212.01 26.6644C212.01 27.8993 211.746 28.9732 211.218 29.8859C210.718 30.7987 210.023 31.5638 209.134 32.1812C210.19 32.8255 211.024 33.6711 211.635 34.7181C212.274 35.7651 212.594 37 212.594 38.4228C212.594 40.1409 212.121 41.6443 211.176 42.9329C210.259 44.2215 209.009 45.2282 207.425 45.953C205.841 46.651 204.034 47 202.005 47ZM202.005 29.604C202.895 29.604 203.603 29.3624 204.131 28.8792C204.659 28.396 204.923 27.7785 204.923 27.0268C204.923 26.302 204.659 25.7114 204.131 25.255C203.603 24.7987 202.895 24.5705 202.005 24.5705C201.116 24.5705 200.393 24.7987 199.838 25.255C199.282 25.7114 199.004 26.302 199.004 27.0268C199.004 27.7785 199.282 28.396 199.838 28.8792C200.421 29.3624 201.144 29.604 202.005 29.604ZM202.005 40.8389C202.978 40.8389 203.784 40.557 204.423 39.9933C205.062 39.4295 205.382 38.7181 205.382 37.8591C205.382 36.9463 205.062 36.2215 204.423 35.6846C203.784 35.1208 202.978 34.8389 202.005 34.8389C201.033 34.8389 200.213 35.1208 199.546 35.6846C198.879 36.2215 198.545 36.9463 198.545 37.8591C198.545 38.7181 198.879 39.4295 199.546 39.9933C200.213 40.557 201.033 40.8389 202.005 40.8389Z" fill="#FDFCFB" fill-opacity="0.5"/>
<path d="M232.376 46.396C231.181 46.396 229.972 46.396 228.749 46.396C227.526 46.396 226.303 46.396 225.08 46.396C225.08 41.8859 225.08 37.3221 225.08 32.7047C225.08 28.0872 225.08 23.5235 225.08 19.0134C226.303 19.0134 227.526 19.0134 228.749 19.0134C229.972 19.0134 231.181 19.0134 232.376 19.0134C232.376 20.651 232.376 22.302 232.376 23.9664C232.376 25.604 232.376 27.2416 232.376 28.8792C233.848 28.8792 235.335 28.8792 236.836 28.8792C238.337 28.8792 239.81 28.8792 241.255 28.8792C241.255 27.2416 241.255 25.604 241.255 23.9664C241.255 22.302 241.255 20.651 241.255 19.0134C242.478 19.0134 243.7 19.0134 244.923 19.0134C246.146 19.0134 247.355 19.0134 248.55 19.0134C248.55 23.5235 248.55 28.0872 248.55 32.7047C248.55 37.3221 248.55 41.8859 248.55 46.396C247.355 46.396 246.146 46.396 244.923 46.396C243.7 46.396 242.478 46.396 241.255 46.396C241.255 44.5705 241.255 42.7315 241.255 40.8792C241.255 39 241.255 37.1611 241.255 35.3624C239.81 35.3624 238.337 35.3624 236.836 35.3624C235.335 35.3624 233.848 35.3624 232.376 35.3624C232.376 37.1611 232.376 39 232.376 40.8792C232.376 42.7315 232.376 44.5705 232.376 46.396Z" fill="#FDFCFB" fill-opacity="0.5"/>
<path d="M272.118 45.4295C270.201 46.2081 268.297 46.6913 266.407 46.8792C264.517 47.0671 262.725 46.9597 261.029 46.557C259.362 46.1812 257.875 45.5235 256.569 44.5839C255.263 43.6443 254.234 42.4497 253.484 41C252.761 39.5503 252.4 37.8725 252.4 35.9664C252.4 34.3825 252.664 32.9329 253.192 31.6175C253.748 30.2752 254.526 29.1074 255.527 28.1141C256.527 27.094 257.708 26.3154 259.07 25.7785C260.432 25.2148 261.919 24.9329 263.531 24.9329C264.976 24.9329 266.282 25.1611 267.449 25.6174C268.616 26.0738 269.631 26.7181 270.492 27.5503C271.354 28.3557 272.049 29.3221 272.577 30.4497C273.105 31.5772 273.438 32.8121 273.577 34.1544C273.716 35.4966 273.633 36.9195 273.327 38.4228C271.048 38.4228 268.755 38.4228 266.449 38.4228C264.142 38.4228 261.849 38.4228 259.57 38.4228C260.098 39.443 260.974 40.1678 262.197 40.5973C263.447 41.0268 264.92 41.1611 266.615 41C268.339 40.8389 270.173 40.4094 272.118 39.7114C272.118 40.651 272.118 41.604 272.118 42.5705C272.118 43.5369 272.118 44.4899 272.118 45.4295ZM263.364 30.8926C262.558 30.8926 261.808 31.1074 261.113 31.5369C260.446 31.9664 259.932 32.6242 259.57 33.5101C260.821 33.5101 262.072 33.5101 263.322 33.5101C264.601 33.5101 265.865 33.5101 267.116 33.5101C266.782 32.5973 266.282 31.9396 265.615 31.5369C264.976 31.1074 264.225 30.8926 263.364 30.8926Z" fill="#FDFCFB" fill-opacity="0.5"/>
<path d="M291.602 46.396C291.602 46.1812 291.602 45.9799 291.602 45.7919C291.602 45.5772 291.602 45.3758 291.602 45.1879C290.907 45.7517 290.115 46.1812 289.226 46.4765C288.364 46.7987 287.433 46.9597 286.433 46.9597C285.015 46.9597 283.681 46.7047 282.431 46.1946C281.18 45.6577 280.068 44.906 279.096 43.9396C278.151 42.9463 277.401 41.7785 276.845 40.4362C276.317 39.094 276.053 37.604 276.053 35.9664C276.053 34.302 276.317 32.7987 276.845 31.4564C277.401 30.1141 278.151 28.9732 279.096 28.0336C280.068 27.0671 281.18 26.3289 282.431 25.8188C283.681 25.2819 285.001 25.0134 286.391 25.0134C287.391 25.0134 288.336 25.1745 289.226 25.4966C290.115 25.7919 290.907 26.2081 291.602 26.745C291.602 26.5302 291.602 26.3289 291.602 26.1409C291.602 25.953 291.602 25.7651 291.602 25.5772C292.741 25.5772 293.895 25.5772 295.062 25.5772C296.229 25.5772 297.369 25.5772 298.48 25.5772C298.48 29.0134 298.48 32.4899 298.48 36.0067C298.48 39.4966 298.48 42.9597 298.48 46.396C297.369 46.396 296.229 46.396 295.062 46.396C293.895 46.396 292.741 46.396 291.602 46.396ZM287.35 41.0805C288.684 41.0805 289.754 40.6107 290.56 39.6711C291.366 38.7315 291.769 37.4966 291.769 35.9664C291.769 34.4362 291.366 33.2148 290.56 32.302C289.754 31.3624 288.684 30.8926 287.35 30.8926C285.988 30.8926 284.904 31.349 284.098 32.2617C283.32 33.1745 282.931 34.4094 282.931 35.9664C282.931 37.5235 283.32 38.7718 284.098 39.7114C284.904 40.6242 285.988 41.0805 287.35 41.0805Z" fill="#FDFCFB" fill-opacity="0.5"/>
<path d="M303.279 46.396C303.279 41.5369 303.279 36.6376 303.279 31.698C303.279 26.7584 303.279 21.8591 303.279 17C304.419 17 305.572 17 306.739 17C307.906 17 309.046 17 310.157 17C310.157 21.8591 310.157 26.7584 310.157 31.698C310.157 36.6376 310.157 41.5369 310.157 46.396C309.046 46.396 307.906 46.396 306.739 46.396C305.572 46.396 304.419 46.396 303.279 46.396Z" fill="#FDFCFB" fill-opacity="0.5"/>
<path d="M317.209 46.396C317.209 43.9262 317.209 41.443 317.209 38.9463C317.209 36.4497 317.209 33.9799 317.209 31.5369C316.653 31.5369 316.083 31.5369 315.5 31.5369C314.944 31.5369 314.388 31.5369 313.832 31.5369C313.832 30.5436 313.832 29.5503 313.832 28.557C313.832 27.5638 313.832 26.5705 313.832 25.5772C314.388 25.5772 314.944 25.5772 315.5 25.5772C316.083 25.5772 316.653 25.5772 317.209 25.5772C317.209 24.6376 317.209 23.7114 317.209 22.7987C317.209 21.8591 317.209 20.9329 317.209 20.0201C318.348 20.0201 319.502 20.0201 320.669 20.0201C321.836 20.0201 322.976 20.0201 324.087 20.0201C324.087 20.9329 324.087 21.8591 324.087 22.7987C324.087 23.7114 324.087 24.6376 324.087 25.5772C324.727 25.5772 325.38 25.5772 326.047 25.5772C326.714 25.5772 327.367 25.5772 328.006 25.5772C328.006 26.5705 328.006 27.5638 328.006 28.557C328.006 29.5503 328.006 30.5436 328.006 31.5369C327.367 31.5369 326.714 31.5369 326.047 31.5369C325.38 31.5369 324.727 31.5369 324.087 31.5369C324.087 33.9799 324.087 36.4497 324.087 38.9463C324.087 41.443 324.087 43.9262 324.087 46.396C322.976 46.396 321.836 46.396 320.669 46.396C319.502 46.396 318.348 46.396 317.209 46.396Z" fill="#FDFCFB" fill-opacity="0.5"/>
<path d="M331.532 46.396C331.532 41.5369 331.532 36.6376 331.532 31.698C331.532 26.7584 331.532 21.8591 331.532 17C332.671 17 333.825 17 334.992 17C336.159 17 337.298 17 338.41 17C338.41 18.5839 338.41 20.1946 338.41 21.8322C338.41 23.443 338.41 25.0403 338.41 26.6242C339.16 26.1141 339.994 25.7248 340.911 25.4564C341.856 25.1611 342.871 25.0134 343.954 25.0134C345.539 25.0134 346.928 25.3624 348.123 26.0604C349.346 26.7584 350.291 27.7651 350.958 29.0805C351.653 30.3691 352 31.9262 352 33.7517C352 35.8456 352 37.953 352 40.0738C352 42.1946 352 44.302 352 46.396C350.888 46.396 349.749 46.396 348.582 46.396C347.414 46.396 346.261 46.396 345.122 46.396C345.122 44.4631 345.122 42.5034 345.122 40.5168C345.122 38.5302 345.122 36.5705 345.122 34.6376C345.122 33.5638 344.858 32.7047 344.33 32.0604C343.829 31.3893 343.023 31.0537 341.912 31.0537C340.8 31.0537 339.939 31.3624 339.327 31.9799C338.716 32.5973 338.41 33.4832 338.41 34.6376C338.41 36.5705 338.41 38.5302 338.41 40.5168C338.41 42.5034 338.41 44.4631 338.41 46.396C337.298 46.396 336.159 46.396 334.992 46.396C333.825 46.396 332.671 46.396 331.532 46.396Z" fill="#FDFCFB" fill-opacity="0.5"/>
<path d="M342.784 83.6462L323.49 64.2059C323.19 63.9033 323.381 63.3879 323.806 63.3551L331.762 62.7421C331.908 62.7309 332.052 62.7844 332.155 62.8886L347.778 78.6447C347.971 78.84 347.971 79.1549 347.777 79.3497L343.493 83.6469C343.298 83.8432 342.98 83.8429 342.784 83.6462Z" fill="#F26749"/>
<path d="M347.516 70.6447V64.7687C347.516 64.3232 348.055 64.1001 348.37 64.4152L353.328 69.3751C353.613 69.6598 353.461 70.1471 353.065 70.2203L348.107 71.1364C347.8 71.1932 347.516 70.9572 347.516 70.6447Z" fill="#204ECF"/>
<path d="M346.616 74.8508V64.7524C346.616 64.3092 346.082 64.0851 345.765 64.3955L340.611 69.4531C340.411 69.6493 340.411 69.9715 340.612 70.1674L345.766 75.2083C346.083 75.5179 346.616 75.2936 346.616 74.8508Z" fill="#83A5F2"/>
<path d="M342.343 84.4083L334.657 76.665C334.355 76.3604 333.834 76.5532 333.803 76.9813L332.603 93.6296C332.569 94.0916 333.128 94.3466 333.455 94.0187L342.342 85.1137C342.536 84.9189 342.537 84.6036 342.343 84.4083Z" fill="#EA9836"/>
<path d="M204.88 85.1485C204.513 85.1485 204.137 85.1485 203.751 85.1485C203.366 85.1485 202.985 85.1485 202.609 85.1485C202.609 83.6166 202.609 82.0663 202.609 80.4977C202.609 78.9199 202.609 77.3651 202.609 75.8332C202.985 75.8332 203.366 75.8332 203.751 75.8332C204.137 75.8332 204.513 75.8332 204.88 75.8332C204.88 75.8974 204.88 75.9616 204.88 76.0258C204.88 76.09 204.88 76.1588 204.88 76.2322C205.109 76.0487 205.37 75.9065 205.664 75.8056C205.958 75.6956 206.269 75.6405 206.6 75.6405C207.058 75.6405 207.494 75.7323 207.907 75.9157C208.32 76.09 208.682 76.3423 208.994 76.6725C209.315 77.0027 209.563 77.3972 209.737 77.8558C209.92 78.3145 210.012 78.8236 210.012 79.3832C210.012 79.9336 209.92 80.4381 209.737 80.8967C209.563 81.3554 209.315 81.7544 208.994 82.0938C208.682 82.4241 208.32 82.6809 207.907 82.8644C207.494 83.0478 207.054 83.1396 206.586 83.1396C206.256 83.1396 205.944 83.0845 205.65 82.9745C205.366 82.8736 205.109 82.7268 204.88 82.5341C204.88 82.9653 204.88 83.401 204.88 83.8413C204.88 84.2816 204.88 84.7174 204.88 85.1485ZM206.283 81.1307C206.733 81.1307 207.086 80.9747 207.343 80.6628C207.609 80.3418 207.742 79.9152 207.742 79.3832C207.742 78.8511 207.609 78.4292 207.343 78.1173C207.086 77.8054 206.733 77.6494 206.283 77.6494C205.843 77.6494 205.49 77.81 205.224 78.131C204.958 78.4429 204.825 78.8603 204.825 79.3832C204.825 79.906 204.958 80.328 205.224 80.6491C205.49 80.9701 205.843 81.1307 206.283 81.1307Z" fill="#F6F3F0"/>
<path d="M214.513 83.1671C213.981 83.1671 213.486 83.0754 213.027 82.8919C212.568 82.6993 212.169 82.4332 211.83 82.0938C211.491 81.7453 211.225 81.3416 211.032 80.883C210.848 80.4243 210.757 79.9244 210.757 79.3832C210.757 78.842 210.848 78.342 211.032 77.8834C211.225 77.4247 211.491 77.0257 211.83 76.6863C212.169 76.3469 212.568 76.0854 213.027 75.902C213.486 75.7093 213.981 75.613 214.513 75.613C215.054 75.613 215.55 75.7093 215.999 75.902C216.458 76.0854 216.857 76.3469 217.196 76.6863C217.536 77.0257 217.797 77.4247 217.981 77.8834C218.173 78.342 218.27 78.842 218.27 79.3832C218.27 79.9244 218.173 80.4243 217.981 80.883C217.797 81.3416 217.536 81.7453 217.196 82.0938C216.857 82.4332 216.458 82.6993 215.999 82.8919C215.55 83.0754 215.054 83.1671 214.513 83.1671ZM214.513 81.1169C214.963 81.1169 215.32 80.9564 215.586 80.6353C215.862 80.3051 215.999 79.8877 215.999 79.3832C215.999 78.8695 215.862 78.4567 215.586 78.1448C215.32 77.8237 214.963 77.6632 214.513 77.6632C214.064 77.6632 213.701 77.8237 213.426 78.1448C213.16 78.4567 213.027 78.8695 213.027 79.3832C213.027 79.8877 213.16 80.3051 213.426 80.6353C213.701 80.9564 214.064 81.1169 214.513 81.1169Z" fill="#F6F3F0"/>
<path d="M220.703 82.9469C220.345 81.7728 219.983 80.5894 219.616 79.3969C219.258 78.1953 218.9 77.0073 218.543 75.8332C218.919 75.8332 219.299 75.8332 219.685 75.8332C220.079 75.8332 220.464 75.8332 220.84 75.8332C221.024 76.4753 221.207 77.1266 221.391 77.787C221.583 78.4383 221.767 79.085 221.941 79.7272C222.097 79.085 222.253 78.4383 222.409 77.787C222.574 77.1266 222.73 76.4753 222.877 75.8332C223.198 75.8332 223.519 75.8332 223.84 75.8332C224.17 75.8332 224.496 75.8332 224.817 75.8332C224.973 76.4753 225.129 77.1312 225.285 77.8008C225.45 78.4613 225.606 79.1172 225.753 79.7684C225.936 79.1172 226.12 78.4613 226.303 77.8008C226.496 77.1312 226.679 76.4753 226.853 75.8332C227.23 75.8332 227.606 75.8332 227.982 75.8332C228.367 75.8332 228.743 75.8332 229.11 75.8332C228.752 77.0073 228.39 78.1953 228.023 79.3969C227.665 80.5894 227.308 81.7728 226.95 82.9469C226.583 82.9469 226.211 82.9469 225.835 82.9469C225.459 82.9469 225.088 82.9469 224.721 82.9469C224.574 82.3782 224.423 81.8049 224.267 81.227C224.12 80.6491 223.973 80.0803 223.826 79.5208C223.68 80.0803 223.528 80.6491 223.372 81.227C223.225 81.8049 223.079 82.3782 222.932 82.9469C222.565 82.9469 222.194 82.9469 221.817 82.9469C221.441 82.9469 221.07 82.9469 220.703 82.9469Z" fill="#F6F3F0"/>
<path d="M235.903 82.6167C235.27 82.8827 234.641 83.0478 234.017 83.1121C233.394 83.1763 232.802 83.1396 232.242 83.002C231.692 82.8736 231.201 82.6488 230.77 82.3278C230.339 82.0067 230 81.5985 229.752 81.1031C229.513 80.6078 229.394 80.0345 229.394 79.3832C229.394 78.842 229.481 78.3466 229.656 77.8971C229.839 77.4385 230.096 77.0394 230.426 76.7C230.756 76.3514 231.146 76.0854 231.596 75.902C232.045 75.7093 232.536 75.613 233.068 75.613C233.545 75.613 233.976 75.691 234.361 75.8469C234.747 76.0029 235.082 76.223 235.366 76.5074C235.65 76.7826 235.88 77.1128 236.054 77.4981C236.228 77.8834 236.338 78.3053 236.384 78.764C236.43 79.2226 236.402 79.7088 236.302 80.2225C235.549 80.2225 234.793 80.2225 234.031 80.2225C233.27 80.2225 232.513 80.2225 231.761 80.2225C231.935 80.5711 232.224 80.8188 232.628 80.9655C233.041 81.1123 233.527 81.1582 234.086 81.1031C234.655 81.0481 235.26 80.9013 235.903 80.6628C235.903 80.9839 235.903 81.3095 235.903 81.6398C235.903 81.97 235.903 82.2956 235.903 82.6167ZM233.013 77.6494C232.747 77.6494 232.499 77.7228 232.27 77.8696C232.05 78.0164 231.88 78.2411 231.761 78.5438C232.174 78.5438 232.586 78.5438 232.999 78.5438C233.421 78.5438 233.839 78.5438 234.251 78.5438C234.141 78.2319 233.976 78.0072 233.756 77.8696C233.545 77.7228 233.297 77.6494 233.013 77.6494Z" fill="#F6F3F0"/>
<path d="M237.586 82.9469C237.586 81.7728 237.586 80.5894 237.586 79.3969C237.586 78.1953 237.586 77.0073 237.586 75.8332C237.963 75.8332 238.343 75.8332 238.729 75.8332C239.114 75.8332 239.49 75.8332 239.857 75.8332C239.857 75.8974 239.857 75.9616 239.857 76.0258C239.857 76.09 239.857 76.1542 239.857 76.2184C240.141 76.0166 240.462 75.8653 240.82 75.7644C241.178 75.6635 241.568 75.6359 241.99 75.6818C241.99 76.0487 241.99 76.4202 241.99 76.7963C241.99 77.1724 241.99 77.544 241.99 77.9109C241.265 77.81 240.728 77.8742 240.38 78.1035C240.031 78.3237 239.857 78.686 239.857 79.1905C239.857 79.8051 239.857 80.4289 239.857 81.0619C239.857 81.6948 239.857 82.3232 239.857 82.9469C239.49 82.9469 239.114 82.9469 238.729 82.9469C238.343 82.9469 237.963 82.9469 237.586 82.9469Z" fill="#F6F3F0"/>
<path d="M249.071 82.6167C248.438 82.8827 247.81 83.0478 247.186 83.1121C246.562 83.1763 245.97 83.1396 245.411 83.002C244.861 82.8736 244.37 82.6488 243.939 82.3278C243.507 82.0067 243.168 81.5985 242.92 81.1031C242.682 80.6078 242.563 80.0345 242.563 79.3832C242.563 78.842 242.65 78.3466 242.824 77.8971C243.008 77.4385 243.264 77.0394 243.595 76.7C243.925 76.3514 244.315 76.0854 244.764 75.902C245.214 75.7093 245.704 75.613 246.236 75.613C246.714 75.613 247.145 75.691 247.53 75.8469C247.915 76.0029 248.25 76.223 248.534 76.5074C248.819 76.7826 249.048 77.1128 249.222 77.4981C249.397 77.8834 249.507 78.3053 249.553 78.764C249.598 79.2226 249.571 79.7088 249.47 80.2225C248.718 80.2225 247.961 80.2225 247.2 80.2225C246.438 80.2225 245.682 80.2225 244.929 80.2225C245.104 80.5711 245.393 80.8188 245.796 80.9655C246.209 81.1123 246.695 81.1582 247.255 81.1031C247.823 81.0481 248.429 80.9013 249.071 80.6628C249.071 80.9839 249.071 81.3095 249.071 81.6398C249.071 81.97 249.071 82.2956 249.071 82.6167ZM246.181 77.6494C245.915 77.6494 245.668 77.7228 245.438 77.8696C245.218 78.0164 245.049 78.2411 244.929 78.5438C245.342 78.5438 245.755 78.5438 246.168 78.5438C246.59 78.5438 247.007 78.5438 247.42 78.5438C247.31 78.2319 247.145 78.0072 246.924 77.8696C246.714 77.7228 246.466 77.6494 246.181 77.6494Z" fill="#F6F3F0"/>
<path d="M255.502 82.9469C255.502 82.8736 255.502 82.8048 255.502 82.7405C255.502 82.6672 255.502 82.5984 255.502 82.5341C255.273 82.7268 255.011 82.8736 254.718 82.9745C254.433 83.0845 254.126 83.1396 253.796 83.1396C253.328 83.1396 252.888 83.0478 252.475 82.8644C252.062 82.6809 251.695 82.4241 251.374 82.0938C251.062 81.7544 250.815 81.3554 250.631 80.8967C250.457 80.4381 250.37 79.9336 250.37 79.3832C250.37 78.8236 250.457 78.3145 250.631 77.8558C250.815 77.3972 251.062 77.0027 251.374 76.6725C251.695 76.3423 252.062 76.09 252.475 75.9157C252.888 75.7323 253.323 75.6405 253.782 75.6405C254.112 75.6405 254.424 75.6956 254.718 75.8056C255.011 75.9065 255.273 76.0487 255.502 76.2322C255.502 75.6818 255.502 75.1268 255.502 74.5673C255.502 74.0077 255.502 73.4527 255.502 72.9023C255.878 72.9023 256.259 72.9023 256.644 72.9023C257.029 72.9023 257.405 72.9023 257.772 72.9023C257.772 74.5627 257.772 76.2368 257.772 77.9246C257.772 79.6125 257.772 81.2866 257.772 82.9469C257.405 82.9469 257.029 82.9469 256.644 82.9469C256.259 82.9469 255.878 82.9469 255.502 82.9469ZM254.099 81.1307C254.539 81.1307 254.892 80.9701 255.158 80.6491C255.424 80.328 255.557 79.906 255.557 79.3832C255.557 78.8603 255.424 78.4429 255.158 78.131C254.892 77.81 254.539 77.6494 254.099 77.6494C253.649 77.6494 253.291 77.8054 253.025 78.1173C252.768 78.4292 252.64 78.8511 252.64 79.3832C252.64 79.9152 252.768 80.3418 253.025 80.6628C253.291 80.9747 253.649 81.1307 254.099 81.1307Z" fill="#F6F3F0"/>
<path d="M264.583 82.9469C264.216 82.9469 263.84 82.9469 263.455 82.9469C263.069 82.9469 262.689 82.9469 262.313 82.9469C262.313 81.2866 262.313 79.6125 262.313 77.9246C262.313 76.2368 262.313 74.5627 262.313 72.9023C262.689 72.9023 263.069 72.9023 263.455 72.9023C263.84 72.9023 264.216 72.9023 264.583 72.9023C264.583 73.4527 264.583 74.0077 264.583 74.5673C264.583 75.1268 264.583 75.6818 264.583 76.2322C264.812 76.0487 265.074 75.9065 265.367 75.8056C265.661 75.6956 265.973 75.6405 266.303 75.6405C266.762 75.6405 267.197 75.7323 267.61 75.9157C268.023 76.09 268.385 76.3423 268.697 76.6725C269.018 77.0027 269.266 77.3972 269.44 77.8558C269.624 78.3145 269.715 78.8236 269.715 79.3832C269.715 79.9336 269.624 80.4381 269.44 80.8967C269.266 81.3554 269.018 81.7544 268.697 82.0938C268.385 82.4241 268.023 82.6809 267.61 82.8644C267.197 83.0478 266.757 83.1396 266.289 83.1396C265.959 83.1396 265.647 83.0845 265.353 82.9745C265.069 82.8736 264.812 82.7268 264.583 82.5341C264.583 82.5984 264.583 82.6672 264.583 82.7405C264.583 82.8048 264.583 82.8736 264.583 82.9469ZM265.986 81.1307C266.436 81.1307 266.789 80.9747 267.046 80.6628C267.312 80.3418 267.445 79.9152 267.445 79.3832C267.445 78.8511 267.312 78.4292 267.046 78.1173C266.789 77.8054 266.436 77.6494 265.986 77.6494C265.546 77.6494 265.193 77.81 264.927 78.131C264.661 78.4429 264.528 78.8603 264.528 79.3832C264.528 79.906 264.661 80.328 264.927 80.6491C265.193 80.9701 265.546 81.1307 265.986 81.1307Z" fill="#F6F3F0"/>
<path d="M271.37 85.1485C271.553 84.6623 271.741 84.1716 271.934 83.6762C272.136 83.19 272.328 82.7084 272.512 82.2314C272.081 81.1765 271.64 80.1124 271.191 79.0392C270.751 77.9567 270.315 76.8881 269.884 75.8332C270.287 75.8332 270.691 75.8332 271.095 75.8332C271.498 75.8332 271.897 75.8332 272.292 75.8332C272.53 76.4202 272.769 77.0165 273.007 77.6219C273.255 78.2274 273.498 78.8282 273.736 79.4245C273.957 78.8282 274.181 78.2274 274.411 77.6219C274.64 77.0165 274.865 76.4202 275.085 75.8332C275.479 75.8332 275.874 75.8332 276.268 75.8332C276.663 75.8332 277.057 75.8332 277.451 75.8332C276.837 77.3651 276.218 78.9199 275.594 80.4977C274.979 82.0663 274.365 83.6166 273.75 85.1485C273.356 85.1485 272.957 85.1485 272.553 85.1485C272.159 85.1485 271.764 85.1485 271.37 85.1485Z" fill="#F6F3F0"/>
<path d="M282.804 82.9469C282.804 81.7636 282.804 80.5711 282.804 79.3694C282.804 78.1586 282.804 76.9615 282.804 75.7781C282.455 75.7781 282.102 75.7781 281.745 75.7781C281.387 75.7781 281.034 75.7781 280.685 75.7781C280.685 75.4204 280.685 75.058 280.685 74.6911C280.685 74.315 280.685 73.9481 280.685 73.5903C281.777 73.5903 282.882 73.5903 284.001 73.5903C285.12 73.5903 286.226 73.5903 287.317 73.5903C287.317 73.9481 287.317 74.315 287.317 74.6911C287.317 75.058 287.317 75.4204 287.317 75.7781C286.978 75.7781 286.629 75.7781 286.271 75.7781C285.914 75.7781 285.561 75.7781 285.212 75.7781C285.212 76.9615 285.212 78.1586 285.212 79.3694C285.212 80.5711 285.212 81.7636 285.212 82.9469C284.818 82.9469 284.419 82.9469 284.015 82.9469C283.611 82.9469 283.208 82.9469 282.804 82.9469Z" fill="#F6F3F0"/>
<path d="M291.038 83.1671C290.506 83.1671 290.011 83.0754 289.552 82.8919C289.093 82.6993 288.694 82.4332 288.355 82.0938C288.016 81.7453 287.75 81.3416 287.557 80.883C287.373 80.4243 287.282 79.9244 287.282 79.3832C287.282 78.842 287.373 78.342 287.557 77.8834C287.75 77.4247 288.016 77.0257 288.355 76.6863C288.694 76.3469 289.093 76.0854 289.552 75.902C290.011 75.7093 290.506 75.613 291.038 75.613C291.579 75.613 292.075 75.7093 292.524 75.902C292.983 76.0854 293.382 76.3469 293.721 76.6863C294.061 77.0257 294.322 77.4247 294.506 77.8834C294.698 78.342 294.795 78.842 294.795 79.3832C294.795 79.9244 294.698 80.4243 294.506 80.883C294.322 81.3416 294.061 81.7453 293.721 82.0938C293.382 82.4332 292.983 82.6993 292.524 82.8919C292.075 83.0754 291.579 83.1671 291.038 83.1671ZM291.038 81.1169C291.488 81.1169 291.845 80.9564 292.111 80.6353C292.387 80.3051 292.524 79.8877 292.524 79.3832C292.524 78.8695 292.387 78.4567 292.111 78.1448C291.845 77.8237 291.488 77.6632 291.038 77.6632C290.589 77.6632 290.226 77.8237 289.951 78.1448C289.685 78.4567 289.552 78.8695 289.552 79.3832C289.552 79.8877 289.685 80.3051 289.951 80.6353C290.226 80.9564 290.589 81.1169 291.038 81.1169Z" fill="#F6F3F0"/>
<path d="M302.563 75.8332C302.563 77.0073 302.563 78.1953 302.563 79.3969C302.563 80.5894 302.563 81.7728 302.563 82.9469C302.196 82.9469 301.82 82.9469 301.435 82.9469C301.05 82.9469 300.669 82.9469 300.293 82.9469C300.293 82.8827 300.293 82.8231 300.293 82.7681C300.293 82.713 300.293 82.6534 300.293 82.5892C300.045 82.7635 299.766 82.8965 299.454 82.9882C299.151 83.0891 298.821 83.1396 298.463 83.1396C297.94 83.1396 297.477 83.0203 297.073 82.7818C296.679 82.5433 296.367 82.1993 296.138 81.7498C295.917 81.3004 295.807 80.7683 295.807 80.1537C295.807 79.4382 295.807 78.7181 295.807 77.9934C295.807 77.2688 295.807 76.5487 295.807 75.8332C296.183 75.8332 296.564 75.8332 296.949 75.8332C297.335 75.8332 297.711 75.8332 298.078 75.8332C298.078 76.4936 298.078 77.1633 298.078 77.8421C298.078 78.5209 298.078 79.1905 298.078 79.851C298.078 80.2179 298.16 80.5161 298.325 80.7454C298.5 80.9655 298.77 81.0756 299.137 81.0756C299.504 81.0756 299.789 80.9701 299.99 80.7591C300.192 80.5482 300.293 80.2454 300.293 79.851C300.293 79.1905 300.293 78.5209 300.293 77.8421C300.293 77.1633 300.293 76.4936 300.293 75.8332C300.669 75.8332 301.05 75.8332 301.435 75.8332C301.82 75.8332 302.196 75.8332 302.563 75.8332Z" fill="#F6F3F0"/>
<path d="M303.689 79.3832C303.689 78.686 303.831 78.076 304.115 77.5531C304.4 77.0211 304.794 76.5945 305.298 76.2735C305.803 75.9524 306.39 75.7598 307.06 75.6956C307.729 75.6222 308.445 75.7002 309.206 75.9295C309.206 76.2781 309.206 76.6312 309.206 76.989C309.206 77.3467 309.206 77.6999 309.206 78.0485C308.674 77.7916 308.165 77.6724 307.679 77.6907C307.193 77.7091 306.794 77.8604 306.482 78.1448C306.17 78.42 306.014 78.8328 306.014 79.3832C306.014 79.9336 306.17 80.3509 306.482 80.6353C306.794 80.9105 307.193 81.0573 307.679 81.0756C308.165 81.0848 308.674 80.9655 309.206 80.7179C309.206 81.0664 309.206 81.4196 309.206 81.7774C309.206 82.1351 309.206 82.4883 309.206 82.8369C308.445 83.0662 307.729 83.1442 307.06 83.0708C306.39 83.0066 305.803 82.8139 305.298 82.4929C304.794 82.1718 304.4 81.7498 304.115 81.227C303.831 80.6949 303.689 80.0803 303.689 79.3832Z" fill="#F6F3F0"/>
<path d="M310.687 82.9469C310.687 81.2866 310.687 79.6125 310.687 77.9246C310.687 76.2368 310.687 74.5627 310.687 72.9023C311.063 72.9023 311.443 72.9023 311.829 72.9023C312.214 72.9023 312.59 72.9023 312.957 72.9023C312.957 73.4436 312.957 73.9939 312.957 74.5535C312.957 75.1039 312.957 75.6497 312.957 76.1909C313.205 76.0166 313.48 75.8836 313.783 75.7919C314.094 75.691 314.429 75.6405 314.787 75.6405C315.31 75.6405 315.769 75.7598 316.163 75.9983C316.567 76.2368 316.878 76.5808 317.099 77.0303C317.328 77.4706 317.443 78.0026 317.443 78.6264C317.443 79.3419 317.443 80.062 317.443 80.7867C317.443 81.5113 317.443 82.2314 317.443 82.9469C317.076 82.9469 316.7 82.9469 316.314 82.9469C315.929 82.9469 315.548 82.9469 315.172 82.9469C315.172 82.2865 315.172 81.6168 315.172 80.938C315.172 80.2592 315.172 79.5896 315.172 78.9291C315.172 78.5622 315.085 78.2686 314.911 78.0485C314.746 77.8192 314.48 77.7045 314.113 77.7045C313.746 77.7045 313.461 77.81 313.26 78.021C313.058 78.2319 312.957 78.5347 312.957 78.9291C312.957 79.5896 312.957 80.2592 312.957 80.938C312.957 81.6168 312.957 82.2865 312.957 82.9469C312.59 82.9469 312.214 82.9469 311.829 82.9469C311.443 82.9469 311.063 82.9469 310.687 82.9469Z" fill="#F6F3F0"/>
</svg>
