<svg width="95" height="21" viewBox="0 0 95 21" fill="none" xmlns="http://www.w3.org/2000/svg">
<path d="M87.3617 12.9868L75.6784 1.21532C75.3781 0.912773 75.5699 0.397323 75.9949 0.364574L80.4954 0.0177778C80.6417 0.0065049 80.7856 0.0600603 80.8889 0.164254L90.4944 9.85189C90.6881 10.0472 90.6876 10.3621 90.4935 10.5569L88.0707 12.9876C87.875 13.1839 87.557 13.1836 87.3617 12.9868Z" fill="#F26749"/>
<path d="M90.4609 4.74273V1.7322C90.4609 1.28671 90.9996 1.06364 91.3145 1.3787L93.8549 3.91986C94.1396 4.20462 93.9881 4.69188 93.5921 4.76504L91.0518 5.23441C90.7445 5.29119 90.4609 5.05526 90.4609 4.74273Z" fill="#204ECF"/>
<path d="M89.8963 7.16126V1.71592C89.8963 1.27275 89.3624 1.04865 89.0461 1.35903L86.2667 4.08622C86.0667 4.28245 86.067 4.60469 86.2673 4.80058L89.0467 7.51873C89.3632 7.82831 89.8963 7.60403 89.8963 7.16126Z" fill="#83A5F2"/>
<path d="M87.0858 13.4661L82.6857 9.03303C82.3833 8.72843 81.863 8.92123 81.8321 9.34929L81.1445 18.8805C81.1112 19.3426 81.6699 19.5976 81.9972 19.2697L87.0848 14.1715C87.2792 13.9767 87.2796 13.6614 87.0858 13.4661Z" fill="#EA9836"/>
<path d="M1.42372 14.062C1.19362 14.062 0.957776 14.062 0.716175 14.062C0.474574 14.062 0.235849 14.062 0 14.062C0 13.1013 0 12.1292 0 11.1455C0 10.1561 0 9.18105 0 8.22039C0.235849 8.22039 0.474574 8.22039 0.716175 8.22039C0.957776 8.22039 1.19362 8.22039 1.42372 8.22039C1.42372 8.26066 1.42372 8.30093 1.42372 8.34119C1.42372 8.38146 1.42372 8.4246 1.42372 8.47062C1.56753 8.35557 1.73147 8.26641 1.91555 8.20314C2.09963 8.13411 2.29521 8.09959 2.5023 8.09959C2.78992 8.09959 3.06316 8.15712 3.32201 8.27216C3.58087 8.38146 3.80809 8.53965 4.00367 8.74674C4.20501 8.95383 4.36032 9.20118 4.46962 9.4888C4.58467 9.77642 4.64219 10.0957 4.64219 10.4466C4.64219 10.7917 4.58467 11.1081 4.46962 11.3957C4.36032 11.6833 4.20501 11.9336 4.00367 12.1464C3.80809 12.3535 3.58087 12.5146 3.32201 12.6296C3.06316 12.7447 2.78704 12.8022 2.49367 12.8022C2.28658 12.8022 2.091 12.7677 1.90692 12.6986C1.7286 12.6354 1.56753 12.5433 1.42372 12.4225C1.42372 12.6929 1.42372 12.9661 1.42372 13.2422C1.42372 13.5184 1.42372 13.7916 1.42372 14.062ZM2.30384 11.5424C2.58571 11.5424 2.80717 11.4446 2.96824 11.249C3.13506 11.0477 3.21847 10.7802 3.21847 10.4466C3.21847 10.1129 3.13506 9.84832 2.96824 9.65274C2.80717 9.45716 2.58571 9.35937 2.30384 9.35937C2.02772 9.35937 1.80626 9.46004 1.63944 9.66137C1.47262 9.85695 1.38921 10.1187 1.38921 10.4466C1.38921 10.7745 1.47262 11.0391 1.63944 11.2404C1.80626 11.4417 2.02772 11.5424 2.30384 11.5424Z" fill="#FDFCFB"/>
<path d="M7.46476 12.8194C7.13112 12.8194 6.82049 12.7619 6.53287 12.6469C6.24525 12.5261 5.99502 12.3592 5.78218 12.1464C5.56934 11.9278 5.40252 11.6747 5.28172 11.3871C5.16667 11.0995 5.10915 10.786 5.10915 10.4466C5.10915 10.1072 5.16667 9.79368 5.28172 9.50606C5.40252 9.21844 5.56934 8.96821 5.78218 8.75537C5.99502 8.54253 6.24525 8.37858 6.53287 8.26354C6.82049 8.14274 7.13112 8.08234 7.46476 8.08234C7.80415 8.08234 8.11478 8.14274 8.39665 8.26354C8.68427 8.37858 8.9345 8.54253 9.14734 8.75537C9.36018 8.96821 9.52412 9.21844 9.63917 9.50606C9.75997 9.79368 9.82037 10.1072 9.82037 10.4466C9.82037 10.786 9.75997 11.0995 9.63917 11.3871C9.52412 11.6747 9.36018 11.9278 9.14734 12.1464C8.9345 12.3592 8.68427 12.5261 8.39665 12.6469C8.11478 12.7619 7.80415 12.8194 7.46476 12.8194ZM7.46476 11.5338C7.74663 11.5338 7.97097 11.4331 8.13779 11.2318C8.31036 11.0247 8.39665 10.763 8.39665 10.4466C8.39665 10.1244 8.31036 9.86558 8.13779 9.67C7.97097 9.46867 7.74663 9.368 7.46476 9.368C7.18289 9.368 6.95567 9.46867 6.7831 9.67C6.61628 9.86558 6.53287 10.1244 6.53287 10.4466C6.53287 10.763 6.61628 11.0247 6.7831 11.2318C6.95567 11.4331 7.18289 11.5338 7.46476 11.5338Z" fill="#FDFCFB"/>
<path d="M11.3463 12.6814C11.1219 11.9451 10.8947 11.203 10.6646 10.4552C10.4403 9.70164 10.2159 8.9567 9.99159 8.22039C10.2274 8.22039 10.4662 8.22039 10.7078 8.22039C10.9551 8.22039 11.1967 8.22039 11.4326 8.22039C11.5476 8.62306 11.6627 9.03148 11.7777 9.44566C11.8985 9.85408 12.0136 10.2596 12.1229 10.6623C12.2206 10.2596 12.3184 9.85408 12.4162 9.44566C12.5198 9.03148 12.6176 8.62306 12.7096 8.22039C12.9109 8.22039 13.1123 8.22039 13.3136 8.22039C13.5207 8.22039 13.7249 8.22039 13.9262 8.22039C14.024 8.62306 14.1218 9.03436 14.2196 9.45428C14.3232 9.86846 14.4209 10.2798 14.513 10.6882C14.628 10.2798 14.7431 9.86846 14.8581 9.45428C14.9789 9.03436 15.094 8.62306 15.2033 8.22039C15.4391 8.22039 15.675 8.22039 15.9108 8.22039C16.1524 8.22039 16.3883 8.22039 16.6184 8.22039C16.394 8.9567 16.1668 9.70164 15.9367 10.4552C15.7124 11.203 15.488 11.9451 15.2637 12.6814C15.0336 12.6814 14.8006 12.6814 14.5648 12.6814C14.3289 12.6814 14.0959 12.6814 13.8658 12.6814C13.7738 12.3247 13.6789 11.9652 13.5811 11.6028C13.4891 11.2404 13.397 10.8838 13.305 10.5329C13.2129 10.8838 13.118 11.2404 13.0202 11.6028C12.9282 11.9652 12.8362 12.3247 12.7441 12.6814C12.514 12.6814 12.281 12.6814 12.0452 12.6814C11.8094 12.6814 11.5764 12.6814 11.3463 12.6814Z" fill="#FDFCFB"/>
<path d="M20.8779 12.4743C20.4809 12.6411 20.0869 12.7447 19.6957 12.7849C19.3046 12.8252 18.9335 12.8022 18.5827 12.7159C18.2375 12.6354 17.9298 12.4944 17.6594 12.2931C17.389 12.0918 17.1762 11.8358 17.0209 11.5252C16.8713 11.2145 16.7965 10.855 16.7965 10.4466C16.7965 10.1072 16.8512 9.79655 16.9605 9.51468C17.0755 9.22706 17.2366 8.97683 17.4437 8.764C17.6508 8.5454 17.8952 8.37858 18.1771 8.26354C18.459 8.14274 18.7667 8.08234 19.1004 8.08234C19.3995 8.08234 19.6699 8.13123 19.9115 8.22902C20.1531 8.32681 20.363 8.46487 20.5413 8.6432C20.7197 8.81577 20.8635 9.02285 20.9728 9.26445C21.0821 9.50606 21.1511 9.77067 21.1799 10.0583C21.2086 10.3459 21.1914 10.6508 21.1281 10.9729C20.6564 10.9729 20.1818 10.9729 19.7044 10.9729C19.2269 10.9729 18.7523 10.9729 18.2807 10.9729C18.3899 11.1915 18.5711 11.3468 18.8243 11.4389C19.0831 11.5309 19.388 11.5597 19.7389 11.5252C20.0955 11.4906 20.4752 11.3986 20.8779 11.249C20.8779 11.4504 20.8779 11.6546 20.8779 11.8617C20.8779 12.0688 20.8779 12.273 20.8779 12.4743ZM19.0659 9.35937C18.899 9.35937 18.7437 9.40539 18.5999 9.49743C18.4619 9.58947 18.3554 9.7304 18.2807 9.92023C18.5395 9.92023 18.7984 9.92023 19.0572 9.92023C19.3218 9.92023 19.5836 9.92023 19.8424 9.92023C19.7734 9.72465 19.6699 9.58371 19.5318 9.49743C19.3995 9.40539 19.2442 9.35937 19.0659 9.35937Z" fill="#FDFCFB"/>
<path d="M21.9339 12.6814C21.9339 11.9451 21.9339 11.203 21.9339 10.4552C21.9339 9.70164 21.9339 8.9567 21.9339 8.22039C22.1697 8.22039 22.4084 8.22039 22.65 8.22039C22.8916 8.22039 23.1275 8.22039 23.3576 8.22039C23.3576 8.26066 23.3576 8.30093 23.3576 8.34119C23.3576 8.38146 23.3576 8.42173 23.3576 8.46199C23.5359 8.33544 23.7372 8.24053 23.9616 8.17725C24.1859 8.11397 24.4304 8.09672 24.695 8.12548C24.695 8.35557 24.695 8.58855 24.695 8.8244C24.695 9.06024 24.695 9.29322 24.695 9.52331C24.2406 9.46004 23.9041 9.5003 23.6855 9.64411C23.4669 9.78217 23.3576 10.0094 23.3576 10.3258C23.3576 10.7112 23.3576 11.1023 23.3576 11.4993C23.3576 11.8962 23.3576 12.2902 23.3576 12.6814C23.1275 12.6814 22.8916 12.6814 22.65 12.6814C22.4084 12.6814 22.1697 12.6814 21.9339 12.6814Z" fill="#FDFCFB"/>
<path d="M29.1357 12.4743C28.7388 12.6411 28.3448 12.7447 27.9536 12.7849C27.5624 12.8252 27.1914 12.8022 26.8405 12.7159C26.4954 12.6354 26.1876 12.4944 25.9172 12.2931C25.6469 12.0918 25.434 11.8358 25.2787 11.5252C25.1292 11.2145 25.0544 10.855 25.0544 10.4466C25.0544 10.1072 25.109 9.79655 25.2183 9.51468C25.3334 9.22706 25.4944 8.97683 25.7015 8.764C25.9086 8.5454 26.1531 8.37858 26.435 8.26354C26.7168 8.14274 27.0246 8.08234 27.3582 8.08234C27.6573 8.08234 27.9277 8.13123 28.1693 8.22902C28.4109 8.32681 28.6209 8.46487 28.7992 8.6432C28.9775 8.81577 29.1213 9.02285 29.2306 9.26445C29.3399 9.50606 29.409 9.77067 29.4377 10.0583C29.4665 10.3459 29.4492 10.6508 29.3859 10.9729C28.9142 10.9729 28.4397 10.9729 27.9622 10.9729C27.4848 10.9729 27.0102 10.9729 26.5385 10.9729C26.6478 11.1915 26.829 11.3468 27.0821 11.4389C27.341 11.5309 27.6458 11.5597 27.9967 11.5252C28.3534 11.4906 28.733 11.3986 29.1357 11.249C29.1357 11.4504 29.1357 11.6546 29.1357 11.8617C29.1357 12.0688 29.1357 12.273 29.1357 12.4743ZM27.3237 9.35937C27.1569 9.35937 27.0016 9.40539 26.8578 9.49743C26.7197 9.58947 26.6133 9.7304 26.5385 9.92023C26.7974 9.92023 27.0562 9.92023 27.3151 9.92023C27.5797 9.92023 27.8414 9.92023 28.1003 9.92023C28.0312 9.72465 27.9277 9.58371 27.7896 9.49743C27.6573 9.40539 27.502 9.35937 27.3237 9.35937Z" fill="#FDFCFB"/>
<path d="M33.1686 12.6814C33.1686 12.6354 33.1686 12.5922 33.1686 12.552C33.1686 12.5059 33.1686 12.4628 33.1686 12.4225C33.0248 12.5433 32.8608 12.6354 32.6767 12.6986C32.4984 12.7677 32.3057 12.8022 32.0986 12.8022C31.8053 12.8022 31.5291 12.7447 31.2703 12.6296C31.0114 12.5146 30.7813 12.3535 30.58 12.1464C30.3844 11.9336 30.2291 11.6833 30.114 11.3957C30.0048 11.1081 29.9501 10.7917 29.9501 10.4466C29.9501 10.0957 30.0048 9.77642 30.114 9.4888C30.2291 9.20118 30.3844 8.95383 30.58 8.74674C30.7813 8.53965 31.0114 8.38146 31.2703 8.27216C31.5291 8.15712 31.8024 8.09959 32.09 8.09959C32.2971 8.09959 32.4927 8.13411 32.6767 8.20314C32.8608 8.26641 33.0248 8.35557 33.1686 8.47062C33.1686 8.12548 33.1686 7.77746 33.1686 7.42656C33.1686 7.07566 33.1686 6.72764 33.1686 6.3825C33.4044 6.3825 33.6431 6.3825 33.8847 6.3825C34.1264 6.3825 34.3622 6.3825 34.5923 6.3825C34.5923 7.42369 34.5923 8.4735 34.5923 9.53194C34.5923 10.5904 34.5923 11.6402 34.5923 12.6814C34.3622 12.6814 34.1264 12.6814 33.8847 12.6814C33.6431 12.6814 33.4044 12.6814 33.1686 12.6814ZM32.2885 11.5424C32.5646 11.5424 32.786 11.4417 32.9529 11.2404C33.1197 11.0391 33.2031 10.7745 33.2031 10.4466C33.2031 10.1187 33.1197 9.85695 32.9529 9.66137C32.786 9.46004 32.5646 9.35937 32.2885 9.35937C32.0066 9.35937 31.7822 9.45716 31.6154 9.65274C31.4544 9.84832 31.3738 10.1129 31.3738 10.4466C31.3738 10.7802 31.4544 11.0477 31.6154 11.249C31.7822 11.4446 32.0066 11.5424 32.2885 11.5424Z" fill="#FDFCFB"/>
<path d="M38.8631 12.6814C38.633 12.6814 38.3972 12.6814 38.1556 12.6814C37.914 12.6814 37.6752 12.6814 37.4394 12.6814C37.4394 11.6402 37.4394 10.5904 37.4394 9.53194C37.4394 8.4735 37.4394 7.42369 37.4394 6.3825C37.6752 6.3825 37.914 6.3825 38.1556 6.3825C38.3972 6.3825 38.633 6.3825 38.8631 6.3825C38.8631 6.72764 38.8631 7.07566 38.8631 7.42656C38.8631 7.77746 38.8631 8.12548 38.8631 8.47062C39.0069 8.35557 39.1709 8.26641 39.3549 8.20314C39.539 8.13411 39.7346 8.09959 39.9417 8.09959C40.2293 8.09959 40.5026 8.15712 40.7614 8.27216C41.0203 8.38146 41.2475 8.53965 41.4431 8.74674C41.6444 8.95383 41.7997 9.20118 41.909 9.4888C42.0241 9.77642 42.0816 10.0957 42.0816 10.4466C42.0816 10.7917 42.0241 11.1081 41.909 11.3957C41.7997 11.6833 41.6444 11.9336 41.4431 12.1464C41.2475 12.3535 41.0203 12.5146 40.7614 12.6296C40.5026 12.7447 40.2264 12.8022 39.9331 12.8022C39.726 12.8022 39.5304 12.7677 39.3463 12.6986C39.168 12.6354 39.0069 12.5433 38.8631 12.4225C38.8631 12.4628 38.8631 12.5059 38.8631 12.552C38.8631 12.5922 38.8631 12.6354 38.8631 12.6814ZM39.7432 11.5424C40.0251 11.5424 40.2466 11.4446 40.4076 11.249C40.5745 11.0477 40.6579 10.7802 40.6579 10.4466C40.6579 10.1129 40.5745 9.84832 40.4076 9.65274C40.2466 9.45716 40.0251 9.35937 39.7432 9.35937C39.4671 9.35937 39.2457 9.46004 39.0788 9.66137C38.912 9.85695 38.8286 10.1187 38.8286 10.4466C38.8286 10.7745 38.912 11.0391 39.0788 11.2404C39.2457 11.4417 39.4671 11.5424 39.7432 11.5424Z" fill="#FDFCFB"/>
<path d="M43.119 14.062C43.2341 13.7571 43.352 13.4493 43.4728 13.1387C43.5994 12.8338 43.7202 12.5318 43.8352 12.2327C43.5649 11.5712 43.2887 10.9039 43.0069 10.2309C42.7308 9.55208 42.4575 8.88192 42.1872 8.22039C42.4403 8.22039 42.6934 8.22039 42.9465 8.22039C43.1996 8.22039 43.4498 8.22039 43.6972 8.22039C43.8467 8.58855 43.9963 8.96245 44.1459 9.34211C44.3012 9.72177 44.4536 10.0986 44.6032 10.4725C44.7412 10.0986 44.8822 9.72177 45.026 9.34211C45.1698 8.96245 45.3107 8.58855 45.4488 8.22039C45.6961 8.22039 45.9435 8.22039 46.1908 8.22039C46.4382 8.22039 46.6855 8.22039 46.9329 8.22039C46.5475 9.18105 46.1592 10.1561 45.768 11.1455C45.3826 12.1292 44.9972 13.1013 44.6118 14.062C44.3644 14.062 44.1142 14.062 43.8611 14.062C43.6138 14.062 43.3664 14.062 43.119 14.062Z" fill="#FDFCFB"/>
<path d="M49.6423 12.6814C49.6423 12.1522 49.6423 11.6201 49.6423 11.0851C49.6423 10.5501 49.6423 10.0209 49.6423 9.49743C49.5272 9.49743 49.4093 9.49743 49.2885 9.49743C49.1735 9.49743 49.0584 9.49743 48.9434 9.49743C48.9434 9.28459 48.9434 9.07175 48.9434 8.85891C48.9434 8.64607 48.9434 8.43323 48.9434 8.22039C49.0584 8.22039 49.1735 8.22039 49.2885 8.22039C49.4093 8.22039 49.5272 8.22039 49.6423 8.22039C49.6423 8.01906 49.6423 7.8206 49.6423 7.62502C49.6423 7.42368 49.6423 7.22523 49.6423 7.02965C49.8781 7.02965 50.1168 7.02965 50.3584 7.02965C50.6 7.02965 50.8359 7.02965 51.066 7.02965C51.066 7.22523 51.066 7.42368 51.066 7.62502C51.066 7.8206 51.066 8.01906 51.066 8.22039C51.1983 8.22039 51.3335 8.22039 51.4715 8.22039C51.6096 8.22039 51.7448 8.22039 51.8771 8.22039C51.8771 8.43323 51.8771 8.64607 51.8771 8.85891C51.8771 9.07175 51.8771 9.28459 51.8771 9.49743C51.7448 9.49743 51.6096 9.49743 51.4715 9.49743C51.3335 9.49743 51.1983 9.49743 51.066 9.49743C51.066 10.0209 51.066 10.5501 51.066 11.0851C51.066 11.6201 51.066 12.1522 51.066 12.6814C50.8359 12.6814 50.6 12.6814 50.3584 12.6814C50.1168 12.6814 49.8781 12.6814 49.6423 12.6814Z" fill="#FDFCFB"/>
<path d="M54.6356 12.8194C54.302 12.8194 53.9913 12.7619 53.7037 12.6469C53.4161 12.5261 53.1659 12.3592 52.953 12.1464C52.7402 11.9278 52.5734 11.6747 52.4526 11.3871C52.3375 11.0995 52.28 10.786 52.28 10.4466C52.28 10.1072 52.3375 9.79368 52.4526 9.50606C52.5734 9.21844 52.7402 8.96821 52.953 8.75537C53.1659 8.54253 53.4161 8.37858 53.7037 8.26354C53.9913 8.14274 54.302 8.08234 54.6356 8.08234C54.975 8.08234 55.2856 8.14274 55.5675 8.26354C55.8551 8.37858 56.1054 8.54253 56.3182 8.75537C56.531 8.96821 56.695 9.21844 56.81 9.50606C56.9308 9.79368 56.9912 10.1072 56.9912 10.4466C56.9912 10.786 56.9308 11.0995 56.81 11.3871C56.695 11.6747 56.531 11.9278 56.3182 12.1464C56.1054 12.3592 55.8551 12.5261 55.5675 12.6469C55.2856 12.7619 54.975 12.8194 54.6356 12.8194ZM54.6356 11.5338C54.9175 11.5338 55.1418 11.4331 55.3086 11.2318C55.4812 11.0247 55.5675 10.763 55.5675 10.4466C55.5675 10.1244 55.4812 9.86558 55.3086 9.67C55.1418 9.46867 54.9175 9.368 54.6356 9.368C54.3537 9.368 54.1265 9.46867 53.9539 9.67C53.7871 9.86558 53.7037 10.1244 53.7037 10.4466C53.7037 10.763 53.7871 11.0247 53.9539 11.2318C54.1265 11.4331 54.3537 11.5338 54.6356 11.5338Z" fill="#FDFCFB"/>
<path d="M61.863 8.22039C61.863 8.9567 61.863 9.70164 61.863 10.4552C61.863 11.203 61.863 11.9451 61.863 12.6814C61.6329 12.6814 61.3971 12.6814 61.1555 12.6814C60.9139 12.6814 60.6751 12.6814 60.4393 12.6814C60.4393 12.6411 60.4393 12.6037 60.4393 12.5692C60.4393 12.5347 60.4393 12.4973 60.4393 12.457C60.284 12.5663 60.1085 12.6497 59.9129 12.7073C59.7231 12.7705 59.516 12.8022 59.2917 12.8022C58.9638 12.8022 58.6733 12.7274 58.4202 12.5778C58.1728 12.4283 57.9773 12.2126 57.8335 11.9307C57.6954 11.6488 57.6264 11.3152 57.6264 10.9298C57.6264 10.4811 57.6264 10.0295 57.6264 9.57509C57.6264 9.12065 57.6264 8.66908 57.6264 8.22039C57.8622 8.22039 58.1009 8.22039 58.3425 8.22039C58.5841 8.22039 58.82 8.22039 59.0501 8.22039C59.0501 8.63457 59.0501 9.05449 59.0501 9.48017C59.0501 9.90585 59.0501 10.3258 59.0501 10.7399C59.0501 10.97 59.1019 11.157 59.2054 11.3008C59.3147 11.4389 59.4844 11.5079 59.7145 11.5079C59.9446 11.5079 60.1229 11.4417 60.2495 11.3094C60.376 11.1771 60.4393 10.9873 60.4393 10.7399C60.4393 10.3258 60.4393 9.90585 60.4393 9.48017C60.4393 9.05449 60.4393 8.63457 60.4393 8.22039C60.6751 8.22039 60.9139 8.22039 61.1555 8.22039C61.3971 8.22039 61.6329 8.22039 61.863 8.22039Z" fill="#FDFCFB"/>
<path d="M62.5686 10.4466C62.5686 10.0094 62.6578 9.62686 62.8361 9.29897C63.0144 8.96533 63.2618 8.69784 63.5782 8.49651C63.8945 8.29517 64.2627 8.17437 64.6826 8.13411C65.1025 8.08809 65.5512 8.13698 66.0287 8.28079C66.0287 8.49939 66.0287 8.72085 66.0287 8.9452C66.0287 9.16954 66.0287 9.39101 66.0287 9.6096C65.695 9.44853 65.3758 9.37375 65.0709 9.38526C64.766 9.39676 64.5158 9.49168 64.3202 9.67C64.1246 9.84257 64.0268 10.1014 64.0268 10.4466C64.0268 10.7917 64.1246 11.0535 64.3202 11.2318C64.5158 11.4043 64.766 11.4964 65.0709 11.5079C65.3758 11.5136 65.695 11.4389 66.0287 11.2835C66.0287 11.5021 66.0287 11.7236 66.0287 11.948C66.0287 12.1723 66.0287 12.3938 66.0287 12.6124C65.5512 12.7562 65.1025 12.8051 64.6826 12.759C64.2627 12.7188 63.8945 12.598 63.5782 12.3966C63.2618 12.1953 63.0144 11.9307 62.8361 11.6028C62.6578 11.2692 62.5686 10.8838 62.5686 10.4466Z" fill="#FDFCFB"/>
<path d="M66.957 12.6814C66.957 11.6402 66.957 10.5904 66.957 9.53194C66.957 8.4735 66.957 7.42369 66.957 6.3825C67.1928 6.3825 67.4316 6.3825 67.6732 6.3825C67.9148 6.3825 68.1506 6.3825 68.3807 6.3825C68.3807 6.72189 68.3807 7.06704 68.3807 7.41793C68.3807 7.76308 68.3807 8.10535 68.3807 8.44474C68.536 8.33544 68.7086 8.25203 68.8984 8.19451C69.094 8.13123 69.304 8.09959 69.5283 8.09959C69.8562 8.09959 70.1438 8.17437 70.3912 8.32394C70.6443 8.4735 70.8399 8.68921 70.9779 8.97108C71.1217 9.2472 71.1936 9.58084 71.1936 9.972C71.1936 10.4207 71.1936 10.8723 71.1936 11.3267C71.1936 11.7811 71.1936 12.2327 71.1936 12.6814C70.9635 12.6814 70.7277 12.6814 70.4861 12.6814C70.2445 12.6814 70.0058 12.6814 69.7699 12.6814C69.7699 12.2672 69.7699 11.8473 69.7699 11.4216C69.7699 10.9959 69.7699 10.576 69.7699 10.1618C69.7699 9.93173 69.7153 9.74766 69.606 9.6096C69.5024 9.46579 69.3356 9.39388 69.1055 9.39388C68.8754 9.39388 68.6971 9.46004 68.5705 9.59234C68.444 9.72465 68.3807 9.91448 68.3807 10.1618C68.3807 10.576 68.3807 10.9959 68.3807 11.4216C68.3807 11.8473 68.3807 12.2672 68.3807 12.6814C68.1506 12.6814 67.9148 12.6814 67.6732 12.6814C67.4316 12.6814 67.1928 12.6814 66.957 12.6814Z" fill="#FDFCFB"/>
</svg>
