<svg xmlns="http://www.w3.org/2000/svg" width="19.411" height="20.881" viewBox="0 0 19.411 20.881"><defs><style>.a{stroke:#000;stroke-width:0.3px;}</style></defs><g transform="translate(-18.123 0.15)"><path class="a" d="M34.087,11.605A14.946,14.946,0,0,1,32.973,5.88a4.091,4.091,0,0,0-1.1-3.009,4.937,4.937,0,0,0-3.032-1.344,1.037,1.037,0,0,0,.092-.425,1.063,1.063,0,0,0-.321-.781,1.109,1.109,0,0,0-1.562,0,1.063,1.063,0,0,0-.322.781,1.034,1.034,0,0,0,.092.425,4.936,4.936,0,0,0-3.032,1.344,4.09,4.09,0,0,0-1.1,3.009,14.939,14.939,0,0,1-1.114,5.725,11.713,11.713,0,0,1-3.3,4.565,1.491,1.491,0,0,0,1.47,1.47h5.145a2.94,2.94,0,0,0,5.88,0h5.145a1.491,1.491,0,0,0,1.47-1.47A11.722,11.722,0,0,1,34.087,11.605Zm-6.259,8.056a2.019,2.019,0,0,1-2.021-2.021.184.184,0,0,1,.368,0,1.667,1.667,0,0,0,1.654,1.654.184.184,0,1,1,0,.367Zm-7.454-3.491a13.993,13.993,0,0,0,2.831-4.726,16.387,16.387,0,0,0,.948-5.564q0-2.94,3.675-2.94T31.5,5.88a16.385,16.385,0,0,0,.948,5.564,13.992,13.992,0,0,0,2.831,4.726Z"/></g></svg>