<svg xmlns="http://www.w3.org/2000/svg" width="19.249" height="31" viewBox="0 0 19.249 31"><defs><style>.a{fill:#363636;}</style></defs><path class="a" d="M144.794,362h-1.743A3.054,3.054,0,0,0,140,365.051v6.974a3.054,3.054,0,0,0,3.051,3.051h1.743a3.054,3.054,0,0,0,3.051-3.051v-6.974A3.054,3.054,0,0,0,144.794,362Zm.436,10.025a.436.436,0,0,1-.436.436h-1.743a.436.436,0,0,1-.436-.436v-6.974a.436.436,0,0,1,.436-.436h1.743a.436.436,0,0,1,.436.436Zm0,0" transform="translate(-129.269 -361.245)"/><path class="a" d="M6.538,372.461H5.23v-9.153A1.308,1.308,0,0,0,3.923,362H1.308a1.308,1.308,0,1,0,0,2.615H2.615v7.846H1.308a1.308,1.308,0,1,0,0,2.615h5.23a1.308,1.308,0,1,0,0-2.615Zm0,0" transform="translate(11.403 -344.076)"/><path class="a" d="M144.794,181h-1.743A3.054,3.054,0,0,0,140,184.051v6.974a3.054,3.054,0,0,0,3.051,3.051h1.743a3.054,3.054,0,0,0,3.051-3.051v-6.974A3.054,3.054,0,0,0,144.794,181Zm.436,10.025a.436.436,0,0,1-.436.436h-1.743a.436.436,0,0,1-.436-.436v-6.974a.436.436,0,0,1,.436-.436h1.743a.436.436,0,0,1,.436.436Zm0,0" transform="translate(-140 -163.831)"/><path class="a" d="M6.538,191.461H5.23v-9.153A1.307,1.307,0,0,0,3.923,181H1.308a1.308,1.308,0,0,0,0,2.615H2.615v7.845H1.308a1.308,1.308,0,0,0,0,2.615h5.23a1.308,1.308,0,0,0,0-2.615Zm0,0" transform="translate(0.673 -181)"/></svg>