<svg xmlns="http://www.w3.org/2000/svg" width="24.711" height="32.11" viewBox="0 0 24.711 32.11"><defs><style>.b{fill:#363636;stroke:#363636;stroke-width:2px;}.c{fill:#363636;stroke:#363636;}.d{stroke:none;}.e{fill:none;}</style></defs><g transform="translate(0.35 0.35)"><g class="a"><g transform="translate(6.749)"><path class="b" d="M178.58,4.549h-8.351a1.441,1.441,0,0,1-1.439-1.439V1.439A1.441,1.441,0,0,1,170.229,0h8.351a1.441,1.441,0,0,1,1.439,1.439v1.67a1.441,1.441,0,0,1-1.439,1.439ZM170.229.966a.474.474,0,0,0-.474.474v1.67a.474.474,0,0,0,.474.474h8.351a.474.474,0,0,0,.474-.474V1.439a.474.474,0,0,0-.474-.474Z" transform="translate(-168.79 0)"/></g><g transform="translate(0 1.142)"><path class="b" d="M85.938,58.095H65.989a2.033,2.033,0,0,1-2.031-2.031V29.857a2.034,2.034,0,0,1,2.031-2.031H68.8a.469.469,0,0,1,0,.938h-2.81A1.1,1.1,0,0,0,64.9,29.857V56.063a1.1,1.1,0,0,0,1.093,1.093H85.938a1.1,1.1,0,0,0,1.093-1.093V29.857a1.1,1.1,0,0,0-1.093-1.093h-2.81a.469.469,0,1,1,0-.938h2.81a2.033,2.033,0,0,1,2.031,2.031V56.063A2.034,2.034,0,0,1,85.938,58.095Z" transform="translate(-63.958 -27.826)"/></g></g><g class="c" transform="translate(7.706 9)"><rect class="d" width="10" height="2"/><rect class="e" x="0.5" y="0.5" width="9" height="1"/></g><g class="c" transform="translate(7.706 16)"><rect class="d" width="10" height="2"/><rect class="e" x="0.5" y="0.5" width="9" height="1"/></g><g class="c" transform="translate(7.706 24)"><rect class="d" width="10" height="2"/><rect class="e" x="0.5" y="0.5" width="9" height="1"/></g></g></svg>