<svg xmlns="http://www.w3.org/2000/svg" width="33.124" height="31.462" viewBox="0 0 33.124 31.462"><defs><style>.a{fill:#363636;}</style></defs><path class="a" d="M1.677,42.662A1.677,1.677,0,0,1,0,41V19.477A8.277,8.277,0,0,1,8.277,11.2h16.57a8.277,8.277,0,0,1,8.277,8.277v9.939a8.277,8.277,0,0,1-8.277,8.277H8.836L2.624,42.351a1.662,1.662,0,0,1-.947.311ZM8.293,14.523a4.969,4.969,0,0,0-4.969,4.969v18.2L7.3,34.711a1.662,1.662,0,0,1,.994-.326H24.847a4.969,4.969,0,0,0,4.969-4.969V19.477a4.969,4.969,0,0,0-4.969-4.969Z" transform="translate(0 -11.2)"/><path class="a" d="M16.972,19.87H7.049a1.662,1.662,0,1,1,0-3.308h9.923a1.662,1.662,0,1,1,0,3.308Z" transform="translate(2.89 -8.811)"/><path class="a" d="M12.018,24.13H7.049a1.662,1.662,0,1,1,0-3.308h4.969a1.662,1.662,0,1,1,0,3.308Z" transform="translate(2.89 -5.512)"/></svg>