<svg xmlns="http://www.w3.org/2000/svg" width="32.336" height="30.353" viewBox="0 0 32.336 30.353"><defs><style>.a{fill:#363636;stroke:#363636;stroke-width:0.6px;}</style></defs><g transform="translate(0.3 0.3)"><path class="a" d="M29.761,14.893H21.827V4.975A2.922,2.922,0,0,0,18.852,2H3.975A2.922,2.922,0,0,0,1,4.975V15.885A2.922,2.922,0,0,0,3.975,18.86h7.934v9.918a2.922,2.922,0,0,0,2.975,2.975H29.761a2.922,2.922,0,0,0,2.975-2.975V17.868A2.922,2.922,0,0,0,29.761,14.893Zm-26.778.992V4.975a.937.937,0,0,1,.992-.992H18.852a.937.937,0,0,1,.992.992V15.885a.937.937,0,0,1-.992.992H3.975A.937.937,0,0,1,2.984,15.885ZM30.753,28.778a.937.937,0,0,1-.992.992H14.885a.937.937,0,0,1-.992-.992V18.86h4.959a2.889,2.889,0,0,0,2.777-1.984h8.132a.937.937,0,0,1,.992.992Z" transform="translate(-1 -2)"/><path class="a" d="M26.223,20.3l-5.256,5.256-2.281-2.281A.982.982,0,1,0,17.3,24.661l2.975,2.975a.959.959,0,0,0,1.388,0l5.951-5.951A.982.982,0,0,0,26.223,20.3Z" transform="translate(-1.132 -2.148)"/></g></svg>