<svg xmlns="http://www.w3.org/2000/svg" width="17.651" height="19.16" viewBox="0 0 17.651 19.16"><defs><style>.a{fill:#fff;stroke:#fff;stroke-width:0.2px;}</style></defs><g transform="translate(-20.669 0.1)"><g transform="translate(20.799 0)"><path class="a" d="M32.264,9.2a7.752,7.752,0,0,0,1.806-4.617,4.587,4.587,0,1,0-9.174,0A7.752,7.752,0,0,0,26.7,9.2a8.234,8.234,0,0,0-5.729,9.756H37.993A8.257,8.257,0,0,0,32.264,9.2ZM29.484.612A3.97,3.97,0,0,1,33.1,2.948a2.747,2.747,0,0,1-3.075-.134,3.223,3.223,0,0,0-3.464.146l-.926.649A3.979,3.979,0,0,1,29.484.612ZM25.509,4.587c0-.049,0-.1.007-.146l1.4-.982a2.61,2.61,0,0,1,2.8-.119,3.355,3.355,0,0,0,3.6.2,4.014,4.014,0,0,1,.146,1.045c0,2.172-1.78,5.505-3.975,5.505S25.509,6.759,25.509,4.587ZM37.486,18.348h-16a7.628,7.628,0,0,1,2.878-7.289,8.681,8.681,0,0,0,.761,2.467,2.447,2.447,0,0,0-1,2.878l.508,1.441,1.153-.407-.2-.578-.578.2-.306-.866a1.836,1.836,0,1,1,3.464-1.217l.3.866-.578.2.2.578,1.153-.407-.508-1.444a2.445,2.445,0,0,0-3.057-1.515,8.014,8.014,0,0,1-.75-2.6,7.727,7.727,0,0,1,2.265-.963,3.133,3.133,0,0,0,4.583,0,7.6,7.6,0,0,1,2.6,1.191,7.942,7.942,0,0,1-.9,2.3,1.186,1.186,0,0,0-.328-.052,1.224,1.224,0,1,0,1.224,1.224,1.212,1.212,0,0,0-.366-.87,8.646,8.646,0,0,0,.9-2.195A7.677,7.677,0,0,1,37.486,18.348Zm-3.721-3.975a.612.612,0,1,1-.612-.612A.615.615,0,0,1,33.765,14.373Z" transform="translate(-20.799 0)"/></g></g></svg>