<svg xmlns="http://www.w3.org/2000/svg" width="15.086" height="15.086" viewBox="0 0 15.086 15.086"><defs><style>.a{fill:#fff;}</style></defs><g transform="translate(4.591)"><path class="a" d="M153.6,0h-2.624a1.642,1.642,0,0,0-1.64,1.64V4.263a1.642,1.642,0,0,0,1.64,1.64H153.6a1.642,1.642,0,0,0,1.64-1.64V1.64A1.642,1.642,0,0,0,153.6,0Zm.984,4.264a.985.985,0,0,1-.984.984h-2.624a.985.985,0,0,1-.984-.984V1.64a.985.985,0,0,1,.984-.984H153.6a.985.985,0,0,1,.984.984Z" transform="translate(-149.334)"/></g><g transform="translate(5.903 11.807)"><path class="a" d="M194.427,384h-1.574a.853.853,0,0,0-.853.853v1.574a.853.853,0,0,0,.853.853h1.574a.853.853,0,0,0,.853-.853v-1.574A.853.853,0,0,0,194.427,384Zm.2,2.427a.2.2,0,0,1-.2.2h-1.574a.2.2,0,0,1-.2-.2v-1.574a.2.2,0,0,1,.2-.2h1.574a.2.2,0,0,1,.2.2Z" transform="translate(-192 -384)"/></g><g transform="translate(11.807 11.807)"><path class="a" d="M386.427,384h-1.574a.853.853,0,0,0-.853.853v1.574a.853.853,0,0,0,.853.853h1.574a.853.853,0,0,0,.853-.853v-1.574A.853.853,0,0,0,386.427,384Zm.2,2.427a.2.2,0,0,1-.2.2h-1.574a.2.2,0,0,1-.2-.2v-1.574a.2.2,0,0,1,.2-.2h1.574a.2.2,0,0,1,.2.2Z" transform="translate(-384 -384)"/></g><g transform="translate(0 11.807)"><path class="a" d="M2.427,384H.853a.853.853,0,0,0-.853.853v1.574a.853.853,0,0,0,.853.853H2.427a.853.853,0,0,0,.853-.853v-1.574A.853.853,0,0,0,2.427,384Zm.2,2.427a.2.2,0,0,1-.2.2H.853a.2.2,0,0,1-.2-.2v-1.574a.2.2,0,0,1,.2-.2H2.427a.2.2,0,0,1,.2.2Z" transform="translate(0 -384)"/></g><g transform="translate(7.215 6.559)"><path class="a" d="M234.994,213.333a.328.328,0,0,0-.328.328V217.6a.328.328,0,1,0,.656,0v-3.936A.328.328,0,0,0,234.994,213.333Z" transform="translate(-234.666 -213.333)"/></g><g transform="translate(1.312 8.527)"><path class="a" d="M52.833,277.333H44.962a2.3,2.3,0,0,0-2.3,2.3.328.328,0,0,0,.656,0,1.642,1.642,0,0,1,1.64-1.64h7.871a1.642,1.642,0,0,1,1.64,1.64.328.328,0,1,0,.656,0A2.3,2.3,0,0,0,52.833,277.333Z" transform="translate(-42.666 -277.333)"/></g></svg>