<svg xmlns="http://www.w3.org/2000/svg" width="18.421" height="18.422" viewBox="0 0 18.421 18.422"><defs><style>.a{stroke:#000;stroke-width:0.6px;}</style></defs><g transform="translate(0.296 0.3)"><g transform="translate(0.004)"><path class="a" d="M17.189,0H.64A.636.636,0,0,0,0,.636V3.819a.636.636,0,0,0,.211.473L6.369,9.83v7.354a.636.636,0,0,0,.921.57l3.819-1.909a.636.636,0,0,0,.352-.57V9.83l6.154-5.537a.636.636,0,0,0,.211-.474V.636A.637.637,0,0,0,17.189,0Zm-.636,3.536L10.4,9.073a.636.636,0,0,0-.211.474v5.335L7.642,16.155V9.547a.636.636,0,0,0-.211-.473L1.277,3.536V1.273H16.552Z" transform="translate(-0.004 0)"/></g></g></svg>