<svg width="16" height="16" viewBox="0 0 16 16" fill="none" xmlns="http://www.w3.org/2000/svg">
    <g clip-path="url(#clip0)">
        <path d="M6.16663 0H1.16663C0.523315 0 0 0.523315 0 1.16663V4.16663C0 4.81006 0.523315 5.33337 1.16663 5.33337H6.16663C6.81006 5.33337 7.33337 4.81006 7.33337 4.16663V1.16663C7.33337 0.523315 6.81006 0 6.16663 0Z" fill="white"/>
        <path d="M6.16663 6.66699H1.16663C0.523315 6.66699 0 7.19031 0 7.83374V14.8337C0 15.4771 0.523315 16.0004 1.16663 16.0004H6.16663C6.81006 16.0004 7.33337 15.4771 7.33337 14.8337V7.83374C7.33337 7.19031 6.81006 6.66699 6.16663 6.66699Z" fill="white"/>
        <path d="M14.8334 10.667H9.83337C9.18994 10.667 8.66663 11.1903 8.66663 11.8337V14.8337C8.66663 15.4771 9.18994 16.0004 9.83337 16.0004H14.8334C15.4767 16.0004 16 15.4771 16 14.8337V11.8337C16 11.1903 15.4767 10.667 14.8334 10.667Z" fill="white"/>
        <path d="M14.8334 0H9.83337C9.18994 0 8.66663 0.523315 8.66663 1.16663V8.16663C8.66663 8.81006 9.18994 9.33337 9.83337 9.33337H14.8334C15.4767 9.33337 16 8.81006 16 8.16663V1.16663C16 0.523315 15.4767 0 14.8334 0V0Z" fill="white"/>
    </g>
    <defs>
        <clipPath id="clip0">
            <rect width="16" height="16" fill="white"/>
        </clipPath>
    </defs>
</svg>
