<svg width="15" height="15" viewBox="0 0 15 15" fill="none" xmlns="http://www.w3.org/2000/svg">
    <path d="M14.6175 3.84959L7.86773 0.100699C7.6357 -0.0335663 7.34955 -0.0335663 7.11752 0.100699L0.367751 3.84959C0.137845 3.98597 -0.00208249 4.23481 2.34397e-05 4.50194V14.2499C2.34397e-05 14.4489 0.0794745 14.6394 0.220102 14.78C0.360729 14.9205 0.551254 15 0.750237 15H5.25008C5.44906 15 5.63961 14.9206 5.78022 14.78C5.92083 14.6394 6.0003 14.4489 6.0003 14.2499V9.75097H9.00043V14.2499H8.99973C8.99973 14.4489 9.07918 14.6394 9.21981 14.78C9.36043 14.9205 9.55096 15 9.74994 15H14.2498C14.4488 15 14.6393 14.9206 14.7799 14.78C14.9205 14.6394 15 14.4489 15 14.2499V4.50194C14.9993 4.23201 14.8531 3.98246 14.6175 3.84959H14.6175Z" fill="white"/>
</svg>
