<svg xmlns="http://www.w3.org/2000/svg" width="24.857" height="15.185" viewBox="0 0 24.857 15.185"><path d="M15.752,46.851a5.123,5.123,0,0,1-4.063-2.218,9.395,9.395,0,0,1,0-10.749,5.13,5.13,0,0,1,4.066-2.218h0a5.13,5.13,0,0,1,4.062,2.218l2.609,3.435,2.609-3.433A5.124,5.124,0,0,1,29.1,31.666h0c3.174,0,5.755,3.406,5.755,7.592a8.9,8.9,0,0,1-1.691,5.374A5.123,5.123,0,0,1,29.1,46.85h0a5.137,5.137,0,0,1-4.064-2.216L22.428,41.2l-2.609,3.433a5.14,5.14,0,0,1-4.064,2.218h0Zm8.136-7.61,2.6,3.428A3.3,3.3,0,0,0,29.1,44.09h0a3.289,3.289,0,0,0,2.609-1.421,5.654,5.654,0,0,0,1.074-3.411c0-2.664-1.652-4.831-3.684-4.831a3.293,3.293,0,0,0-2.609,1.422c-1.2,1.576-2.019,2.658-2.6,3.392Zm-8.131-4.814h0a3.286,3.286,0,0,0-2.609,1.421,5.951,5.951,0,0,0,0,6.821,3.287,3.287,0,0,0,2.608,1.421h0a3.3,3.3,0,0,0,2.611-1.424c1.2-1.575,2.019-2.657,2.6-3.389l-2.6-3.429A3.289,3.289,0,0,0,15.757,34.427Z" transform="translate(-10 -31.666)"/></svg>