<svg xmlns="http://www.w3.org/2000/svg" width="30.259" height="30.259" viewBox="0 0 30.259 30.259"><defs><style>.a{fill:#363636;}</style></defs><path class="a" d="M188.977.423a1.439,1.439,0,0,0-2.037,0L176.431,10.931l-3.3-3.3a1.44,1.44,0,0,0-2.459,1.019v8.645a1.44,1.44,0,0,0,1.441,1.441h8.645a1.441,1.441,0,0,0,1.019-2.46l-3.3-3.3L188.977,2.46a1.439,1.439,0,0,0,0-2.037Zm0,0" transform="translate(-159.141 0)"/><path class="a" d="M24.5,50.158H4.323A4.328,4.328,0,0,1,0,45.835V25.663A4.328,4.328,0,0,1,4.323,21.34H15.85a1.441,1.441,0,1,1,0,2.882H4.323a1.442,1.442,0,0,0-1.441,1.441V45.835a1.442,1.442,0,0,0,1.441,1.441H24.5a1.442,1.442,0,0,0,1.441-1.441V34.308a1.441,1.441,0,1,1,2.882,0V45.835A4.328,4.328,0,0,1,24.5,50.158Zm0,0" transform="translate(0 -19.899)"/></svg>