<svg xmlns="http://www.w3.org/2000/svg" width="23" height="21.132" viewBox="0 0 23 21.132"><defs><style>.a{stroke:#000;}</style></defs><g transform="translate(-225.5 -3486.5)"><g transform="translate(226 3487)"><g transform="translate(0 0)"><path class="a" d="M19.643,0H2.357A2.264,2.264,0,0,0,0,2.159v11.5a2.264,2.264,0,0,0,2.357,2.157H5.146l-.427,3.516a.737.737,0,0,0,.695.794.834.834,0,0,0,.612-.18l5.014-4.129h8.6A2.264,2.264,0,0,0,22,13.662V2.159A2.264,2.264,0,0,0,19.643,0Zm.786,13.66a.755.755,0,0,1-.786.719h-8.9a.828.828,0,0,0-.526.185l-3.7,3.051.3-2.437a.737.737,0,0,0-.694-.794.851.851,0,0,0-.087,0H2.357a.755.755,0,0,1-.786-.719V2.159a.755.755,0,0,1,.786-.719H19.643a.755.755,0,0,1,.786.719v11.5Z" transform="translate(0 -0.002)"/></g></g><g transform="translate(232.82 3489.988)"><g transform="translate(0 0)"><path class="a" d="M112.435,3.826a1.8,1.8,0,0,0,1.643-1.913,1.662,1.662,0,1,0-3.286,0A1.8,1.8,0,0,0,112.435,3.826Z" transform="translate(-108.497)"/><path class="a" d="M31.83,249.488a2.122,2.122,0,0,0-.224-.415,2.765,2.765,0,0,0-1.917-1.226.405.405,0,0,0-.282.069,2.345,2.345,0,0,1-2.8,0,.361.361,0,0,0-.282-.069,2.745,2.745,0,0,0-1.917,1.226,2.446,2.446,0,0,0-.224.415.213.213,0,0,0,.01.188,3.95,3.95,0,0,0,.263.4,3.74,3.74,0,0,0,.448.514,5.869,5.869,0,0,0,.448.4,4.381,4.381,0,0,0,5.293,0,4.3,4.3,0,0,0,.448-.4,4.545,4.545,0,0,0,.448-.514,3.472,3.472,0,0,0,.263-.4A.171.171,0,0,0,31.83,249.488Z" transform="translate(-24.165 -242.738)"/></g></g></g></svg>