<svg xmlns="http://www.w3.org/2000/svg" width="15.624" height="15.624" viewBox="0 0 15.624 15.624"><defs><style>.a{stroke:#000;stroke-width:0.2px;}</style></defs><g transform="translate(-68.756 -9.183)"><g transform="translate(64)"><g transform="translate(0)"><path class="a" d="M138.989,179.25a18.624,18.624,0,0,1-1.537-1.326c-.49-.49-.926-.964-1.3-1.416a14.389,14.389,0,0,0,.85-3.271c0-2.133-.771-2.571-1.928-2.571-.879,0-1.928.457-1.928,2.632a6.162,6.162,0,0,0,1.567,3.476c-.255.778-.554,1.675-.891,2.686-.162.485-.338.935-.523,1.35-.151.067-.3.136-.44.206-.511.255-1,.485-1.446.7-2.052.972-3.408,1.614-3.408,2.883,0,.921,1,1.492,1.928,1.492,1.195,0,3-1.6,4.317-4.285a25.569,25.569,0,0,1,4.412-1.19,7.373,7.373,0,0,0,2.839,1.619c1.594,0,1.928-.921,1.928-1.694,0-1.52-1.736-1.52-2.571-1.52A15.225,15.225,0,0,0,138.989,179.25Zm-9.061,5.555a1.016,1.016,0,0,1-.643-.206c0-.456,1.359-1.1,2.673-1.722l.254-.12C131.247,184.156,130.293,184.805,129.928,184.805Zm4.5-11.507c0-1.347.418-1.347.643-1.347.454,0,.643,0,.643,1.285a10.3,10.3,0,0,1-.512,2.007A3.949,3.949,0,0,1,134.427,173.3Zm.493,6.908q.06-.168.117-.339c.238-.715.453-1.358.645-1.937q.4.441.862.9c.12.121.419.392.817.731C136.568,179.736,135.725,179.95,134.92,180.206Zm7.22.335c0,.289,0,.409-.6.412a4.737,4.737,0,0,1-1.08-.616c.181-.02.315-.03.39-.03C141.8,180.306,142.073,180.4,142.139,180.54Z" transform="translate(-123.144 -161.383)"/></g></g></g></svg>