<svg xmlns="http://www.w3.org/2000/svg" width="19.667" height="14.801" viewBox="0 0 19.667 14.801"><defs><style>.a{fill:#fff;stroke:#fff;stroke-width:0.2px;}</style></defs><g transform="translate(0.1 -63.9)"><g transform="translate(0 64)"><path class="a" d="M16.645,69A2.914,2.914,0,0,0,14.6,64a2.932,2.932,0,0,0-1.514.423.325.325,0,0,0,.335.556,2.271,2.271,0,0,1,3.45,1.941,2.259,2.259,0,0,1-1.035,1.9,2.283,2.283,0,0,1-1.865.281.324.324,0,1,0-.178.624,2.929,2.929,0,0,0,.806.113,2.891,2.891,0,0,0,1.441-.39,4.2,4.2,0,0,1,2.777,3.96v1.622H15.86a6.169,6.169,0,0,0-3.582-4.964,3.569,3.569,0,1,0-5.088,0,6.252,6.252,0,0,0-1.816,1.253A6.131,6.131,0,0,0,3.6,75.032H.649V73.409a4.2,4.2,0,0,1,1.234-2.982,4.263,4.263,0,0,1,1.545-.976,2.893,2.893,0,0,0,1.438.389,2.929,2.929,0,0,0,.806-.113.324.324,0,1,0-.178-.624,2.282,2.282,0,0,1-1.866-.281,2.27,2.27,0,0,1,1.238-4.173,2.283,2.283,0,0,1,1.179.33.325.325,0,0,0,.335-.556,2.92,2.92,0,0,0-4.434,2.5A2.9,2.9,0,0,0,2.821,69a4.943,4.943,0,0,0-1.4.973A4.848,4.848,0,0,0,0,73.409v1.947a.324.324,0,0,0,.324.324H3.569v2.6a.324.324,0,0,0,.324.324h11.68a.324.324,0,0,0,.324-.324v-2.6h3.245a.324.324,0,0,0,.324-.324V73.409A4.849,4.849,0,0,0,16.645,69ZM6.814,67.569a2.92,2.92,0,1,1,2.92,2.92A2.923,2.923,0,0,1,6.814,67.569ZM15.25,77.952H4.218V75.68a5.491,5.491,0,0,1,1.614-3.9,5.572,5.572,0,0,1,1.925-1.242,3.558,3.558,0,0,0,3.956,0A5.518,5.518,0,0,1,15.25,75.68v2.271Z" transform="translate(0 -64)"/></g></g></svg>