<svg xmlns="http://www.w3.org/2000/svg" width="25.221" height="21.009" viewBox="0 0 25.221 21.009"><defs><style>.a{stroke:#000;stroke-width:0.7px;}</style></defs><g transform="translate(0.35 0.35)"><g transform="translate(0 0)"><path class="a" d="M22.635,43.979H1.886A1.866,1.866,0,0,0,0,45.865V62.4a1.866,1.866,0,0,0,1.886,1.886H22.635A1.866,1.866,0,0,0,24.521,62.4V45.865A1.866,1.866,0,0,0,22.635,43.979Zm0,18.423H1.886L1.872,45.867H22.635V62.4Z" transform="translate(0 -43.979)"/></g><g transform="translate(0.384 5.659)"><path class="a" d="M17.015,162.473a.943.943,0,0,0-1.285-.158l-7.7,5.659,1.117,1.52,6.985-5.132,9.933,11.984,1.452-1.2Z" transform="translate(-8.028 -162.132)"/></g><g transform="translate(12.805 6.634)"><path class="a" d="M273.006,182.692a.944.944,0,0,0-1.172,0l-4.464,3.552,1.175,1.476,3.879-3.087,5.135,4.063,1.17-1.479Z" transform="translate(-267.369 -182.489)"/></g></g></svg>