<svg xmlns="http://www.w3.org/2000/svg" width="10.267" height="10" viewBox="0 0 10.267 17.99"><defs><style>.a{stroke:#fff;stroke-width:0.2px;}</style></defs><g transform="translate(-104.954 -47.888)"><path class="a" d="M108.946,60.529a.722.722,0,0,1-.813-.719,4.043,4.043,0,0,1,1.495-3.37c1.143-.943,2.887-2.071,2.647-3.846a2.214,2.214,0,0,0-2.56-1.818,3.114,3.114,0,0,0-2.174,1.666l0,.008a.84.84,0,0,1-1.128.352l-.847-.444a.92.92,0,0,1-.393-1.181c1.966-4.514,9.188-4.279,9.908,1.05a5.02,5.02,0,0,1-1.938,4.583c-.995.879-2.181,1.526-2.328,3.043a.742.742,0,0,1-.61.682Zm-.834,3.845V63.69a1.34,1.34,0,1,1,2.677,0v.683a1.34,1.34,0,1,1-2.677,0Z" transform="translate(0)"/></g></svg>
