<svg xmlns="http://www.w3.org/2000/svg" width="12.693" height="16.036" viewBox="0 0 12.693 16.036"><defs><style>.a{fill:#fff;}</style></defs><g transform="translate(8.617 2.02)"><path class="a" d="M3.139-1.267H1.969a.235.235,0,0,0-.235.235A.235.235,0,0,0,1.969-.8h.145V12.174h-8.77V-.8h.978v.534a.743.743,0,0,0,.742.742h1.111A1.316,1.316,0,0,0-2.532,1.557h.523A1.316,1.316,0,0,0-.716.478H.395a.743.743,0,0,0,.742-.742V-1.278A.743.743,0,0,0,.395-2.02H-4.936a.743.743,0,0,0-.742.742v.01h-2a.938.938,0,0,0-.937.937V9.1a.235.235,0,0,0,.235.235A.235.235,0,0,0-8.147,9.1V-.331A.468.468,0,0,1-7.68-.8h.555V12.408a.235.235,0,0,0,.235.235h9.24a.235.235,0,0,0,.235-.235V-.8h.555a.468.468,0,0,1,.467.467V13.08a.468.468,0,0,1-.467.467H-7.68a.468.468,0,0,1-.467-.467V10.207a.235.235,0,0,0-.235-.235.235.235,0,0,0-.235.235V13.08a.938.938,0,0,0,.937.937H3.139a.938.938,0,0,0,.937-.937V-.331A.938.938,0,0,0,3.139-1.267Zm-8.347-.01a.272.272,0,0,1,.272-.272H.395a.272.272,0,0,1,.272.272V-.264A.272.272,0,0,1,.395.008H-.93a.235.235,0,0,0-.235.235.845.845,0,0,1-.844.844h-.523A.845.845,0,0,1-3.376.243.235.235,0,0,0-3.611.008H-4.936a.272.272,0,0,1-.272-.272Zm0,0"/><path class="a" d="M191.829,255.958h-1.242l-.794-2.168a.235.235,0,0,0-.448.023l-.853,3.357-.823-2.395a.235.235,0,0,0-.427-.039l-.685,1.221h-.713a.235.235,0,1,0,0,.47h.85a.235.235,0,0,0,.2-.12l.5-.884.909,2.643a.235.235,0,0,0,.45-.018l.86-3.384.589,1.608a.235.235,0,0,0,.221.154h1.406a.235.235,0,0,0,0-.47Zm0,0" transform="translate(-191.107 -251.55)"/><path class="a" d="M191.829,639.355h-5.985a.235.235,0,0,0,0,.47h5.985a.235.235,0,0,0,0-.47Zm0,0" transform="translate(-191.107 -631.074)"/><path class="a" d="M191.829,768.207h-5.985a.235.235,0,0,0,0,.47h5.985a.235.235,0,0,0,0-.47Zm0,0" transform="translate(-191.107 -757.856)"/></g></svg>