<svg xmlns="http://www.w3.org/2000/svg" width="18.502" height="18.502" viewBox="0 0 18.502 18.502"><defs><style>.a{fill:#fff;}</style></defs><g transform="translate(0.001 0.001)"><path class="a" d="M18.184,3.365,15.135.316a1.085,1.085,0,0,0-1.533,0L9.344,4.574h0L6.164,7.753h0L1.4,12.522h0L.316,13.6a1.085,1.085,0,0,0,0,1.533l3.049,3.049a1.086,1.086,0,0,0,1.533,0l1.647-1.647a.361.361,0,1,0-.511-.511L4.387,17.673a.362.362,0,0,1-.511,0L.827,14.624a.362.362,0,0,1,0-.511l.824-.824,1.2,1.2a.361.361,0,1,0,.511-.511l-1.2-1.2L3.24,11.7l.423.423a.361.361,0,1,0,.511-.511l-.423-.423L4.83,10.11l1.2,1.2A.361.361,0,1,0,6.54,10.8l-1.2-1.2L6.42,8.52l.423.423a.361.361,0,1,0,.511-.511l-.423-.423L8.01,6.93l1.2,1.2a.361.361,0,0,0,.511-.511l-1.2-1.2L9.6,5.341l.423.423a.361.361,0,0,0,.511-.511l-.423-.423,1.079-1.079,1.2,1.2a.361.361,0,0,0,.511-.511l-1.2-1.2,1.079-1.079.423.423a.361.361,0,0,0,.511-.511L13.29,1.65l.823-.823a.362.362,0,0,1,.511,0l3.049,3.049a.362.362,0,0,1,0,.511L8.078,13.982a.361.361,0,0,0,.511.511L18.184,4.9A1.085,1.085,0,0,0,18.184,3.365Zm0,0" transform="translate(0 0)"/><path class="a" d="M192.783,412.359a.362.362,0,1,0,.255.106A.364.364,0,0,0,192.783,412.359Zm0,0" transform="translate(-185.469 -397.459)"/></g></svg>