<svg xmlns="http://www.w3.org/2000/svg" width="34.092" height="34.092" viewBox="0 0 34.092 34.092"><defs><style>.b{fill:#15841C;stroke:#15841C;}</style></defs><g class="a" transform="translate(0.5 0.5)"><path class="b" d="M31.94,22.674,24,30.61l-3.925-3.9a1.142,1.142,0,0,0-1.615,1.615l4.736,4.736a1.141,1.141,0,0,0,1.615,0l8.747-8.775a1.142,1.142,0,0,0-1.615-1.615Z" transform="translate(-9.495 -11.303)"/><path class="b" d="M19.546,3A16.546,16.546,0,1,0,36.092,19.546,16.546,16.546,0,0,0,19.546,3Zm0,30.81A14.264,14.264,0,1,1,33.81,19.546,14.264,14.264,0,0,1,19.546,33.81Z" transform="translate(-3 -3)"/></g></svg>