<svg id="Layer_1" data-name="Layer 1" xmlns="http://www.w3.org/2000/svg" viewBox="0 0 37 44"><defs><style>.cls-1{fill:#444546;}</style></defs><title>scheduling icons</title><path class="cls-1" d="M8.12,17H8.2a.63.63,0,0,0,.62-.54,10,10,0,0,1,5.45-7.68.63.63,0,0,0-.56-1.12,11.23,11.23,0,0,0-6.14,8.64A.63.63,0,0,0,8.12,17Z"/><path class="cls-1" d="M35,35.86c0-1.81-1.64-3.32-3.83-3.69V15.89A13.31,13.31,0,0,0,21.07,4.09a2.48,2.48,0,0,0,0-.27,3.1,3.1,0,0,0-6.2,0,2.48,2.48,0,0,0,0,.27A13.31,13.31,0,0,0,4.8,16V32.17C2.61,32.54,1,34.05,1,35.86,1,38,3.15,39.65,5.84,39.65h8.6a3.77,3.77,0,0,0,7.53,0h8.19C32.85,39.65,35,38,35,35.86ZM18,2.47a1.36,1.36,0,0,1,1.35,1.32A12.08,12.08,0,0,0,18,3.71a12.22,12.22,0,0,0-1.35.08A1.36,1.36,0,0,1,18,2.47Zm0,3A11.53,11.53,0,0,1,29.45,16V32.08H6.55v-16A11.52,11.52,0,0,1,18,5.46Zm.2,36.07a2,2,0,0,1-2-1.88h4A2,2,0,0,1,18.2,41.53ZM5.84,37.9c-1.69,0-3.12-.94-3.12-2s1.43-2,3.12-2H30.16c1.69,0,3.12.93,3.12,2s-1.43,2-3.12,2Z"/></svg>