<svg xmlns="http://www.w3.org/2000/svg" width="11.752" height="11.25" viewBox="0 0 11.752 11.25"><defs><style>.a{fill:#fff;stroke:#fff;stroke-width:0.25px;}</style></defs><g transform="translate(0.126 0.125)"><path class="a" d="M11.424,10.717H7.359a.359.359,0,0,1,0-.717h4.065a.359.359,0,0,1,0,.717Z" transform="translate(-3.652 -5.217)"/><path class="a" d="M11.424,7.717H7.359a.359.359,0,1,1,0-.717h4.065a.359.359,0,1,1,0,.717Z" transform="translate(-3.652 -3.652)"/><path class="a" d="M9.511,4.717H7.359a.359.359,0,1,1,0-.717H9.511a.359.359,0,1,1,0,.717Z" transform="translate(-3.652 -2.087)"/><path class="a" d="M10.4,13.817H1.076A1.077,1.077,0,0,1,0,12.741V6.954a1.076,1.076,0,0,1,.566-.947l1.058-.565a.359.359,0,0,1,.338.633L.905,6.639a.364.364,0,0,0-.188.315v5.787a.359.359,0,0,0,.359.359H10.4a.359.359,0,0,0,.359-.359V6.954a.364.364,0,0,0-.19-.316L9.515,6.075a.359.359,0,0,1,.338-.633l1.057.564a1.076,1.076,0,0,1,.568.947v5.787A1.077,1.077,0,0,1,10.4,13.817Z" transform="translate(0 -2.817)"/><path class="a" d="M5.739,13.283a1.324,1.324,0,0,1-.609-.148L.193,10.556A.359.359,0,0,1,.525,9.92L5.461,12.5a.619.619,0,0,0,.559,0L10.954,9.92a.359.359,0,0,1,.332.636L6.351,13.134A1.333,1.333,0,0,1,5.739,13.283Z" transform="translate(0 -5.154)"/><path class="a" d="M11.25,6.193a.359.359,0,0,1-.359-.359V1.315a.6.6,0,0,0-.6-.6H4.315a.6.6,0,0,0-.6.6v4.52a.359.359,0,0,1-.717,0V1.315A1.317,1.317,0,0,1,4.315,0h5.978a1.317,1.317,0,0,1,1.315,1.315v4.52A.359.359,0,0,1,11.25,6.193Z" transform="translate(-1.565)"/></g></svg>
