<svg id="Layer_1" data-name="Layer 1" xmlns="http://www.w3.org/2000/svg" viewBox="0 0 42 29"><defs><style>.cls-1{fill:#444546;}</style></defs><title>scheduling icons</title><path class="cls-1" d="M3,28.38H39a2.88,2.88,0,0,0,2.88-2.87V3.5A2.89,2.89,0,0,0,40.1.84,2.45,2.45,0,0,0,39,.62H3A2.45,2.45,0,0,0,1.9.84,2.89,2.89,0,0,0,.13,3.5v22A2.88,2.88,0,0,0,3,28.38Zm35.64-26L22,16.75a1.55,1.55,0,0,1-1.89,0L3.36,2.37ZM1.88,3.5s0-.06,0-.09l.06,0,17,14.61a3.25,3.25,0,0,0,4.18,0l17-14.61,0,0s0,.06,0,.09v22A1.13,1.13,0,0,1,39,26.63H3a1.12,1.12,0,0,1-1.12-1.12Z"/></svg>