<svg xmlns="http://www.w3.org/2000/svg" width="8.45" height="11.2" viewBox="0 0 8.45 11.2"><defs><style>.a{fill:#fff;stroke:#fff;stroke-width:0.2px;}</style></defs><g transform="translate(0.1 0.1)"><path class="a" d="M109.991,303.255a.344.344,0,0,1-.344-.344v-2.027a.578.578,0,0,0-.168-.405l-.978-.978-.978.978a.576.576,0,0,0-.168.4v2.027a.344.344,0,0,1-.687,0v-2.027a1.251,1.251,0,0,1,.369-.891l1.221-1.221a.344.344,0,0,1,.486,0l1.221,1.221a1.252,1.252,0,0,1,.369.891v2.027A.345.345,0,0,1,109.991,303.255Zm0,0" transform="translate(-104.376 -292.255)"/><path class="a" d="M7.906.688H.344A.344.344,0,0,1,.344,0H7.906a.344.344,0,0,1,0,.688Zm0,0"/><path class="a" d="M7.906,480.688H.344a.344.344,0,0,1,0-.687H7.906a.344.344,0,0,1,0,.688Zm0,0" transform="translate(0 -469.688)"/><path class="a" d="M43.012,11a.344.344,0,0,1-.344-.344V8.583a2.637,2.637,0,0,1,.872-1.958l.776-.7a.573.573,0,0,0,0-.852l-.776-.7a2.639,2.639,0,0,1-.872-1.959V.344a.344.344,0,0,1,.688,0V2.417A1.95,1.95,0,0,0,44,3.864l.776.7a1.261,1.261,0,0,1,0,1.874l-.776.7a1.952,1.952,0,0,0-.645,1.448v2.073A.344.344,0,0,1,43.012,11Zm0,0" transform="translate(-41.751)"/><path class="a" d="M225.967,11a.344.344,0,0,1-.344-.344V8.583a1.95,1.95,0,0,0-.645-1.447l-.776-.7a1.261,1.261,0,0,1,0-1.874l.776-.7a1.952,1.952,0,0,0,.645-1.448V.344a.344.344,0,0,1,.688,0V2.417a2.637,2.637,0,0,1-.872,1.958l-.776.7a.573.573,0,0,0,0,.852l.776.7a2.641,2.641,0,0,1,.872,1.959v2.073A.344.344,0,0,1,225.967,11Zm0,0" transform="translate(-218.977)"/></g></svg>
