<svg id="Layer_1" data-name="Layer 1" xmlns="http://www.w3.org/2000/svg" viewBox="0 0 39 44"><defs><style>.cls-1{fill:#444546;}</style></defs><title>scheduling icons</title><path class="cls-1" d="M4.16,43.31H35.6a2.88,2.88,0,0,0,2.88-2.87V16.71a2.88,2.88,0,0,0-2.88-2.87h-4V4.44a2.88,2.88,0,0,0-2.87-2.88H11A2.88,2.88,0,0,0,8.11,4.44V17H4.16a2.87,2.87,0,0,0-2.88,2.87V40.44A2.88,2.88,0,0,0,4.16,43.31ZM9.86,4.44A1.13,1.13,0,0,1,11,3.31H28.77a1.12,1.12,0,0,1,1.12,1.13v9.4H26.14A3.07,3.07,0,0,0,24,14.7a2.28,2.28,0,0,0-.66,1.61.45.45,0,0,1-.16.35,1.3,1.3,0,0,1-.93.35H9.86ZM3,19.88a1.13,1.13,0,0,1,1.13-1.12h18a3.05,3.05,0,0,0,2.18-.87A2.2,2.2,0,0,0,25,16.28a.53.53,0,0,1,.16-.35,1.3,1.3,0,0,1,.94-.34H35.6a1.13,1.13,0,0,1,1.13,1.12V40.44a1.13,1.13,0,0,1-1.13,1.12H4.16A1.13,1.13,0,0,1,3,40.44Z"/><path class="cls-1" d="M13.34,7.2H26.41a.88.88,0,1,0,0-1.75H13.34a.88.88,0,0,0,0,1.75Z"/><path class="cls-1" d="M27.29,9.76a.87.87,0,0,0-.88-.87H13.34a.88.88,0,0,0,0,1.75H26.41A.87.87,0,0,0,27.29,9.76Z"/></svg>