<svg width="12" height="16" viewBox="0 0 12 16" fill="none" xmlns="http://www.w3.org/2000/svg">
    <path d="M8.66964 1.04537V2.12001C8.66964 2.16005 8.63299 2.19255 8.58794 2.19255H2.86731C2.82226 2.19255 2.7856 2.15997 2.7856 2.12001V1.04537C2.7856 1.00533 2.82226 0.972827 2.86731 0.972827H4.33184V0H7.12341V0.972744H8.58794C8.63299 0.972744 8.66964 1.00533 8.66964 1.04537ZM11.4552 3.50422V14.7309C11.4552 15.4318 10.816 16 10.0275 16H1.42778C0.639274 16 0 15.4318 0 14.7309V3.50422C0 2.80332 0.639274 2.23508 1.42778 2.23508H1.86214C1.92603 2.67797 2.3519 3.02162 2.86731 3.02162H8.58794C9.10335 3.02162 9.52922 2.67797 9.59311 2.23508H10.0275C10.8161 2.23516 11.4552 2.80332 11.4552 3.50422Z" fill="white"/>
</svg>
