<svg id="Layer_1" data-name="Layer 1" xmlns="http://www.w3.org/2000/svg" viewBox="0 0 44 44"><defs><style>.cls-1{fill:#444546;}</style></defs><title>scheduling icons</title><path class="cls-1" d="M4,42.88H40A2.88,2.88,0,0,0,42.88,40V4A2.88,2.88,0,0,0,40,1.12H4A2.88,2.88,0,0,0,1.12,4V40A2.88,2.88,0,0,0,4,42.88ZM2.88,4A1.12,1.12,0,0,1,4,2.88H40A1.12,1.12,0,0,1,41.12,4V40A1.12,1.12,0,0,1,40,41.12H4A1.12,1.12,0,0,1,2.88,40Z"/><path class="cls-1" d="M21.46,29.36h.09v1.39a.8.8,0,0,0,1.6,0V29.39l.09,0a4.1,4.1,0,0,0,3.41-4.26c0-1.33-.45-3-4-4.22-2.08-.69-3-1.22-3-2.72,0-.08.16-2,2.71-2a2.9,2.9,0,0,1,2.73,2.2.78.78,0,0,0,.36.49A.8.8,0,0,0,26.63,18a4.61,4.61,0,0,0-3.4-3.31l-.08,0V13.24a.8.8,0,0,0-1.6,0v1.38h-.09a3.82,3.82,0,0,0-3.41,3.52c0,2.68,2,3.57,4.05,4.26,2.6.86,3,1.83,3,2.74a2.57,2.57,0,0,1-2.71,2.71A3.52,3.52,0,0,1,18.93,25a.8.8,0,1,0-1.56.31A5.22,5.22,0,0,0,21.46,29.36Z"/></svg>