<svg id="Layer_1" data-name="Layer 1" xmlns="http://www.w3.org/2000/svg" viewBox="0 0 44 44"><defs><style>.cls-1{fill:#444546;}</style></defs><title>scheduling icons</title><path class="cls-1" d="M40.8,8.21H39.11V4a2.88,2.88,0,0,0-2.88-2.88H7.77A2.88,2.88,0,0,0,4.89,4V8.21H3.2A2.87,2.87,0,0,0,.33,11.08V34.17A2.87,2.87,0,0,0,3.2,37H4.89v3a2.88,2.88,0,0,0,2.88,2.88H36.23A2.88,2.88,0,0,0,39.11,40V37H40.8a2.87,2.87,0,0,0,2.87-2.87V11.08A2.87,2.87,0,0,0,40.8,8.21ZM6.64,4A1.13,1.13,0,0,1,7.77,2.88H36.23A1.13,1.13,0,0,1,37.36,4V8.21H6.64ZM37.36,40a1.13,1.13,0,0,1-1.13,1.12H7.77A1.13,1.13,0,0,1,6.64,40V29.54H37.36Zm4.56-5.83a1.12,1.12,0,0,1-1.12,1.12H39.11V29.54h.71a.88.88,0,0,0,0-1.75H4.18a.88.88,0,0,0,0,1.75h.71v5.75H3.2a1.12,1.12,0,0,1-1.12-1.12V11.08A1.12,1.12,0,0,1,3.2,10H40.8a1.12,1.12,0,0,1,1.12,1.12Z"/><path class="cls-1" d="M8.86,33.85H35.14a.63.63,0,0,0,0-1.25H8.86a.63.63,0,0,0,0,1.25Z"/><path class="cls-1" d="M8.86,37.18H35.14a.63.63,0,0,0,0-1.25H8.86a.63.63,0,0,0,0,1.25Z"/></svg>