
<svg xmlns="http://www.w3.org/2000/svg" width="12.011" height="12.005" viewBox="0 0 12.011 12.005">
    <defs>
        <style>.a{stroke:#fff;stroke-width:0.1px;fill: #fff}
        </style>
    </defs>
    <g transform="translate(0.156 0.152)">
        <path class="a" d="M11.688.874a.91.91,0,0,0-.86-.86A9.033,9.033,0,0,0,6.3.92,8.89,8.89,0,0,0,3.7,3.073l-.028.034-1.714.132a.9.9,0,0,0-.689.406L.1,5.413a.627.627,0,0,0,.427.965L1.975,6.6c-.005.028-.01.056-.015.084a.909.909,0,0,0,.255.791L4.226,9.488a.911.911,0,0,0,.643.267.9.9,0,0,0,.148-.012L5.1,9.728l.224,1.444a.626.626,0,0,0,.965.427l1.768-1.169a.9.9,0,0,0,.406-.689L8.6,8.026,8.629,8a8.89,8.89,0,0,0,2.153-2.6A9.034,9.034,0,0,0,11.688.874ZM7.68,9.857,5.988,10.976,5.77,9.568a7.68,7.68,0,0,0,2.1-1L7.78,9.687a.223.223,0,0,1-.1.17ZM4.711,9,2.7,6.992A.222.222,0,0,1,2.636,6.8,5.9,5.9,0,0,1,2.9,5.78L5.921,8.8A5.923,5.923,0,0,1,4.9,9.066.222.222,0,0,1,4.711,9Zm-2.7-5.08,1.116-.086a7.68,7.68,0,0,0-1,2.1L.727,5.714,1.845,4.023A.223.223,0,0,1,2.015,3.923ZM8.19,7.472A7.861,7.861,0,0,1,6.6,8.51L3.192,5.1A8,8,0,0,1,4.23,3.512,8.182,8.182,0,0,1,6.615,1.529,8.34,8.34,0,0,1,10.791.7.225.225,0,0,1,11,.911a8.339,8.339,0,0,1-.831,4.176A8.182,8.182,0,0,1,8.19,7.472Z" transform="translate(0)"/>
        <path class="a" d="M277.437,89.745a1.713,1.713,0,1,0-1.212-.5A1.709,1.709,0,0,0,277.437,89.745ZM276.71,87.3a1.028,1.028,0,1,1-.3.727A1.025,1.025,0,0,1,276.71,87.3Z" transform="translate(-269.421 -84.345)"/>
        <path class="a" d="M.644,344.77a.342.342,0,0,0,.242-.1l1.119-1.119a.343.343,0,0,0-.485-.485L.4,344.184a.343.343,0,0,0,.242.585Z" transform="translate(-0.295 -335.125)"/>
        <path class="a" d="M2.738,387.946a.343.343,0,0,0-.485,0L.1,390.1a.343.343,0,1,0,.485.485l2.152-2.152A.343.343,0,0,0,2.738,387.946Z" transform="translate(-0.001 -378.981)"/>
        <path class="a" d="M91.282,432.827l-1.119,1.119a.343.343,0,1,0,.485.485l1.119-1.119a.343.343,0,1,0-.485-.485Z" transform="translate(-88.004 -422.836)"/>
    </g>
</svg>
