<svg xmlns="http://www.w3.org/2000/svg" width="9.3" height="10.54" viewBox="0 0 9.3 10.54"><defs><style>.a{stroke:#fff;stroke-width:0.3px;}</style></defs><g transform="translate(0.15 0.15)"><path class="a" d="M39.1,1.2H37.6V.9a.9.9,0,0,0-.9-.9H34.3a.9.9,0,0,0-.9.9v.3H31.9a.9.9,0,0,0-.28,1.755l.535,6.459a.905.905,0,0,0,.9.825h4.9a.905.905,0,0,0,.9-.825l.535-6.459A.9.9,0,0,0,39.1,1.2ZM34,.9a.3.3,0,0,1,.3-.3h2.4a.3.3,0,0,1,.3.3v.3H34Zm4.247,8.465a.3.3,0,0,1-.3.275h-4.9a.3.3,0,0,1-.3-.275L32.226,3h6.548ZM39.1,2.4H31.9a.3.3,0,0,1,0-.6h7.2a.3.3,0,1,1,0,.6Z" transform="translate(-31)"/><g transform="translate(2.4 3.6)"><path class="a" d="M151.9,185.12l-.3-4.84a.3.3,0,0,0-.6.037l.3,4.84a.3.3,0,0,0,.6-.037Z" transform="translate(-150.999 -179.999)"/></g><g transform="translate(4.2 3.6)"><path class="a" d="M241.3,180a.3.3,0,0,0-.3.3v4.84a.3.3,0,1,0,.6,0V180.3A.3.3,0,0,0,241.3,180Z" transform="translate(-241 -180)"/></g><g transform="translate(5.7 3.6)"><path class="a" d="M316.618,180a.3.3,0,0,0-.318.281l-.3,4.84a.3.3,0,0,0,.6.037l.3-4.84A.3.3,0,0,0,316.618,180Z" transform="translate(-315.999 -180)"/></g></g></svg>